M48
;Layer_Color=9474304
;FILE_FORMAT=2:4
INCH,TZ
;TYPE=PLATED
T1F00S00C0.0276
T2F00S00C0.0315
T3F00S00C0.0354
T4F00S00C0.0394
T5F00S00C0.0551
T6F00S00C0.0945
%
T01
X25400Y11300
X26600
X27800
X29000
X30300Y7500
X31200Y8200
X30900Y19300
X30000
X29100
X28200
X16583Y14519
X15000Y13700
X14400Y11800
X13400Y12700
X11800Y14200
X11828Y9828
X13400Y8400
X15000Y8700
X29000Y22900
T02
X16142Y5799
Y6799
X18504
Y5799
T03
X9646Y18504
X11614
X15551Y25984
X17520
T04
X43870Y10236
Y12598
X43870Y18110
Y20472
X34870
X33516Y20854
Y19854
Y18854
Y17854
X32516
Y18854
Y19854
Y20854
X34870Y18110
X34870Y12598
X33516Y12854
Y11854
Y10854
Y9854
X32516
Y10854
Y11854
Y12854
X34870Y10236
X15516Y16354
Y17354
Y18354
X14516
Y17354
Y16354
T05
X1969Y3118
Y5118
X41882Y7480
X43882
X45882
X47882
X1969Y7118
Y13535
Y15535
Y17535
Y19535
X1969Y25772
Y27772
X41882Y23228
X43882
X45882
X47882
T06
X1969Y1118
X39882Y7480
X49882
X1969Y9118
Y11535
Y21535
X1969Y23772
Y29772
X39882Y23228
X49882
M30
