G04*
G04 #@! TF.GenerationSoftware,Altium Limited,Altium Designer,22.5.1 (42)*
G04*
G04 Layer_Color=8421504*
%FSLAX25Y25*%
%MOIN*%
G70*
G04*
G04 #@! TF.SameCoordinates,AD146B9C-557F-4D5F-B811-4A91A8D423AC*
G04*
G04*
G04 #@! TF.FilePolarity,Positive*
G04*
G01*
G75*
%ADD10C,0.01181*%
%ADD17R,0.07500X0.05000*%
%ADD18R,0.12000X0.05000*%
%ADD19R,0.11417X0.21260*%
%ADD20R,0.04528X0.07087*%
%ADD21R,0.07087X0.04528*%
%ADD22R,0.09055X0.06102*%
%ADD23R,0.03937X0.02362*%
%ADD24R,0.05118X0.05906*%
%ADD25R,0.05984X0.07008*%
%ADD26R,0.08661X0.06102*%
%ADD27R,0.06102X0.09055*%
G04:AMPARAMS|DCode=28|XSize=45.28mil|YSize=141.73mil|CornerRadius=4.53mil|HoleSize=0mil|Usage=FLASHONLY|Rotation=270.000|XOffset=0mil|YOffset=0mil|HoleType=Round|Shape=RoundedRectangle|*
%AMROUNDEDRECTD28*
21,1,0.04528,0.13268,0,0,270.0*
21,1,0.03622,0.14173,0,0,270.0*
1,1,0.00906,-0.06634,-0.01811*
1,1,0.00906,-0.06634,0.01811*
1,1,0.00906,0.06634,0.01811*
1,1,0.00906,0.06634,-0.01811*
%
%ADD28ROUNDEDRECTD28*%
%ADD29R,0.06102X0.08661*%
%ADD30R,0.07087X0.04528*%
%ADD31R,0.01968X0.03543*%
%ADD32R,0.09055X0.08465*%
D10*
X1181Y-19820D02*
X6429D01*
X3805D01*
Y-27691D01*
X10364D02*
X12988D01*
X14300Y-26379D01*
Y-23755D01*
X12988Y-22444D01*
X10364D01*
X9053Y-23755D01*
Y-26379D01*
X10364Y-27691D01*
X16924Y-30315D02*
Y-22444D01*
X20860D01*
X22172Y-23755D01*
Y-26379D01*
X20860Y-27691D01*
X16924D01*
X32667D02*
Y-19820D01*
X36603D01*
X37915Y-21132D01*
Y-23755D01*
X36603Y-25067D01*
X32667D01*
X41850Y-22444D02*
X44474D01*
X45786Y-23755D01*
Y-27691D01*
X41850D01*
X40538Y-26379D01*
X41850Y-25067D01*
X45786D01*
X48410Y-27691D02*
X52346D01*
X53658Y-26379D01*
X52346Y-25067D01*
X49722D01*
X48410Y-23755D01*
X49722Y-22444D01*
X53658D01*
X57593Y-21132D02*
Y-22444D01*
X56282D01*
X58905D01*
X57593D01*
Y-26379D01*
X58905Y-27691D01*
X66777D02*
X64153D01*
X62841Y-26379D01*
Y-23755D01*
X64153Y-22444D01*
X66777D01*
X68089Y-23755D01*
Y-25067D01*
X62841D01*
D17*
X81864Y215283D02*
D03*
X58364D02*
D03*
Y222083D02*
D03*
X81864D02*
D03*
X58364Y228884D02*
D03*
X81864D02*
D03*
X58364Y235683D02*
D03*
X81864D02*
D03*
X58364Y249284D02*
D03*
X81864D02*
D03*
X58364Y242483D02*
D03*
X81864D02*
D03*
D18*
X70114Y215283D02*
D03*
Y222083D02*
D03*
Y228884D02*
D03*
Y235683D02*
D03*
Y249284D02*
D03*
Y242483D02*
D03*
D19*
X184449Y228346D02*
D03*
X146260D02*
D03*
D20*
X159000Y260000D02*
D03*
X170811D02*
D03*
X178937Y78740D02*
D03*
X167520D02*
D03*
X76575Y129921D02*
D03*
X65158D02*
D03*
X76575Y118110D02*
D03*
X65158D02*
D03*
X56890Y129921D02*
D03*
X45472D02*
D03*
X56890Y118110D02*
D03*
X45472D02*
D03*
X76575Y165354D02*
D03*
X65158D02*
D03*
X56890D02*
D03*
X45472D02*
D03*
X56890Y177165D02*
D03*
X45472D02*
D03*
X76575D02*
D03*
X65158D02*
D03*
X104134Y259842D02*
D03*
X92716D02*
D03*
X116142D02*
D03*
X127953D02*
D03*
X127756Y271654D02*
D03*
X116339D02*
D03*
X325000Y218504D02*
D03*
X336417D02*
D03*
X360039Y167323D02*
D03*
X348622D02*
D03*
X325000D02*
D03*
X336417D02*
D03*
X325000Y139764D02*
D03*
X336417D02*
D03*
X348622Y84646D02*
D03*
X360039D02*
D03*
X325000D02*
D03*
X336417D02*
D03*
X446654Y283465D02*
D03*
X435236D02*
D03*
X419095D02*
D03*
X407677D02*
D03*
X391535D02*
D03*
X380118D02*
D03*
X363976D02*
D03*
X352559D02*
D03*
X336417D02*
D03*
X325000D02*
D03*
X308858D02*
D03*
X297441D02*
D03*
X281299D02*
D03*
X269882D02*
D03*
X474213D02*
D03*
X462795D02*
D03*
X474213Y23622D02*
D03*
X462795D02*
D03*
X446654D02*
D03*
X435236D02*
D03*
X419095D02*
D03*
X407677D02*
D03*
X391535D02*
D03*
X380118D02*
D03*
X363976D02*
D03*
X352559D02*
D03*
X336417D02*
D03*
X325000D02*
D03*
X308858D02*
D03*
X297441D02*
D03*
X281299D02*
D03*
X269882D02*
D03*
D21*
X169291Y187008D02*
D03*
Y175197D02*
D03*
X157480Y151378D02*
D03*
Y139961D02*
D03*
X133858Y135827D02*
D03*
Y147638D02*
D03*
Y92520D02*
D03*
Y104331D02*
D03*
X145669Y57284D02*
D03*
Y68701D02*
D03*
X133858Y57284D02*
D03*
Y68701D02*
D03*
X43307Y76575D02*
D03*
Y65158D02*
D03*
X66929Y61221D02*
D03*
Y72638D02*
D03*
X78740Y68701D02*
D03*
Y57284D02*
D03*
X74803Y151378D02*
D03*
Y139961D02*
D03*
X283465Y222441D02*
D03*
Y234252D02*
D03*
Y253740D02*
D03*
Y242323D02*
D03*
Y84646D02*
D03*
Y72835D02*
D03*
Y53347D02*
D03*
Y64764D02*
D03*
X74803Y104134D02*
D03*
Y92716D02*
D03*
X110236Y208661D02*
D03*
Y196850D02*
D03*
D22*
X46654Y102362D02*
D03*
X63583D02*
D03*
X46654Y149606D02*
D03*
X63583D02*
D03*
D23*
X50591Y66929D02*
D03*
X59646Y70669D02*
D03*
Y63189D02*
D03*
D24*
X124016Y57992D02*
D03*
Y67992D02*
D03*
X88583D02*
D03*
Y57992D02*
D03*
D25*
X88563Y113425D02*
D03*
Y103425D02*
D03*
Y93425D02*
D03*
Y83425D02*
D03*
X124036Y113425D02*
D03*
Y103425D02*
D03*
Y93425D02*
D03*
Y83425D02*
D03*
X88563Y156732D02*
D03*
Y146732D02*
D03*
Y136732D02*
D03*
Y126732D02*
D03*
X124036Y156732D02*
D03*
Y146732D02*
D03*
Y136732D02*
D03*
Y126732D02*
D03*
D26*
X75000Y200787D02*
D03*
X58858D02*
D03*
X389567Y181102D02*
D03*
X405709D02*
D03*
X405709Y204724D02*
D03*
X389567D02*
D03*
X405709Y102362D02*
D03*
X389567D02*
D03*
X389567Y125984D02*
D03*
X405709D02*
D03*
D27*
X43307Y196260D02*
D03*
Y213189D02*
D03*
D28*
X112008Y245669D02*
D03*
Y238976D02*
D03*
Y232283D02*
D03*
Y225591D02*
D03*
Y218898D02*
D03*
D29*
X129921Y224213D02*
D03*
Y240354D02*
D03*
X267717Y252165D02*
D03*
Y236024D02*
D03*
Y54921D02*
D03*
Y71063D02*
D03*
D30*
X307087Y210630D02*
D03*
Y198819D02*
D03*
X295276Y210630D02*
D03*
Y198819D02*
D03*
X283465Y210630D02*
D03*
Y198819D02*
D03*
X271654Y210630D02*
D03*
Y198819D02*
D03*
X259842Y210630D02*
D03*
Y198819D02*
D03*
X248031Y210630D02*
D03*
Y198819D02*
D03*
X307087Y187008D02*
D03*
Y175197D02*
D03*
X295276Y187008D02*
D03*
Y175197D02*
D03*
X283465Y187008D02*
D03*
Y175197D02*
D03*
X271654Y187008D02*
D03*
Y175197D02*
D03*
X259842Y187008D02*
D03*
Y175197D02*
D03*
X248031Y187008D02*
D03*
Y175197D02*
D03*
X307087Y108268D02*
D03*
Y96457D02*
D03*
X295276Y108268D02*
D03*
Y96457D02*
D03*
X283465Y108268D02*
D03*
Y96457D02*
D03*
X271654Y108268D02*
D03*
Y96457D02*
D03*
X259842Y108268D02*
D03*
Y96457D02*
D03*
X248031Y108268D02*
D03*
Y96457D02*
D03*
X307087Y131890D02*
D03*
Y120079D02*
D03*
X295276Y131890D02*
D03*
Y120079D02*
D03*
X283465Y131890D02*
D03*
Y120079D02*
D03*
X271654Y131890D02*
D03*
Y120079D02*
D03*
X259842Y131890D02*
D03*
Y120079D02*
D03*
X248031Y131890D02*
D03*
Y120079D02*
D03*
D31*
X295276Y238976D02*
D03*
Y249213D02*
D03*
Y68110D02*
D03*
Y57874D02*
D03*
D32*
X284055Y267717D02*
D03*
X267126D02*
D03*
X311614D02*
D03*
X294685D02*
D03*
X339173D02*
D03*
X322244D02*
D03*
X366732D02*
D03*
X349803D02*
D03*
X394291D02*
D03*
X377362D02*
D03*
X421850D02*
D03*
X404921D02*
D03*
X449409D02*
D03*
X432480D02*
D03*
X460039D02*
D03*
X476968D02*
D03*
X460039Y39370D02*
D03*
X476968D02*
D03*
X449409D02*
D03*
X432480D02*
D03*
X421850D02*
D03*
X404921D02*
D03*
X394291D02*
D03*
X377362D02*
D03*
X366732D02*
D03*
X349803D02*
D03*
X339173D02*
D03*
X322244D02*
D03*
X311614D02*
D03*
X294685D02*
D03*
X284055D02*
D03*
X267126D02*
D03*
M02*
