G04*
G04 #@! TF.GenerationSoftware,Altium Limited,Altium Designer,22.5.1 (42)*
G04*
G04 Layer_Color=16711935*
%FSLAX25Y25*%
%MOIN*%
G70*
G04*
G04 #@! TF.SameCoordinates,AD146B9C-557F-4D5F-B811-4A91A8D423AC*
G04*
G04*
G04 #@! TF.FilePolarity,Negative*
G04*
G01*
G75*
%ADD10C,0.01181*%
%ADD16C,0.01000*%
%ADD51C,0.07493*%
%ADD52R,0.07099X0.07099*%
%ADD53C,0.07099*%
%ADD54C,0.15761*%
%ADD55C,0.09068*%
%ADD56R,0.06706X0.06706*%
%ADD57C,0.06706*%
%ADD58C,0.08674*%
%ADD59C,0.05918*%
%ADD74R,0.07110X0.15748*%
%ADD75R,0.04451X0.15748*%
%ADD76R,0.17029X0.15787*%
G36*
X167635Y283699D02*
X155824D01*
Y299447D01*
X167635D01*
Y283699D01*
D02*
G37*
%LPC*%
G36*
X164444Y297914D02*
X158049D01*
Y295655D01*
X162622D01*
X163005Y293505D01*
X162987D01*
X162969Y293523D01*
X162859Y293578D01*
X162695Y293632D01*
X162495Y293723D01*
X162240Y293796D01*
X161967Y293851D01*
X161657Y293906D01*
X161347Y293924D01*
X161183D01*
X161074Y293906D01*
X160946Y293887D01*
X160782Y293869D01*
X160600Y293833D01*
X160400Y293778D01*
X159981Y293632D01*
X159744Y293541D01*
X159525Y293432D01*
X159288Y293286D01*
X159051Y293122D01*
X158833Y292940D01*
X158614Y292740D01*
X158596Y292721D01*
X158560Y292685D01*
X158505Y292612D01*
X158432Y292521D01*
X158359Y292411D01*
X158250Y292266D01*
X158159Y292102D01*
X158049Y291920D01*
X157940Y291719D01*
X157849Y291482D01*
X157740Y291227D01*
X157667Y290972D01*
X157594Y290681D01*
X157539Y290371D01*
X157503Y290043D01*
X157484Y289697D01*
Y289551D01*
X157503Y289442D01*
Y289296D01*
X157539Y289132D01*
X157557Y288950D01*
X157594Y288768D01*
X157703Y288330D01*
X157867Y287857D01*
X157976Y287601D01*
X158086Y287365D01*
X158231Y287128D01*
X158396Y286891D01*
X158414Y286873D01*
X158450Y286818D01*
X158523Y286745D01*
X158614Y286636D01*
X158742Y286508D01*
X158906Y286363D01*
X159088Y286217D01*
X159288Y286071D01*
X159525Y285907D01*
X159780Y285761D01*
X160054Y285615D01*
X160363Y285488D01*
X160691Y285379D01*
X161037Y285306D01*
X161420Y285251D01*
X161821Y285233D01*
X161985D01*
X162112Y285251D01*
X162258Y285269D01*
X162440Y285287D01*
X162622Y285306D01*
X162841Y285342D01*
X163278Y285452D01*
X163770Y285634D01*
X164007Y285725D01*
X164244Y285852D01*
X164463Y285998D01*
X164681Y286162D01*
X164700Y286180D01*
X164736Y286198D01*
X164791Y286253D01*
X164864Y286326D01*
X164936Y286435D01*
X165046Y286545D01*
X165137Y286672D01*
X165246Y286818D01*
X165374Y287000D01*
X165483Y287182D01*
X165683Y287620D01*
X165866Y288112D01*
X165920Y288385D01*
X165975Y288676D01*
X163570Y288931D01*
Y288895D01*
X163552Y288804D01*
X163515Y288640D01*
X163461Y288458D01*
X163388Y288257D01*
X163278Y288039D01*
X163133Y287838D01*
X162969Y287638D01*
X162951Y287620D01*
X162878Y287565D01*
X162768Y287492D01*
X162622Y287401D01*
X162459Y287310D01*
X162258Y287237D01*
X162021Y287182D01*
X161784Y287164D01*
X161748D01*
X161657Y287182D01*
X161511Y287201D01*
X161329Y287237D01*
X161128Y287310D01*
X160910Y287419D01*
X160691Y287583D01*
X160491Y287784D01*
X160473Y287820D01*
X160400Y287893D01*
X160327Y288039D01*
X160217Y288257D01*
X160126Y288512D01*
X160035Y288822D01*
X159981Y289205D01*
X159962Y289642D01*
Y289660D01*
Y289697D01*
Y289751D01*
Y289843D01*
X159981Y290043D01*
X160035Y290298D01*
X160090Y290589D01*
X160181Y290881D01*
X160309Y291154D01*
X160491Y291391D01*
X160509Y291409D01*
X160582Y291482D01*
X160709Y291573D01*
X160855Y291701D01*
X161056Y291810D01*
X161293Y291901D01*
X161566Y291974D01*
X161857Y291992D01*
X161967D01*
X162039Y291974D01*
X162222Y291938D01*
X162477Y291883D01*
X162768Y291774D01*
X163078Y291610D01*
X163242Y291500D01*
X163406Y291373D01*
X163570Y291227D01*
X163734Y291063D01*
X165683Y291336D01*
X164444Y297914D01*
D02*
G37*
%LPD*%
D10*
X95639Y-18507D02*
Y-26378D01*
X91703D01*
X90391Y-25066D01*
Y-23754D01*
X91703Y-22442D01*
X95639D01*
X91703D01*
X90391Y-21130D01*
Y-19818D01*
X91703Y-18507D01*
X95639D01*
X86455Y-26378D02*
X83832D01*
X82520Y-25066D01*
Y-22442D01*
X83832Y-21130D01*
X86455D01*
X87767Y-22442D01*
Y-25066D01*
X86455Y-26378D01*
X78584Y-19818D02*
Y-21130D01*
X79896D01*
X77272D01*
X78584D01*
Y-25066D01*
X77272Y-26378D01*
X72024Y-19818D02*
Y-21130D01*
X73336D01*
X70713D01*
X72024D01*
Y-25066D01*
X70713Y-26378D01*
X65465D02*
X62841D01*
X61529Y-25066D01*
Y-22442D01*
X62841Y-21130D01*
X65465D01*
X66777Y-22442D01*
Y-25066D01*
X65465Y-26378D01*
X58905D02*
Y-21130D01*
X57593D01*
X56282Y-22442D01*
Y-26378D01*
Y-22442D01*
X54970Y-21130D01*
X53658Y-22442D01*
Y-26378D01*
X37915Y-19818D02*
X39227Y-18507D01*
X41850D01*
X43162Y-19818D01*
Y-21130D01*
X41850Y-22442D01*
X39227D01*
X37915Y-23754D01*
Y-25066D01*
X39227Y-26378D01*
X41850D01*
X43162Y-25066D01*
X33979Y-26378D02*
X31355D01*
X30043Y-25066D01*
Y-22442D01*
X31355Y-21130D01*
X33979D01*
X35291Y-22442D01*
Y-25066D01*
X33979Y-26378D01*
X27419D02*
X24795D01*
X26107D01*
Y-18507D01*
X27419D01*
X15612D02*
Y-26378D01*
X19548D01*
X20860Y-25066D01*
Y-22442D01*
X19548Y-21130D01*
X15612D01*
X9053Y-26378D02*
X11676D01*
X12988Y-25066D01*
Y-22442D01*
X11676Y-21130D01*
X9053D01*
X7741Y-22442D01*
Y-23754D01*
X12988D01*
X5117Y-21130D02*
Y-26378D01*
Y-23754D01*
X3805Y-22442D01*
X2493Y-21130D01*
X1181D01*
D16*
X139030Y299487D02*
X187463D01*
Y283737D02*
Y299487D01*
X139030Y283700D02*
X187463Y283737D01*
X139030Y283700D02*
Y299487D01*
D51*
X348701Y102362D02*
D03*
X438701D02*
D03*
X348701Y125984D02*
D03*
X438701D02*
D03*
X348701Y204724D02*
D03*
X438701D02*
D03*
X348701Y181102D02*
D03*
X438701D02*
D03*
D52*
X175197Y259842D02*
D03*
X96457Y185039D02*
D03*
D53*
X155512Y259842D02*
D03*
X116142Y185039D02*
D03*
D54*
X19685Y237717D02*
D03*
Y297716D02*
D03*
X19685Y215354D02*
D03*
Y115354D02*
D03*
Y91181D02*
D03*
Y11181D02*
D03*
X398819Y74803D02*
D03*
X498819D02*
D03*
Y232283D02*
D03*
X398819D02*
D03*
D55*
X19685Y257716D02*
D03*
Y277716D02*
D03*
X19685Y195354D02*
D03*
Y175354D02*
D03*
Y155354D02*
D03*
Y135354D02*
D03*
Y71181D02*
D03*
Y51181D02*
D03*
Y31181D02*
D03*
X418819Y74803D02*
D03*
X438819D02*
D03*
X458819D02*
D03*
X478819D02*
D03*
Y232283D02*
D03*
X458819D02*
D03*
X438819D02*
D03*
X418819D02*
D03*
D56*
X161417Y57992D02*
D03*
X185039D02*
D03*
D57*
X161417Y67992D02*
D03*
X185039D02*
D03*
D58*
X145158Y183543D02*
D03*
X155157D02*
D03*
X145158Y173543D02*
D03*
X155157D02*
D03*
Y163543D02*
D03*
X145158D02*
D03*
X335157Y98543D02*
D03*
X325157D02*
D03*
X335157Y108543D02*
D03*
X325157D02*
D03*
X335157Y118543D02*
D03*
X325157D02*
D03*
X335157Y128543D02*
D03*
X325157D02*
D03*
X335157Y178543D02*
D03*
X325157D02*
D03*
X335157Y188543D02*
D03*
X325157D02*
D03*
X335157Y198543D02*
D03*
X325157D02*
D03*
Y208543D02*
D03*
X335157D02*
D03*
D59*
X150000Y87000D02*
D03*
X165834Y145190D02*
D03*
X144000Y118000D02*
D03*
X118275Y98275D02*
D03*
X118000Y142000D02*
D03*
X134000Y127000D02*
D03*
Y84000D02*
D03*
X150000Y137000D02*
D03*
X291000Y193000D02*
D03*
X300000D02*
D03*
X309000D02*
D03*
X290000Y113000D02*
D03*
X278000D02*
D03*
X254000D02*
D03*
X266000D02*
D03*
X282000Y193000D02*
D03*
X290000Y229000D02*
D03*
X303000Y75000D02*
D03*
X312000Y82000D02*
D03*
D74*
X169596Y291868D02*
D03*
D75*
X185751Y291613D02*
D03*
D76*
X147545Y291594D02*
D03*
M02*
