G04*
G04 #@! TF.GenerationSoftware,Altium Limited,Altium Designer,22.5.1 (42)*
G04*
G04 Layer_Color=65535*
%FSLAX25Y25*%
%MOIN*%
G70*
G04*
G04 #@! TF.SameCoordinates,AD146B9C-557F-4D5F-B811-4A91A8D423AC*
G04*
G04*
G04 #@! TF.FilePolarity,Positive*
G04*
G01*
G75*
%ADD10C,0.01181*%
%ADD11C,0.00600*%
%ADD12C,0.00787*%
%ADD13C,0.00984*%
%ADD14C,0.02362*%
%ADD15C,0.01378*%
%ADD16C,0.01000*%
G36*
X490438Y110642D02*
X485517Y112610D01*
X488469Y115563D01*
X490438Y110642D01*
D02*
G37*
G36*
X102430Y285273D02*
X100006D01*
Y294401D01*
X99988Y294383D01*
X99952Y294346D01*
X99879Y294291D01*
X99770Y294200D01*
X99642Y294091D01*
X99496Y293982D01*
X99314Y293854D01*
X99114Y293708D01*
X98895Y293563D01*
X98658Y293417D01*
X98403Y293253D01*
X98130Y293107D01*
X97547Y292834D01*
X96891Y292579D01*
Y294765D01*
X96909D01*
X96927Y294783D01*
X96982Y294802D01*
X97055Y294820D01*
X97237Y294911D01*
X97492Y295020D01*
X97802Y295166D01*
X98148Y295366D01*
X98531Y295621D01*
X98932Y295913D01*
X98950Y295931D01*
X98986Y295949D01*
X99041Y296004D01*
X99114Y296077D01*
X99314Y296259D01*
X99533Y296496D01*
X99788Y296788D01*
X100043Y297152D01*
X100280Y297535D01*
X100462Y297954D01*
X102430D01*
Y285273D01*
D02*
G37*
G36*
X508154Y100799D02*
X496654D01*
Y130389D01*
X508154D01*
Y100799D01*
D02*
G37*
G36*
X508249Y173634D02*
X499078D01*
Y207555D01*
X508249D01*
Y173634D01*
D02*
G37*
G36*
X490367Y192690D02*
X490585Y192635D01*
X490804Y192553D01*
X491078Y192444D01*
X491324Y192307D01*
X491570Y192088D01*
X491597Y192061D01*
X491652Y191979D01*
X491761Y191842D01*
X491870Y191678D01*
X491980Y191432D01*
X492089Y191186D01*
X492144Y190913D01*
X492171Y190585D01*
Y190448D01*
X492144Y190284D01*
X492089Y190065D01*
X492034Y189847D01*
X491925Y189573D01*
X491761Y189327D01*
X491570Y189081D01*
X491542Y189054D01*
X491460Y188999D01*
X491324Y188890D01*
X491132Y188780D01*
X490913Y188671D01*
X490667Y188562D01*
X490394Y188507D01*
X490066Y188480D01*
X490039D01*
X489929D01*
X489765Y188507D01*
X489546Y188562D01*
X489300Y188616D01*
X489054Y188726D01*
X488808Y188890D01*
X488562Y189081D01*
X488535Y189108D01*
X488453Y189190D01*
X488371Y189327D01*
X488234Y189491D01*
X488125Y189710D01*
X488043Y189983D01*
X487961Y190257D01*
X487933Y190585D01*
Y190721D01*
X487961Y190885D01*
X488015Y191104D01*
X488097Y191350D01*
X488207Y191596D01*
X488343Y191842D01*
X488562Y192088D01*
X488590Y192116D01*
X488672Y192198D01*
X488808Y192280D01*
X488972Y192417D01*
X489218Y192526D01*
X489465Y192608D01*
X489738Y192690D01*
X490066Y192717D01*
X490093D01*
X490203D01*
X490367Y192690D01*
D02*
G37*
G36*
X476259Y192717D02*
X476423D01*
X476587Y192690D01*
X476779Y192663D01*
X477025Y192635D01*
X477298Y192581D01*
X477599Y192526D01*
X477927Y192471D01*
X478310Y192389D01*
X478720Y192307D01*
X479157Y192198D01*
X479649Y192088D01*
X482493Y191378D01*
X482520D01*
X482547Y191350D01*
X482657D01*
X482766Y191323D01*
X482903Y191296D01*
X483067Y191268D01*
X483504Y191186D01*
X484024Y191104D01*
X484625Y191022D01*
X485336Y190940D01*
X486074Y190858D01*
Y190284D01*
X486047D01*
X485992D01*
X485910D01*
X485801Y190257D01*
X485664D01*
X485500Y190229D01*
X485063Y190175D01*
X484543Y190093D01*
X483942Y189983D01*
X483258Y189847D01*
X482493Y189682D01*
X479649Y188999D01*
X479622D01*
X479540Y188972D01*
X479403Y188944D01*
X479239Y188917D01*
X479021Y188862D01*
X478774Y188808D01*
X478228Y188698D01*
X477626Y188589D01*
X477025Y188480D01*
X476451Y188425D01*
X476205Y188398D01*
X475986D01*
X475931D01*
X475822D01*
X475630Y188425D01*
X475412Y188480D01*
X475138Y188534D01*
X474865Y188644D01*
X474619Y188780D01*
X474373Y188972D01*
X474345Y188999D01*
X474263Y189081D01*
X474181Y189218D01*
X474045Y189409D01*
X473935Y189628D01*
X473853Y189901D01*
X473771Y190202D01*
X473744Y190557D01*
Y190721D01*
X473771Y190885D01*
X473826Y191104D01*
X473908Y191350D01*
X474017Y191596D01*
X474154Y191870D01*
X474373Y192116D01*
X474400Y192143D01*
X474482Y192225D01*
X474619Y192307D01*
X474810Y192444D01*
X475029Y192553D01*
X475302Y192635D01*
X475603Y192717D01*
X475958Y192745D01*
X476013D01*
X476068D01*
X476150D01*
X476259Y192717D01*
D02*
G37*
%LPC*%
G36*
X506186Y128366D02*
X504732D01*
Y126912D01*
X506186D01*
Y128366D01*
D02*
G37*
G36*
X500404Y128420D02*
X498622D01*
Y126846D01*
X506186D01*
X500404D01*
X504229Y127218D01*
Y128049D01*
X500404Y128420D01*
D02*
G37*
G36*
X506186Y122955D02*
X498622D01*
Y115905D01*
X506186Y118616D01*
Y120266D01*
X498622Y122955D01*
X506186D01*
D02*
G37*
G36*
Y115097D02*
X498622D01*
Y109052D01*
X506186D01*
Y110582D01*
X502874D01*
Y113566D01*
X506186D01*
Y115097D01*
D02*
G37*
G36*
Y104341D02*
Y104287D01*
X504732D01*
Y102833D01*
X506186D01*
Y102768D01*
X500404D01*
X504229Y103139D01*
Y103970D01*
X500404Y104341D01*
X498622D01*
Y102768D01*
X506186D01*
Y104341D01*
D02*
G37*
%LPD*%
G36*
X504218Y119480D02*
X498622Y117556D01*
Y121327D01*
X504218Y119480D01*
D02*
G37*
G36*
X501595Y110582D02*
X498622D01*
Y113566D01*
X501595D01*
Y110582D01*
D02*
G37*
%LPC*%
G36*
X506186Y205586D02*
X505202Y204966D01*
X505100Y204901D01*
X504997Y204835D01*
X504910Y204777D01*
X504830Y204718D01*
X504757Y204667D01*
X504684Y204624D01*
X504575Y204536D01*
X504487Y204471D01*
X504429Y204427D01*
X504392Y204391D01*
X504385Y204383D01*
X504298Y204303D01*
X504217Y204208D01*
X504152Y204121D01*
X504086Y204033D01*
X504035Y203960D01*
X503999Y203902D01*
X503970Y203858D01*
X503962Y203851D01*
Y203844D01*
X503940Y203968D01*
X503911Y204077D01*
X503882Y204179D01*
X503846Y204281D01*
X503809Y204369D01*
X503773Y204449D01*
X503736Y204529D01*
X503693Y204595D01*
X503656Y204653D01*
X503620Y204704D01*
X503583Y204748D01*
X503554Y204777D01*
X503532Y204806D01*
X503510Y204828D01*
X503503Y204835D01*
X503496Y204842D01*
X503423Y204901D01*
X503350Y204952D01*
X503190Y205039D01*
X503036Y205098D01*
X502883Y205134D01*
X502752Y205163D01*
X502701Y205170D01*
X502650D01*
X502614Y205178D01*
X502577D01*
X502563D01*
X502555D01*
X502395Y205170D01*
X502242Y205141D01*
X502111Y205105D01*
X501994Y205068D01*
X501899Y205025D01*
X501826Y204988D01*
X501804Y204974D01*
X501783Y204959D01*
X501775Y204952D01*
X501768D01*
X501644Y204864D01*
X501542Y204770D01*
X501462Y204675D01*
X501389Y204580D01*
X501345Y204492D01*
X501309Y204427D01*
X501287Y204383D01*
X501280Y204376D01*
Y204369D01*
X501258Y204296D01*
X501236Y204216D01*
X501199Y204033D01*
X501178Y203836D01*
X501156Y203647D01*
Y203552D01*
X501148Y203472D01*
Y203392D01*
X501141Y203326D01*
Y205586D01*
Y201052D01*
X506186D01*
Y205586D01*
D02*
G37*
G36*
Y200184D02*
X505333D01*
Y197370D01*
X503962D01*
Y199900D01*
X503109D01*
Y197370D01*
X501994D01*
Y200089D01*
X501141D01*
Y200184D01*
D01*
D01*
Y196350D01*
X506186D01*
Y200184D01*
D02*
G37*
G36*
X506281Y195402D02*
X503481D01*
Y193208D01*
X504334D01*
Y194374D01*
X504983D01*
X505049Y194287D01*
X505107Y194192D01*
X505158Y194097D01*
X505202Y194009D01*
X505238Y193937D01*
X505267Y193871D01*
X505282Y193834D01*
X505289Y193827D01*
Y193820D01*
X505333Y193703D01*
X505362Y193587D01*
X505384Y193477D01*
X505399Y193383D01*
X505406Y193295D01*
X505413Y193237D01*
Y193178D01*
X505406Y193062D01*
X505391Y192945D01*
X505369Y192843D01*
X505340Y192741D01*
X505267Y192559D01*
X505231Y192486D01*
X505187Y192413D01*
X505143Y192347D01*
X505107Y192289D01*
X505063Y192245D01*
X505034Y192202D01*
X505005Y192172D01*
X504983Y192151D01*
X504968Y192136D01*
X504961Y192129D01*
X504874Y192063D01*
X504772Y191998D01*
X504670Y191946D01*
X504560Y191903D01*
X504334Y191830D01*
X504115Y191786D01*
X504013Y191771D01*
X503911Y191757D01*
X503831Y191750D01*
X503751Y191742D01*
X503693Y191735D01*
X503642D01*
X503612D01*
X503605D01*
X503452Y191742D01*
X503313Y191750D01*
X503175Y191771D01*
X503051Y191793D01*
X502942Y191823D01*
X502840Y191859D01*
X502745Y191895D01*
X502657Y191932D01*
X502585Y191961D01*
X502519Y191998D01*
X502468Y192034D01*
X502424Y192063D01*
X502388Y192085D01*
X502366Y192107D01*
X502351Y192114D01*
X502344Y192121D01*
X502271Y192202D01*
X502198Y192282D01*
X502147Y192369D01*
X502096Y192457D01*
X502052Y192544D01*
X502016Y192632D01*
X501965Y192799D01*
X501950Y192880D01*
X501936Y192953D01*
X501928Y193018D01*
X501921Y193076D01*
X501914Y193120D01*
Y193186D01*
X501921Y193346D01*
X501950Y193485D01*
X501979Y193609D01*
X502023Y193718D01*
X502060Y193798D01*
X502096Y193864D01*
X502125Y193900D01*
X502133Y193915D01*
X502220Y194017D01*
X502315Y194104D01*
X502410Y194177D01*
X502504Y194228D01*
X502592Y194272D01*
X502657Y194301D01*
X502701Y194316D01*
X502708Y194323D01*
X502716D01*
X502526Y195336D01*
X502402Y195307D01*
X502278Y195263D01*
X502169Y195220D01*
X502067Y195161D01*
X501965Y195110D01*
X501877Y195052D01*
X501797Y194994D01*
X501724Y194935D01*
X501659Y194877D01*
X501600Y194826D01*
X501549Y194782D01*
X501513Y194738D01*
X501484Y194702D01*
X501455Y194673D01*
X501447Y194658D01*
X501440Y194651D01*
X501367Y194549D01*
X501309Y194440D01*
X501258Y194323D01*
X501214Y194199D01*
X501141Y193958D01*
X501097Y193725D01*
X501076Y193616D01*
X501068Y193514D01*
X501061Y193419D01*
X501054Y193339D01*
X501046Y193273D01*
Y195402D01*
Y190685D01*
X503499D01*
X501046D01*
Y193186D01*
X501054Y192923D01*
X501083Y192690D01*
X501105Y192588D01*
X501126Y192486D01*
X501148Y192391D01*
X501170Y192311D01*
X501199Y192238D01*
X501221Y192165D01*
X501243Y192114D01*
X501258Y192063D01*
X501280Y192027D01*
X501287Y191998D01*
X501301Y191983D01*
Y191976D01*
X501433Y191750D01*
X501513Y191655D01*
X501586Y191560D01*
X501666Y191473D01*
X501746Y191392D01*
X501826Y191320D01*
X501899Y191254D01*
X501972Y191203D01*
X502038Y191152D01*
X502096Y191108D01*
X502147Y191072D01*
X502191Y191050D01*
X502220Y191028D01*
X502242Y191021D01*
X502249Y191013D01*
X502366Y190955D01*
X502483Y190904D01*
X502723Y190824D01*
X502964Y190766D01*
X503175Y190729D01*
X503277Y190714D01*
X503365Y190700D01*
X503445Y190693D01*
X503518D01*
X503569Y190685D01*
X506281D01*
X503649D01*
X503919Y190700D01*
X504166Y190729D01*
X504392Y190780D01*
X504502Y190802D01*
X504597Y190831D01*
X504684Y190860D01*
X504764Y190882D01*
X504830Y190911D01*
X504888Y190933D01*
X504932Y190948D01*
X504968Y190962D01*
X504990Y190977D01*
X504997D01*
X505216Y191101D01*
X505406Y191239D01*
X505573Y191385D01*
X505705Y191531D01*
X505763Y191596D01*
X505814Y191662D01*
X505858Y191713D01*
X505887Y191764D01*
X505916Y191801D01*
X505938Y191837D01*
X505945Y191852D01*
X505953Y191859D01*
X506011Y191976D01*
X506062Y192085D01*
X506142Y192325D01*
X506200Y192559D01*
X506237Y192770D01*
X506251Y192872D01*
X506266Y192960D01*
X506273Y193040D01*
Y193113D01*
X506281Y193164D01*
Y193244D01*
X506273Y193477D01*
X506244Y193696D01*
X506208Y193907D01*
X506164Y194090D01*
X506142Y194170D01*
X506120Y194243D01*
X506098Y194308D01*
X506084Y194367D01*
X506069Y194411D01*
X506055Y194440D01*
X506047Y194462D01*
Y194469D01*
X505960Y194687D01*
X505865Y194870D01*
X505770Y195030D01*
X505690Y195169D01*
X505617Y195271D01*
X505588Y195307D01*
X505559Y195344D01*
X505537Y195366D01*
X505522Y195387D01*
X505508Y195402D01*
X506281D01*
D02*
G37*
G36*
X503569Y190685D02*
X503499D01*
X503569D01*
D01*
D02*
G37*
G36*
X506186Y189789D02*
X501141D01*
Y188848D01*
X504538D01*
X501141Y186763D01*
Y185779D01*
X506186D01*
Y189789D01*
D02*
G37*
G36*
Y185232D02*
X501141Y183206D01*
Y185232D01*
Y180173D01*
Y182127D01*
X506186Y180173D01*
Y181252D01*
X505041Y181667D01*
Y183694D01*
X506186Y184132D01*
Y185232D01*
D02*
G37*
G36*
Y179823D02*
X501141D01*
X503715D01*
X503459Y179816D01*
X503233Y179794D01*
X503124Y179787D01*
X503029Y179772D01*
X502934Y179758D01*
X502854Y179743D01*
X502781Y179721D01*
X502716Y179707D01*
X502657Y179692D01*
X502614Y179685D01*
X502577Y179670D01*
X502548Y179663D01*
X502533Y179656D01*
X502526D01*
X502351Y179590D01*
X502191Y179510D01*
X502052Y179429D01*
X501936Y179349D01*
X501841Y179284D01*
X501768Y179225D01*
X501724Y179189D01*
X501710Y179182D01*
Y179174D01*
X501593Y179050D01*
X501498Y178927D01*
X501418Y178795D01*
X501353Y178679D01*
X501301Y178577D01*
X501265Y178489D01*
X501258Y178460D01*
X501251Y178438D01*
X501243Y178424D01*
Y178416D01*
X501207Y178278D01*
X501185Y178125D01*
X501163Y177964D01*
X501156Y177811D01*
X501148Y177673D01*
X501141Y177614D01*
Y175602D01*
X506186D01*
Y177614D01*
Y177512D01*
X506179Y177709D01*
X506171Y177891D01*
X506157Y178044D01*
X506135Y178168D01*
X506113Y178270D01*
X506098Y178351D01*
X506091Y178373D01*
Y178394D01*
X506084Y178402D01*
Y178409D01*
X506025Y178569D01*
X505960Y178715D01*
X505894Y178832D01*
X505829Y178934D01*
X505770Y179014D01*
X505726Y179072D01*
X505697Y179109D01*
X505683Y179123D01*
X505544Y179247D01*
X505399Y179357D01*
X505245Y179451D01*
X505107Y179524D01*
X504976Y179583D01*
X504925Y179612D01*
X504881Y179626D01*
X504837Y179641D01*
X504808Y179656D01*
X504793Y179663D01*
X504786D01*
X504611Y179714D01*
X504429Y179758D01*
X504254Y179787D01*
X504086Y179801D01*
X504006Y179809D01*
X503933Y179816D01*
X503875D01*
X503817Y179823D01*
X506186D01*
D02*
G37*
%LPD*%
G36*
Y202072D02*
X504079D01*
Y202400D01*
X504086Y202502D01*
X504094Y202590D01*
X504108Y202663D01*
X504115Y202721D01*
X504130Y202758D01*
X504137Y202779D01*
Y202787D01*
X504166Y202845D01*
X504196Y202903D01*
X504232Y202954D01*
X504261Y203005D01*
X504298Y203042D01*
X504327Y203071D01*
X504341Y203086D01*
X504349Y203093D01*
X504385Y203122D01*
X504422Y203158D01*
X504531Y203239D01*
X504648Y203326D01*
X504779Y203421D01*
X504895Y203501D01*
X504954Y203538D01*
X504997Y203567D01*
X505034Y203596D01*
X505063Y203618D01*
X505085Y203625D01*
X505092Y203632D01*
X506186Y204361D01*
Y202072D01*
D02*
G37*
G36*
X502708Y204121D02*
X502781Y204113D01*
X502847Y204092D01*
X502905Y204077D01*
X502949Y204055D01*
X502978Y204033D01*
X503000Y204026D01*
X503007Y204019D01*
X503058Y203975D01*
X503102Y203931D01*
X503168Y203836D01*
X503190Y203800D01*
X503204Y203764D01*
X503219Y203742D01*
Y203734D01*
X503226Y203698D01*
X503241Y203640D01*
X503248Y203581D01*
X503255Y203516D01*
X503263Y203363D01*
X503270Y203209D01*
X503277Y203064D01*
Y202072D01*
X501994D01*
Y203239D01*
X502001Y203304D01*
Y203465D01*
X502009Y203530D01*
Y203574D01*
X502016Y203596D01*
Y203603D01*
X502038Y203691D01*
X502067Y203771D01*
X502096Y203836D01*
X502133Y203888D01*
X502169Y203931D01*
X502191Y203968D01*
X502213Y203982D01*
X502220Y203990D01*
X502278Y204033D01*
X502351Y204070D01*
X502417Y204092D01*
X502483Y204113D01*
X502541Y204121D01*
X502585Y204128D01*
X502614D01*
X502628D01*
X502708Y204121D01*
D02*
G37*
G36*
X506186Y186720D02*
X502861D01*
X506186Y188768D01*
Y186720D01*
D02*
G37*
G36*
X504188Y181974D02*
X502315Y182659D01*
X504188Y183366D01*
Y181974D01*
D02*
G37*
G36*
X503875Y178766D02*
X504064Y178759D01*
X504217Y178737D01*
X504349Y178722D01*
X504458Y178700D01*
X504502Y178693D01*
X504531Y178679D01*
X504560Y178671D01*
X504582D01*
X504589Y178664D01*
X504597D01*
X504713Y178620D01*
X504815Y178584D01*
X504895Y178533D01*
X504961Y178496D01*
X505012Y178460D01*
X505049Y178431D01*
X505070Y178409D01*
X505078Y178402D01*
X505129Y178336D01*
X505172Y178270D01*
X505209Y178205D01*
X505238Y178139D01*
X505260Y178081D01*
X505274Y178037D01*
X505289Y178008D01*
Y177993D01*
X505304Y177913D01*
X505311Y177818D01*
X505326Y177716D01*
Y177614D01*
X505333Y177520D01*
Y176623D01*
X501994D01*
Y177286D01*
X502001Y177381D01*
Y177469D01*
X502009Y177541D01*
Y177607D01*
X502016Y177673D01*
Y177724D01*
X502031Y177804D01*
X502038Y177862D01*
X502045Y177899D01*
Y177906D01*
X502074Y178008D01*
X502111Y178095D01*
X502147Y178176D01*
X502191Y178249D01*
X502227Y178300D01*
X502256Y178343D01*
X502278Y178365D01*
X502286Y178373D01*
X502358Y178438D01*
X502439Y178496D01*
X502519Y178547D01*
X502592Y178591D01*
X502665Y178620D01*
X502723Y178642D01*
X502760Y178657D01*
X502767Y178664D01*
X502774D01*
X502905Y178700D01*
X503044Y178730D01*
X503197Y178744D01*
X503343Y178759D01*
X503467Y178766D01*
X503525Y178773D01*
X503576D01*
X503612D01*
X503642D01*
X503663D01*
X503671D01*
X503875Y178766D01*
D02*
G37*
D10*
X84646Y287402D02*
X84617Y288404D01*
X84532Y289403D01*
X84391Y290396D01*
X84193Y291379D01*
X83941Y292349D01*
X83634Y293304D01*
X83273Y294239D01*
X82860Y295153D01*
X82396Y296042D01*
X81882Y296903D01*
X81321Y297734D01*
X80713Y298532D01*
X80062Y299293D01*
X79368Y300017D01*
X78634Y300701D01*
X77863Y301342D01*
X77057Y301938D01*
X76218Y302488D01*
X75350Y302989D01*
X74454Y303440D01*
X73535Y303840D01*
X72594Y304188D01*
X71636Y304482D01*
X70662Y304720D01*
X69676Y304904D01*
X68681Y305031D01*
X67681Y305102D01*
X66678Y305116D01*
X65677Y305074D01*
X64679Y304975D01*
X63688Y304819D01*
X62708Y304608D01*
X61741Y304342D01*
X60791Y304021D01*
X59861Y303647D01*
X58953Y303221D01*
X58071Y302745D01*
X57217Y302219D01*
X56394Y301646D01*
X55605Y301027D01*
X54853Y300364D01*
X54139Y299660D01*
X53465Y298917D01*
X52836Y298137D01*
X52251Y297322D01*
X51713Y296476D01*
X51224Y295601D01*
X50785Y294699D01*
X50398Y293774D01*
X50064Y292829D01*
X49784Y291866D01*
X49559Y290889D01*
X49390Y289900D01*
X49276Y288904D01*
X49220Y287903D01*
X49220Y286900D01*
X49276Y285899D01*
X49390Y284903D01*
X49559Y283914D01*
X49784Y282937D01*
X50064Y281975D01*
X50398Y281029D01*
X50785Y280104D01*
X51224Y279203D01*
X51713Y278327D01*
X52251Y277481D01*
X52836Y276666D01*
X53465Y275886D01*
X54138Y275143D01*
X54853Y274439D01*
X55605Y273776D01*
X56394Y273158D01*
X57217Y272584D01*
X58071Y272059D01*
X58953Y271582D01*
X59861Y271156D01*
X60791Y270782D01*
X61741Y270462D01*
X62708Y270195D01*
X63688Y269984D01*
X64679Y269829D01*
X65677Y269729D01*
X66678Y269687D01*
X67681Y269701D01*
X68681Y269772D01*
X69676Y269899D01*
X70662Y270083D01*
X71636Y270322D01*
X72594Y270615D01*
X73535Y270963D01*
X74454Y271363D01*
X75350Y271814D01*
X76218Y272315D01*
X77057Y272865D01*
X77863Y273461D01*
X78634Y274102D01*
X79368Y274786D01*
X80062Y275510D01*
X80713Y276272D01*
X81321Y277069D01*
X81882Y277900D01*
X82396Y278761D01*
X82860Y279650D01*
X83273Y280564D01*
X83634Y281500D01*
X83941Y282454D01*
X84193Y283424D01*
X84391Y284407D01*
X84532Y285400D01*
X84617Y286399D01*
X84646Y287402D01*
X230315D02*
X230287Y288404D01*
X230202Y289403D01*
X230060Y290396D01*
X229863Y291379D01*
X229610Y292349D01*
X229303Y293304D01*
X228942Y294239D01*
X228529Y295153D01*
X228065Y296042D01*
X227552Y296903D01*
X226990Y297734D01*
X226382Y298532D01*
X225731Y299293D01*
X225037Y300017D01*
X224303Y300701D01*
X223532Y301342D01*
X222726Y301938D01*
X221887Y302488D01*
X221019Y302989D01*
X220124Y303440D01*
X219204Y303840D01*
X218264Y304188D01*
X217305Y304482D01*
X216331Y304720D01*
X215345Y304904D01*
X214351Y305031D01*
X213350Y305102D01*
X212348Y305116D01*
X211346Y305074D01*
X210348Y304975D01*
X209358Y304819D01*
X208377Y304608D01*
X207411Y304342D01*
X206461Y304021D01*
X205530Y303647D01*
X204622Y303221D01*
X203740Y302745D01*
X202886Y302219D01*
X202064Y301646D01*
X201275Y301027D01*
X200522Y300364D01*
X199808Y299660D01*
X199135Y298917D01*
X198505Y298137D01*
X197920Y297322D01*
X197382Y296476D01*
X196893Y295601D01*
X196455Y294699D01*
X196068Y293774D01*
X195734Y292829D01*
X195454Y291866D01*
X195228Y290889D01*
X195059Y289900D01*
X194946Y288904D01*
X194889Y287903D01*
X194889Y286900D01*
X194946Y285899D01*
X195059Y284903D01*
X195228Y283914D01*
X195454Y282937D01*
X195734Y281975D01*
X196068Y281029D01*
X196455Y280104D01*
X196893Y279203D01*
X197382Y278327D01*
X197920Y277481D01*
X198505Y276666D01*
X199135Y275886D01*
X199808Y275143D01*
X200522Y274439D01*
X201275Y273776D01*
X202064Y273158D01*
X202886Y272584D01*
X203740Y272059D01*
X204622Y271582D01*
X205530Y271156D01*
X206460Y270782D01*
X207411Y270462D01*
X208377Y270195D01*
X209358Y269984D01*
X210348Y269829D01*
X211346Y269729D01*
X212348Y269687D01*
X213350Y269701D01*
X214351Y269772D01*
X215345Y269899D01*
X216331Y270083D01*
X217305Y270322D01*
X218264Y270615D01*
X219204Y270963D01*
X220124Y271363D01*
X221019Y271814D01*
X221887Y272315D01*
X222726Y272865D01*
X223532Y273461D01*
X224303Y274102D01*
X225037Y274786D01*
X225731Y275510D01*
X226382Y276272D01*
X226990Y277069D01*
X227552Y277900D01*
X228065Y278761D01*
X228529Y279650D01*
X228942Y280564D01*
X229303Y281500D01*
X229610Y282454D01*
X229863Y283424D01*
X230060Y284407D01*
X230202Y285400D01*
X230287Y286399D01*
X230315Y287402D01*
X529528D02*
X529499Y288404D01*
X529414Y289403D01*
X529273Y290396D01*
X529075Y291379D01*
X528823Y292349D01*
X528515Y293304D01*
X528155Y294239D01*
X527742Y295153D01*
X527278Y296042D01*
X526764Y296903D01*
X526203Y297734D01*
X525595Y298532D01*
X524943Y299293D01*
X524250Y300017D01*
X523516Y300701D01*
X522745Y301342D01*
X521939Y301938D01*
X521100Y302488D01*
X520231Y302989D01*
X519336Y303440D01*
X518417Y303840D01*
X517476Y304188D01*
X516517Y304482D01*
X515544Y304720D01*
X514558Y304904D01*
X513563Y305031D01*
X512563Y305102D01*
X511560Y305116D01*
X510559Y305074D01*
X509561Y304975D01*
X508570Y304819D01*
X507590Y304608D01*
X506623Y304342D01*
X505673Y304021D01*
X504743Y303647D01*
X503835Y303221D01*
X502953Y302745D01*
X502099Y302219D01*
X501276Y301646D01*
X500487Y301027D01*
X499734Y300364D01*
X499020Y299660D01*
X498347Y298917D01*
X497718Y298137D01*
X497133Y297322D01*
X496595Y296476D01*
X496106Y295601D01*
X495667Y294699D01*
X495280Y293774D01*
X494946Y292829D01*
X494666Y291866D01*
X494441Y290889D01*
X494272Y289900D01*
X494158Y288904D01*
X494102Y287903D01*
X494102Y286900D01*
X494158Y285899D01*
X494272Y284903D01*
X494441Y283914D01*
X494666Y282937D01*
X494946Y281975D01*
X495280Y281029D01*
X495667Y280104D01*
X496106Y279203D01*
X496595Y278327D01*
X497133Y277481D01*
X497718Y276666D01*
X498347Y275886D01*
X499020Y275143D01*
X499734Y274439D01*
X500487Y273776D01*
X501276Y273158D01*
X502099Y272584D01*
X502953Y272059D01*
X503835Y271582D01*
X504743Y271156D01*
X505673Y270782D01*
X506623Y270462D01*
X507590Y270195D01*
X508570Y269984D01*
X509561Y269829D01*
X510559Y269729D01*
X511560Y269687D01*
X512563Y269701D01*
X513563Y269772D01*
X514558Y269899D01*
X515544Y270083D01*
X516517Y270322D01*
X517476Y270615D01*
X518417Y270963D01*
X519336Y271363D01*
X520232Y271814D01*
X521100Y272315D01*
X521939Y272865D01*
X522745Y273461D01*
X523516Y274102D01*
X524250Y274786D01*
X524943Y275510D01*
X525595Y276272D01*
X526203Y277069D01*
X526764Y277900D01*
X527278Y278761D01*
X527742Y279650D01*
X528155Y280564D01*
X528516Y281500D01*
X528823Y282454D01*
X529075Y283424D01*
X529273Y284407D01*
X529414Y285400D01*
X529499Y286399D01*
X529528Y287402D01*
Y19685D02*
X529499Y20687D01*
X529414Y21687D01*
X529273Y22679D01*
X529075Y23662D01*
X528823Y24633D01*
X528515Y25587D01*
X528155Y26523D01*
X527742Y27436D01*
X527278Y28325D01*
X526764Y29186D01*
X526203Y30017D01*
X525595Y30815D01*
X524943Y31577D01*
X524250Y32301D01*
X523516Y32984D01*
X522745Y33625D01*
X521939Y34222D01*
X521100Y34771D01*
X520231Y35273D01*
X519336Y35724D01*
X518417Y36124D01*
X517476Y36471D01*
X516517Y36765D01*
X515544Y37004D01*
X514558Y37187D01*
X513563Y37315D01*
X512563Y37386D01*
X511560Y37400D01*
X510559Y37357D01*
X509561Y37258D01*
X508570Y37103D01*
X507590Y36891D01*
X506623Y36625D01*
X505673Y36304D01*
X504743Y35930D01*
X503835Y35505D01*
X502953Y35028D01*
X502099Y34502D01*
X501276Y33929D01*
X500487Y33310D01*
X499734Y32648D01*
X499020Y31944D01*
X498347Y31201D01*
X497718Y30420D01*
X497133Y29606D01*
X496595Y28760D01*
X496106Y27884D01*
X495667Y26983D01*
X495280Y26057D01*
X494946Y25112D01*
X494666Y24149D01*
X494441Y23172D01*
X494272Y22184D01*
X494158Y21188D01*
X494102Y20186D01*
X494102Y19184D01*
X494158Y18183D01*
X494272Y17186D01*
X494441Y16198D01*
X494666Y15221D01*
X494946Y14258D01*
X495280Y13313D01*
X495667Y12388D01*
X496106Y11486D01*
X496595Y10611D01*
X497133Y9764D01*
X497718Y8950D01*
X498347Y8170D01*
X499020Y7426D01*
X499734Y6722D01*
X500487Y6060D01*
X501276Y5441D01*
X502099Y4868D01*
X502953Y4342D01*
X503835Y3866D01*
X504743Y3440D01*
X505673Y3066D01*
X506623Y2745D01*
X507590Y2479D01*
X508570Y2268D01*
X509561Y2112D01*
X510559Y2013D01*
X511560Y1970D01*
X512563Y1984D01*
X513563Y2055D01*
X514558Y2183D01*
X515544Y2366D01*
X516517Y2605D01*
X517476Y2899D01*
X518417Y3246D01*
X519336Y3646D01*
X520232Y4098D01*
X521100Y4599D01*
X521939Y5149D01*
X522745Y5745D01*
X523516Y6386D01*
X524250Y7069D01*
X524943Y7793D01*
X525595Y8555D01*
X526203Y9353D01*
X526764Y10184D01*
X527278Y11045D01*
X527742Y11934D01*
X528155Y12847D01*
X528516Y13783D01*
X528823Y14738D01*
X529075Y15708D01*
X529273Y16691D01*
X529414Y17684D01*
X529499Y18683D01*
X529528Y19685D01*
X230315D02*
X230287Y20687D01*
X230202Y21687D01*
X230060Y22679D01*
X229863Y23662D01*
X229610Y24633D01*
X229303Y25587D01*
X228942Y26523D01*
X228529Y27436D01*
X228065Y28325D01*
X227552Y29186D01*
X226990Y30017D01*
X226382Y30815D01*
X225731Y31577D01*
X225037Y32301D01*
X224303Y32984D01*
X223532Y33625D01*
X222726Y34222D01*
X221887Y34771D01*
X221019Y35273D01*
X220124Y35724D01*
X219204Y36124D01*
X218264Y36471D01*
X217305Y36765D01*
X216331Y37004D01*
X215345Y37187D01*
X214351Y37315D01*
X213350Y37386D01*
X212348Y37400D01*
X211346Y37357D01*
X210348Y37258D01*
X209358Y37103D01*
X208377Y36891D01*
X207411Y36625D01*
X206461Y36304D01*
X205530Y35930D01*
X204622Y35505D01*
X203740Y35028D01*
X202886Y34502D01*
X202064Y33929D01*
X201275Y33310D01*
X200522Y32648D01*
X199808Y31944D01*
X199135Y31201D01*
X198505Y30420D01*
X197920Y29606D01*
X197382Y28760D01*
X196893Y27884D01*
X196455Y26983D01*
X196068Y26057D01*
X195734Y25112D01*
X195454Y24149D01*
X195228Y23172D01*
X195059Y22184D01*
X194946Y21188D01*
X194889Y20186D01*
X194889Y19184D01*
X194946Y18183D01*
X195059Y17186D01*
X195228Y16198D01*
X195454Y15221D01*
X195734Y14258D01*
X196068Y13313D01*
X196455Y12388D01*
X196893Y11486D01*
X197382Y10611D01*
X197920Y9764D01*
X198505Y8950D01*
X199135Y8170D01*
X199808Y7426D01*
X200522Y6722D01*
X201275Y6060D01*
X202064Y5441D01*
X202886Y4868D01*
X203740Y4342D01*
X204622Y3866D01*
X205530Y3440D01*
X206460Y3066D01*
X207411Y2745D01*
X208377Y2479D01*
X209358Y2268D01*
X210348Y2112D01*
X211346Y2013D01*
X212348Y1970D01*
X213350Y1984D01*
X214351Y2055D01*
X215345Y2183D01*
X216331Y2366D01*
X217305Y2605D01*
X218264Y2899D01*
X219204Y3246D01*
X220124Y3646D01*
X221019Y4098D01*
X221887Y4599D01*
X222726Y5149D01*
X223532Y5745D01*
X224303Y6386D01*
X225037Y7069D01*
X225731Y7793D01*
X226382Y8555D01*
X226990Y9353D01*
X227552Y10184D01*
X228065Y11045D01*
X228529Y11934D01*
X228942Y12847D01*
X229303Y13783D01*
X229610Y14738D01*
X229863Y15708D01*
X230060Y16691D01*
X230202Y17684D01*
X230287Y18683D01*
X230315Y19685D01*
X84646D02*
X84617Y20687D01*
X84532Y21687D01*
X84391Y22679D01*
X84193Y23662D01*
X83941Y24633D01*
X83634Y25587D01*
X83273Y26523D01*
X82860Y27436D01*
X82396Y28325D01*
X81882Y29186D01*
X81321Y30017D01*
X80713Y30815D01*
X80062Y31577D01*
X79368Y32301D01*
X78634Y32984D01*
X77863Y33625D01*
X77057Y34222D01*
X76218Y34771D01*
X75350Y35273D01*
X74454Y35724D01*
X73535Y36124D01*
X72594Y36471D01*
X71636Y36765D01*
X70662Y37004D01*
X69676Y37187D01*
X68681Y37315D01*
X67681Y37386D01*
X66678Y37400D01*
X65677Y37357D01*
X64679Y37258D01*
X63688Y37103D01*
X62708Y36891D01*
X61741Y36625D01*
X60791Y36304D01*
X59861Y35930D01*
X58953Y35505D01*
X58071Y35028D01*
X57217Y34502D01*
X56394Y33929D01*
X55605Y33310D01*
X54853Y32648D01*
X54139Y31944D01*
X53465Y31201D01*
X52836Y30420D01*
X52251Y29606D01*
X51713Y28760D01*
X51224Y27884D01*
X50785Y26983D01*
X50398Y26057D01*
X50064Y25112D01*
X49784Y24149D01*
X49559Y23172D01*
X49390Y22184D01*
X49276Y21188D01*
X49220Y20186D01*
X49220Y19184D01*
X49276Y18183D01*
X49390Y17186D01*
X49559Y16198D01*
X49784Y15221D01*
X50064Y14258D01*
X50398Y13313D01*
X50785Y12388D01*
X51224Y11486D01*
X51713Y10611D01*
X52251Y9764D01*
X52836Y8950D01*
X53465Y8170D01*
X54138Y7426D01*
X54853Y6722D01*
X55605Y6060D01*
X56394Y5441D01*
X57217Y4868D01*
X58071Y4342D01*
X58953Y3866D01*
X59861Y3440D01*
X60791Y3066D01*
X61741Y2745D01*
X62708Y2479D01*
X63688Y2268D01*
X64679Y2112D01*
X65677Y2013D01*
X66678Y1970D01*
X67681Y1984D01*
X68681Y2055D01*
X69676Y2183D01*
X70662Y2366D01*
X71636Y2605D01*
X72594Y2899D01*
X73535Y3246D01*
X74454Y3646D01*
X75350Y4098D01*
X76218Y4599D01*
X77057Y5149D01*
X77863Y5745D01*
X78634Y6386D01*
X79368Y7069D01*
X80062Y7793D01*
X80713Y8555D01*
X81321Y9353D01*
X81882Y10184D01*
X82396Y11045D01*
X82860Y11934D01*
X83273Y12847D01*
X83634Y13783D01*
X83941Y14738D01*
X84193Y15708D01*
X84391Y16691D01*
X84532Y17684D01*
X84617Y18683D01*
X84646Y19685D01*
X1181Y-19820D02*
X6429D01*
X3805D01*
Y-27691D01*
X10364D02*
X12988D01*
X14300Y-26379D01*
Y-23755D01*
X12988Y-22444D01*
X10364D01*
X9053Y-23755D01*
Y-26379D01*
X10364Y-27691D01*
X16924Y-30315D02*
Y-22444D01*
X20860D01*
X22172Y-23755D01*
Y-26379D01*
X20860Y-27691D01*
X16924D01*
X36603Y-19820D02*
X33979D01*
X32667Y-21132D01*
Y-26379D01*
X33979Y-27691D01*
X36603D01*
X37915Y-26379D01*
Y-21132D01*
X36603Y-19820D01*
X40538Y-22444D02*
X43162Y-27691D01*
X45786Y-22444D01*
X52346Y-27691D02*
X49722D01*
X48410Y-26379D01*
Y-23755D01*
X49722Y-22444D01*
X52346D01*
X53658Y-23755D01*
Y-25067D01*
X48410D01*
X56282Y-22444D02*
Y-27691D01*
Y-25067D01*
X57593Y-23755D01*
X58905Y-22444D01*
X60217D01*
X64153Y-27691D02*
X66777D01*
X65465D01*
Y-19820D01*
X64153D01*
X72024Y-22444D02*
X74648D01*
X75960Y-23755D01*
Y-27691D01*
X72024D01*
X70713Y-26379D01*
X72024Y-25067D01*
X75960D01*
X78584Y-22444D02*
Y-26379D01*
X79896Y-27691D01*
X83832D01*
Y-29003D01*
X82520Y-30315D01*
X81208D01*
X83832Y-27691D02*
Y-22444D01*
D11*
X148584Y259842D02*
X148408Y260840D01*
X147902Y261716D01*
X147127Y262367D01*
X146176Y262713D01*
X145163D01*
X144212Y262367D01*
X143436Y261716D01*
X142930Y260840D01*
X142754Y259842D01*
X142930Y258845D01*
X143436Y257969D01*
X144212Y257318D01*
X145163Y256972D01*
X146176D01*
X147127Y257318D01*
X147902Y257969D01*
X148408Y258845D01*
X148584Y259842D01*
X187954Y192913D02*
X187779Y193910D01*
X187272Y194787D01*
X186497Y195438D01*
X185546Y195784D01*
X184533D01*
X183582Y195438D01*
X182806Y194787D01*
X182300Y193910D01*
X182124Y192913D01*
X182300Y191916D01*
X182806Y191040D01*
X183582Y190389D01*
X184533Y190043D01*
X185546D01*
X186497Y190389D01*
X187272Y191040D01*
X187779Y191916D01*
X187954Y192913D01*
X156458Y196850D02*
X156282Y197847D01*
X155776Y198724D01*
X155001Y199375D01*
X154050Y199721D01*
X153037D01*
X152086Y199375D01*
X151310Y198724D01*
X150804Y197847D01*
X150628Y196850D01*
X150804Y195853D01*
X151310Y194977D01*
X152086Y194326D01*
X153037Y193980D01*
X154050D01*
X155001Y194326D01*
X155776Y194977D01*
X156282Y195853D01*
X156458Y196850D01*
X144647D02*
X144472Y197847D01*
X143965Y198724D01*
X143190Y199375D01*
X142238Y199721D01*
X141226D01*
X140275Y199375D01*
X139499Y198724D01*
X138993Y197847D01*
X138817Y196850D01*
X138993Y195853D01*
X139499Y194977D01*
X140275Y194326D01*
X141226Y193980D01*
X142238D01*
X143190Y194326D01*
X143965Y194977D01*
X144472Y195853D01*
X144647Y196850D01*
X132836Y185039D02*
X132660Y186036D01*
X132154Y186913D01*
X131379Y187564D01*
X130427Y187910D01*
X129415D01*
X128464Y187564D01*
X127688Y186913D01*
X127182Y186036D01*
X127006Y185039D01*
X127182Y184042D01*
X127688Y183166D01*
X128464Y182515D01*
X129415Y182169D01*
X130427D01*
X131379Y182515D01*
X132154Y183166D01*
X132660Y184042D01*
X132836Y185039D01*
X172206Y165354D02*
X172030Y166351D01*
X171524Y167228D01*
X170749Y167879D01*
X169798Y168225D01*
X168785D01*
X167834Y167879D01*
X167058Y167228D01*
X166552Y166351D01*
X166376Y165354D01*
X166552Y164357D01*
X167058Y163481D01*
X167834Y162830D01*
X168785Y162484D01*
X169798D01*
X170749Y162830D01*
X171524Y163481D01*
X172030Y164357D01*
X172206Y165354D01*
X148584Y149606D02*
X148408Y150603D01*
X147902Y151480D01*
X147127Y152131D01*
X146176Y152477D01*
X145163D01*
X144212Y152131D01*
X143436Y151480D01*
X142930Y150603D01*
X142754Y149606D01*
X142930Y148609D01*
X143436Y147733D01*
X144212Y147082D01*
X145163Y146736D01*
X146176D01*
X147127Y147082D01*
X147902Y147733D01*
X148408Y148609D01*
X148584Y149606D01*
X65907Y141732D02*
X65731Y142729D01*
X65225Y143606D01*
X64450Y144257D01*
X63498Y144603D01*
X62486D01*
X61535Y144257D01*
X60759Y143606D01*
X60253Y142729D01*
X60077Y141732D01*
X60253Y140735D01*
X60759Y139859D01*
X61535Y139208D01*
X62486Y138862D01*
X63498D01*
X64450Y139208D01*
X65225Y139859D01*
X65731Y140735D01*
X65907Y141732D01*
X42285Y125984D02*
X42109Y126981D01*
X41603Y127858D01*
X40828Y128509D01*
X39876Y128855D01*
X38864D01*
X37913Y128509D01*
X37137Y127858D01*
X36631Y126981D01*
X36455Y125984D01*
X36631Y124987D01*
X37137Y124110D01*
X37913Y123460D01*
X38864Y123114D01*
X39876D01*
X40828Y123460D01*
X41603Y124110D01*
X42109Y124987D01*
X42285Y125984D01*
X50159Y141732D02*
X49983Y142729D01*
X49477Y143606D01*
X48702Y144257D01*
X47750Y144603D01*
X46738D01*
X45787Y144257D01*
X45011Y143606D01*
X44505Y142729D01*
X44329Y141732D01*
X44505Y140735D01*
X45011Y139859D01*
X45787Y139208D01*
X46738Y138862D01*
X47750D01*
X48702Y139208D01*
X49477Y139859D01*
X49983Y140735D01*
X50159Y141732D01*
X77718Y110236D02*
X77542Y111233D01*
X77036Y112110D01*
X76261Y112761D01*
X75309Y113107D01*
X74297D01*
X73346Y112761D01*
X72570Y112110D01*
X72064Y111233D01*
X71888Y110236D01*
X72064Y109239D01*
X72570Y108362D01*
X73346Y107712D01*
X74297Y107366D01*
X75309D01*
X76261Y107712D01*
X77036Y108362D01*
X77542Y109239D01*
X77718Y110236D01*
X65907Y94488D02*
X65731Y95485D01*
X65225Y96362D01*
X64450Y97013D01*
X63498Y97359D01*
X62486D01*
X61535Y97013D01*
X60759Y96362D01*
X60253Y95485D01*
X60077Y94488D01*
X60253Y93491D01*
X60759Y92615D01*
X61535Y91964D01*
X62486Y91618D01*
X63498D01*
X64450Y91964D01*
X65225Y92615D01*
X65731Y93491D01*
X65907Y94488D01*
X50159D02*
X49983Y95485D01*
X49477Y96362D01*
X48702Y97013D01*
X47750Y97359D01*
X46738D01*
X45787Y97013D01*
X45011Y96362D01*
X44505Y95485D01*
X44329Y94488D01*
X44505Y93491D01*
X45011Y92615D01*
X45787Y91964D01*
X46738Y91618D01*
X47750D01*
X48702Y91964D01*
X49477Y92615D01*
X49983Y93491D01*
X50159Y94488D01*
X46222Y82677D02*
X46046Y83674D01*
X45540Y84551D01*
X44765Y85202D01*
X43813Y85548D01*
X42801D01*
X41850Y85202D01*
X41074Y84551D01*
X40568Y83674D01*
X40392Y82677D01*
X40568Y81680D01*
X41074Y80803D01*
X41850Y80153D01*
X42801Y79806D01*
X43813D01*
X44765Y80153D01*
X45540Y80803D01*
X46046Y81680D01*
X46222Y82677D01*
Y45276D02*
X46046Y46273D01*
X45540Y47149D01*
X44765Y47800D01*
X43813Y48146D01*
X42801D01*
X41850Y47800D01*
X41074Y47149D01*
X40568Y46273D01*
X40392Y45276D01*
X40568Y44279D01*
X41074Y43402D01*
X41850Y42751D01*
X42801Y42405D01*
X43813D01*
X44765Y42751D01*
X45540Y43402D01*
X46046Y44279D01*
X46222Y45276D01*
Y59055D02*
X46046Y60052D01*
X45540Y60929D01*
X44765Y61580D01*
X43813Y61926D01*
X42801D01*
X41850Y61580D01*
X41074Y60929D01*
X40568Y60052D01*
X40392Y59055D01*
X40568Y58058D01*
X41074Y57181D01*
X41850Y56531D01*
X42801Y56184D01*
X43813D01*
X44765Y56531D01*
X45540Y57181D01*
X46046Y58058D01*
X46222Y59055D01*
X77718Y157480D02*
X77542Y158477D01*
X77036Y159354D01*
X76261Y160005D01*
X75309Y160351D01*
X74297D01*
X73346Y160005D01*
X72570Y159354D01*
X72064Y158477D01*
X71888Y157480D01*
X72064Y156483D01*
X72570Y155607D01*
X73346Y154956D01*
X74297Y154610D01*
X75309D01*
X76261Y154956D01*
X77036Y155607D01*
X77542Y156483D01*
X77718Y157480D01*
X42285Y173228D02*
X42109Y174225D01*
X41603Y175102D01*
X40828Y175753D01*
X39876Y176099D01*
X38864D01*
X37913Y175753D01*
X37137Y175102D01*
X36631Y174225D01*
X36455Y173228D01*
X36631Y172231D01*
X37137Y171355D01*
X37913Y170704D01*
X38864Y170358D01*
X39876D01*
X40828Y170704D01*
X41603Y171355D01*
X42109Y172231D01*
X42285Y173228D01*
X61970Y192913D02*
X61794Y193910D01*
X61288Y194787D01*
X60513Y195438D01*
X59561Y195784D01*
X58549D01*
X57598Y195438D01*
X56822Y194787D01*
X56316Y193910D01*
X56140Y192913D01*
X56316Y191916D01*
X56822Y191040D01*
X57598Y190389D01*
X58549Y190043D01*
X59561D01*
X60513Y190389D01*
X61288Y191040D01*
X61794Y191916D01*
X61970Y192913D01*
X239136Y208661D02*
X238960Y209658D01*
X238454Y210535D01*
X237678Y211186D01*
X236727Y211532D01*
X235714D01*
X234763Y211186D01*
X233987Y210535D01*
X233481Y209658D01*
X233306Y208661D01*
X233481Y207664D01*
X233987Y206788D01*
X234763Y206137D01*
X235714Y205791D01*
X236727D01*
X237678Y206137D01*
X238454Y206788D01*
X238960Y207664D01*
X239136Y208661D01*
Y196850D02*
X238960Y197847D01*
X238454Y198724D01*
X237678Y199375D01*
X236727Y199721D01*
X235714D01*
X234763Y199375D01*
X233987Y198724D01*
X233481Y197847D01*
X233306Y196850D01*
X233481Y195853D01*
X233987Y194977D01*
X234763Y194326D01*
X235714Y193980D01*
X236727D01*
X237678Y194326D01*
X238454Y194977D01*
X238960Y195853D01*
X239136Y196850D01*
Y185039D02*
X238960Y186036D01*
X238454Y186913D01*
X237678Y187564D01*
X236727Y187910D01*
X235714D01*
X234763Y187564D01*
X233987Y186913D01*
X233481Y186036D01*
X233306Y185039D01*
X233481Y184042D01*
X233987Y183166D01*
X234763Y182515D01*
X235714Y182169D01*
X236727D01*
X237678Y182515D01*
X238454Y183166D01*
X238960Y184042D01*
X239136Y185039D01*
X439923Y114173D02*
X439747Y115170D01*
X439241Y116047D01*
X438465Y116698D01*
X437514Y117044D01*
X436502D01*
X435550Y116698D01*
X434775Y116047D01*
X434269Y115170D01*
X434093Y114173D01*
X434269Y113176D01*
X434775Y112300D01*
X435550Y111649D01*
X436502Y111302D01*
X437514D01*
X438465Y111649D01*
X439241Y112300D01*
X439747Y113176D01*
X439923Y114173D01*
Y192913D02*
X439747Y193910D01*
X439241Y194787D01*
X438465Y195438D01*
X437514Y195784D01*
X436502D01*
X435550Y195438D01*
X434775Y194787D01*
X434269Y193910D01*
X434093Y192913D01*
X434269Y191916D01*
X434775Y191040D01*
X435550Y190389D01*
X436502Y190043D01*
X437514D01*
X438465Y190389D01*
X439241Y191040D01*
X439747Y191916D01*
X439923Y192913D01*
X369057Y204724D02*
X368881Y205721D01*
X368375Y206598D01*
X367599Y207249D01*
X366648Y207595D01*
X365636D01*
X364684Y207249D01*
X363909Y206598D01*
X363403Y205721D01*
X363227Y204724D01*
X363403Y203727D01*
X363909Y202851D01*
X364684Y202200D01*
X365636Y201854D01*
X366648D01*
X367599Y202200D01*
X368375Y202851D01*
X368881Y203727D01*
X369057Y204724D01*
Y181102D02*
X368881Y182099D01*
X368375Y182976D01*
X367599Y183627D01*
X366648Y183973D01*
X365636D01*
X364684Y183627D01*
X363909Y182976D01*
X363403Y182099D01*
X363227Y181102D01*
X363403Y180105D01*
X363909Y179229D01*
X364684Y178578D01*
X365636Y178232D01*
X366648D01*
X367599Y178578D01*
X368375Y179229D01*
X368881Y180105D01*
X369057Y181102D01*
Y125984D02*
X368881Y126981D01*
X368375Y127858D01*
X367599Y128509D01*
X366648Y128855D01*
X365636D01*
X364684Y128509D01*
X363909Y127858D01*
X363403Y126981D01*
X363227Y125984D01*
X363403Y124987D01*
X363909Y124110D01*
X364684Y123460D01*
X365636Y123114D01*
X366648D01*
X367599Y123460D01*
X368375Y124110D01*
X368881Y124987D01*
X369057Y125984D01*
Y102362D02*
X368881Y103359D01*
X368375Y104236D01*
X367599Y104887D01*
X366648Y105233D01*
X365636D01*
X364684Y104887D01*
X363909Y104236D01*
X363403Y103359D01*
X363227Y102362D01*
X363403Y101365D01*
X363909Y100488D01*
X364684Y99838D01*
X365636Y99492D01*
X366648D01*
X367599Y99838D01*
X368375Y100488D01*
X368881Y101365D01*
X369057Y102362D01*
X239136Y122047D02*
X238960Y123044D01*
X238454Y123921D01*
X237678Y124572D01*
X236727Y124918D01*
X235714D01*
X234763Y124572D01*
X233987Y123921D01*
X233481Y123044D01*
X233306Y122047D01*
X233481Y121050D01*
X233987Y120174D01*
X234763Y119523D01*
X235714Y119176D01*
X236727D01*
X237678Y119523D01*
X238454Y120174D01*
X238960Y121050D01*
X239136Y122047D01*
Y110236D02*
X238960Y111233D01*
X238454Y112110D01*
X237678Y112761D01*
X236727Y113107D01*
X235714D01*
X234763Y112761D01*
X233987Y112110D01*
X233481Y111233D01*
X233306Y110236D01*
X233481Y109239D01*
X233987Y108362D01*
X234763Y107712D01*
X235714Y107366D01*
X236727D01*
X237678Y107712D01*
X238454Y108362D01*
X238960Y109239D01*
X239136Y110236D01*
Y98425D02*
X238960Y99422D01*
X238454Y100299D01*
X237678Y100950D01*
X236727Y101296D01*
X235714D01*
X234763Y100950D01*
X233987Y100299D01*
X233481Y99422D01*
X233306Y98425D01*
X233481Y97428D01*
X233987Y96552D01*
X234763Y95901D01*
X235714Y95555D01*
X236727D01*
X237678Y95901D01*
X238454Y96552D01*
X238960Y97428D01*
X239136Y98425D01*
X479294Y251799D02*
X479118Y252796D01*
X478612Y253673D01*
X477837Y254324D01*
X476885Y254670D01*
X475873D01*
X474922Y254324D01*
X474146Y253673D01*
X473640Y252796D01*
X473464Y251799D01*
X473640Y250802D01*
X474146Y249925D01*
X474922Y249275D01*
X475873Y248928D01*
X476885D01*
X477837Y249275D01*
X478612Y249925D01*
X479118Y250802D01*
X479294Y251799D01*
X479385Y55145D02*
X479209Y56142D01*
X478703Y57018D01*
X477928Y57669D01*
X476976Y58015D01*
X475964D01*
X475013Y57669D01*
X474237Y57018D01*
X473731Y56142D01*
X473555Y55145D01*
X473731Y54147D01*
X474237Y53271D01*
X475013Y52620D01*
X475964Y52274D01*
X476976D01*
X477928Y52620D01*
X478703Y53271D01*
X479209Y54147D01*
X479385Y55145D01*
D12*
X185898Y240551D02*
X186500Y241349D01*
X186958Y242236D01*
X187260Y243187D01*
X187398Y244177D01*
X187367Y245175D01*
X187168Y246153D01*
X186807Y247084D01*
X186295Y247941D01*
X185645Y248700D01*
X184877Y249338D01*
X184013Y249838D01*
X183076Y250184D01*
X182095Y250369D01*
X181096Y250385D01*
X180109Y250232D01*
X179162Y249916D01*
X178282Y249444D01*
X177494Y248831D01*
X176820Y248094D01*
X144810Y216142D02*
X144209Y215345D01*
X143751Y214457D01*
X143448Y213506D01*
X143311Y212516D01*
X143342Y211518D01*
X143541Y210540D01*
X143901Y209609D01*
X144414Y208751D01*
X145063Y207993D01*
X145831Y207355D01*
X146696Y206855D01*
X147633Y206508D01*
X148614Y206324D01*
X149612Y206308D01*
X150599Y206461D01*
X151547Y206777D01*
X152427Y207249D01*
X153215Y207862D01*
X153888Y208599D01*
Y248094D02*
X153215Y248831D01*
X152427Y249444D01*
X151547Y249916D01*
X150599Y250232D01*
X149612Y250385D01*
X148614Y250369D01*
X147633Y250184D01*
X146696Y249838D01*
X145831Y249338D01*
X145063Y248700D01*
X144414Y247941D01*
X143901Y247084D01*
X143541Y246153D01*
X143342Y245175D01*
X143311Y244177D01*
X143448Y243187D01*
X143751Y242236D01*
X144209Y241349D01*
X144810Y240551D01*
X176820Y208599D02*
X177494Y207862D01*
X178282Y207249D01*
X179162Y206777D01*
X180109Y206461D01*
X181096Y206308D01*
X182095Y206324D01*
X183076Y206508D01*
X184013Y206855D01*
X184877Y207355D01*
X185645Y207993D01*
X186295Y208751D01*
X186807Y209609D01*
X187168Y210540D01*
X187367Y211518D01*
X187398Y212516D01*
X187260Y213506D01*
X186958Y214457D01*
X186500Y215345D01*
X185898Y216142D01*
X190551Y249606D02*
X190417Y250625D01*
X190024Y251575D01*
X189398Y252390D01*
X188583Y253016D01*
X187633Y253409D01*
X186614Y253543D01*
X144095D02*
X143076Y253409D01*
X142126Y253016D01*
X141311Y252390D01*
X140685Y251575D01*
X140292Y250625D01*
X140157Y249606D01*
X186614Y203150D02*
X187633Y203284D01*
X188583Y203677D01*
X189398Y204303D01*
X190024Y205118D01*
X190417Y206068D01*
X190551Y207087D01*
X140157D02*
X140292Y206068D01*
X140685Y205118D01*
X141311Y204303D01*
X142126Y203677D01*
X143076Y203284D01*
X144095Y203150D01*
X153888Y208599D02*
X154765Y208116D01*
X155662Y207671D01*
X156577Y207266D01*
X157509Y206902D01*
X158457Y206578D01*
X159417Y206297D01*
X160389Y206058D01*
X161371Y205862D01*
X162360Y205709D01*
X163355Y205599D01*
X164354Y205534D01*
X165354Y205512D01*
X166355Y205534D01*
X167354Y205599D01*
X168349Y205709D01*
X169338Y205862D01*
X170319Y206058D01*
X171291Y206297D01*
X172252Y206578D01*
X173199Y206902D01*
X174132Y207266D01*
X175047Y207671D01*
X175944Y208116D01*
X176820Y208599D01*
X147468Y216142D02*
X148052Y215327D01*
X148673Y214541D01*
X149329Y213784D01*
X150021Y213058D01*
X150744Y212365D01*
X151499Y211706D01*
X152284Y211082D01*
X153097Y210496D01*
X153936Y209948D01*
X154800Y209439D01*
X155686Y208971D01*
X156593Y208545D01*
X157518Y208160D01*
X158461Y207820D01*
X159418Y207523D01*
X160388Y207270D01*
X161368Y207063D01*
X162357Y206901D01*
X163353Y206786D01*
X164352Y206716D01*
X165354Y206693D01*
X166356Y206716D01*
X167356Y206786D01*
X168351Y206901D01*
X169341Y207063D01*
X170321Y207270D01*
X171291Y207523D01*
X172248Y207820D01*
X173190Y208160D01*
X174116Y208545D01*
X175023Y208971D01*
X175909Y209439D01*
X176773Y209948D01*
X177612Y210496D01*
X178424Y211082D01*
X179209Y211706D01*
X179964Y212365D01*
X180688Y213058D01*
X181379Y213784D01*
X182036Y214541D01*
X182657Y215327D01*
X183241Y216142D01*
X176820Y248094D02*
X175944Y248577D01*
X175047Y249022D01*
X174132Y249427D01*
X173199Y249791D01*
X172252Y250114D01*
X171291Y250396D01*
X170319Y250635D01*
X169338Y250831D01*
X168349Y250984D01*
X167354Y251093D01*
X166355Y251159D01*
X165354Y251181D01*
X164354Y251159D01*
X163355Y251093D01*
X162360Y250984D01*
X161371Y250831D01*
X160389Y250635D01*
X159417Y250396D01*
X158457Y250114D01*
X157509Y249791D01*
X156577Y249427D01*
X155662Y249022D01*
X154765Y248577D01*
X153888Y248094D01*
X183241Y240551D02*
X182657Y241366D01*
X182036Y242152D01*
X181379Y242909D01*
X180688Y243635D01*
X179964Y244328D01*
X179209Y244987D01*
X178424Y245611D01*
X177612Y246197D01*
X176773Y246745D01*
X175909Y247253D01*
X175023Y247722D01*
X174116Y248148D01*
X173190Y248532D01*
X172248Y248873D01*
X171291Y249170D01*
X170321Y249423D01*
X169341Y249630D01*
X168351Y249792D01*
X167356Y249907D01*
X166356Y249977D01*
X165354Y250000D01*
X164352Y249977D01*
X163353Y249907D01*
X162357Y249792D01*
X161368Y249630D01*
X160388Y249423D01*
X159418Y249170D01*
X158461Y248873D01*
X157518Y248532D01*
X156593Y248148D01*
X155686Y247722D01*
X154800Y247253D01*
X153936Y246745D01*
X153097Y246197D01*
X152284Y245611D01*
X151499Y244987D01*
X150744Y244328D01*
X150021Y243635D01*
X149329Y242909D01*
X148673Y242152D01*
X148052Y241366D01*
X147468Y240551D01*
X117038Y53802D02*
X116804Y54709D01*
X116254Y55467D01*
X115463Y55968D01*
X114543Y56144D01*
X113623Y55968D01*
X112832Y55467D01*
X112281Y54709D01*
X112048Y53802D01*
X144095Y253543D02*
X186614D01*
X190551Y240551D02*
Y249606D01*
X140157Y207087D02*
Y216142D01*
X144095Y203150D02*
X186614D01*
X140157Y240551D02*
Y249606D01*
X190551Y207087D02*
Y216142D01*
X162937Y263543D02*
X166874D01*
X162937Y256457D02*
X166874D01*
X172835Y179134D02*
Y183071D01*
X165748Y179134D02*
Y183071D01*
X161024Y143701D02*
Y147638D01*
X153937Y143701D02*
Y147638D01*
X130315Y139764D02*
Y143701D01*
X137402Y139764D02*
Y143701D01*
X130315Y96457D02*
Y100394D01*
X137402Y96457D02*
Y100394D01*
X171260Y75197D02*
X175197D01*
X171260Y82284D02*
X175197D01*
X142126Y61024D02*
Y64961D01*
X149213Y61024D02*
Y64961D01*
X130315Y61024D02*
Y64961D01*
X137402Y61024D02*
Y64961D01*
X68898Y126378D02*
X72835D01*
X68898Y133465D02*
X72835D01*
X68898Y114567D02*
X72835D01*
X68898Y121653D02*
X72835D01*
X49213Y126378D02*
X53150D01*
X49213Y133465D02*
X53150D01*
X49213Y114567D02*
X53150D01*
X49213Y121653D02*
X53150D01*
X44882Y97244D02*
X65354D01*
X44882Y107480D02*
X65354D01*
X46850Y68898D02*
Y72835D01*
X39764Y68898D02*
Y72835D01*
X56398Y61221D02*
Y72638D01*
X53839Y61221D02*
X56398D01*
X53839D02*
Y72638D01*
X56398D01*
X63386Y64961D02*
Y68898D01*
X70472Y64961D02*
Y68898D01*
X82284Y61024D02*
Y64961D01*
X75197Y61024D02*
Y64961D01*
X119095Y52953D02*
Y73032D01*
X93504D02*
X119095D01*
X93504Y52953D02*
Y73032D01*
Y52953D02*
X119095D01*
X112048Y53802D02*
X117038D01*
X92795Y78917D02*
Y117933D01*
Y78917D02*
X119803D01*
Y117933D01*
X92795D02*
X119803D01*
X92795Y122224D02*
Y161240D01*
Y122224D02*
X119803D01*
Y161240D01*
X92795D02*
X119803D01*
X78347Y143701D02*
Y147638D01*
X71260Y143701D02*
Y147638D01*
X68898Y161811D02*
X72835D01*
X68898Y168898D02*
X72835D01*
X49213Y161811D02*
X53150D01*
X49213Y168898D02*
X53150D01*
X44882Y144488D02*
X65354D01*
X44882Y154724D02*
X65354D01*
X49213Y173622D02*
X53150D01*
X49213Y180709D02*
X53150D01*
X68898Y173622D02*
X72835D01*
X68898Y180709D02*
X72835D01*
X56496Y195276D02*
X77362D01*
X56496Y206299D02*
X77362D01*
Y195276D02*
Y196161D01*
X56496Y195276D02*
Y196161D01*
X77362Y205413D02*
Y206299D01*
X56496Y205413D02*
Y206299D01*
X48425Y194488D02*
Y214961D01*
X38189Y194488D02*
Y214961D01*
X87598Y251772D02*
X97244D01*
Y212795D02*
Y251772D01*
X87598Y212795D02*
X97244D01*
X96457Y256299D02*
X100394D01*
X96457Y263386D02*
X100394D01*
X124409Y221850D02*
Y242717D01*
X135433Y221850D02*
Y242717D01*
X124409Y221850D02*
X125295D01*
X124409Y242717D02*
X125295D01*
X134547Y221850D02*
X135433D01*
X134547Y242717D02*
X135433D01*
X120079Y263386D02*
X124016D01*
X120079Y256299D02*
X124016D01*
X120079Y268110D02*
X124016D01*
X120079Y275197D02*
X124016D01*
X303937Y202559D02*
Y206890D01*
X310236Y202559D02*
Y206890D01*
X292126Y202559D02*
Y206890D01*
X298425Y202559D02*
Y206890D01*
X280315Y202559D02*
Y206890D01*
X286614Y202559D02*
Y206890D01*
X268504Y202559D02*
Y206890D01*
X274803Y202559D02*
Y206890D01*
X256693Y202559D02*
Y206890D01*
X262992Y202559D02*
Y206890D01*
X244882Y202559D02*
Y206890D01*
X251181Y202559D02*
Y206890D01*
X303937Y178937D02*
Y183268D01*
X310236Y178937D02*
Y183268D01*
X292126Y178937D02*
Y183268D01*
X298425Y178937D02*
Y183268D01*
X280315Y178937D02*
Y183268D01*
X286614Y178937D02*
Y183268D01*
X268504Y178937D02*
Y183268D01*
X274803Y178937D02*
Y183268D01*
X256693Y178937D02*
Y183268D01*
X262992Y178937D02*
Y183268D01*
X244882Y178937D02*
Y183268D01*
X251181Y178937D02*
Y183268D01*
X328740Y222047D02*
X332677D01*
X328740Y214961D02*
X332677D01*
X387205Y186614D02*
X408071D01*
X387205Y175591D02*
X408071D01*
X387205Y185728D02*
Y186614D01*
X408071Y185728D02*
Y186614D01*
X387205Y175591D02*
Y176476D01*
X408071Y175591D02*
Y176476D01*
X387205Y199213D02*
X408071D01*
X387205Y210236D02*
X408071D01*
Y199213D02*
Y200098D01*
X387205Y199213D02*
Y200098D01*
X408071Y209350D02*
Y210236D01*
X387205Y209350D02*
Y210236D01*
X352362Y163779D02*
X356299D01*
X352362Y170866D02*
X356299D01*
X328740D02*
X332677D01*
X328740Y163779D02*
X332677D01*
X328740Y143307D02*
X332677D01*
X328740Y136221D02*
X332677D01*
X387205Y96850D02*
X408071D01*
X387205Y107874D02*
X408071D01*
Y96850D02*
Y97736D01*
X387205Y96850D02*
Y97736D01*
X408071Y106988D02*
Y107874D01*
X387205Y106988D02*
Y107874D01*
X387205Y131496D02*
X408071D01*
X387205Y120472D02*
X408071D01*
X387205Y130610D02*
Y131496D01*
X408071Y130610D02*
Y131496D01*
X387205Y120472D02*
Y121358D01*
X408071Y120472D02*
Y121358D01*
X352362Y88189D02*
X356299D01*
X352362Y81102D02*
X356299D01*
X328740Y88189D02*
X332677D01*
X328740Y81102D02*
X332677D01*
X303937Y100197D02*
Y104527D01*
X310236Y100197D02*
Y104527D01*
X292126Y100197D02*
Y104527D01*
X298425Y100197D02*
Y104527D01*
X280315Y100197D02*
Y104527D01*
X286614Y100197D02*
Y104527D01*
X268504Y100197D02*
Y104527D01*
X274803Y100197D02*
Y104527D01*
X256693Y100197D02*
Y104527D01*
X262992Y100197D02*
Y104527D01*
X244882Y100197D02*
Y104527D01*
X251181Y100197D02*
Y104527D01*
X303937Y123819D02*
Y128150D01*
X310236Y123819D02*
Y128150D01*
X292126Y123819D02*
Y128150D01*
X298425Y123819D02*
Y128150D01*
X280315Y123819D02*
Y128150D01*
X286614Y123819D02*
Y128150D01*
X268504Y123819D02*
Y128150D01*
X274803Y123819D02*
Y128150D01*
X256693Y123819D02*
Y128150D01*
X262992Y123819D02*
Y128150D01*
X244882Y123819D02*
Y128150D01*
X251181Y123819D02*
Y128150D01*
X438976Y279921D02*
X442913D01*
X438976Y287008D02*
X442913D01*
X411417Y279921D02*
X415354D01*
X411417Y287008D02*
X415354D01*
X383858Y279921D02*
X387795D01*
X383858Y287008D02*
X387795D01*
X356299Y279921D02*
X360236D01*
X356299Y287008D02*
X360236D01*
X328740Y279921D02*
X332677D01*
X328740Y287008D02*
X332677D01*
X301181Y279921D02*
X305118D01*
X301181Y287008D02*
X305118D01*
X273622Y279921D02*
X277559D01*
X273622Y287008D02*
X277559D01*
X292717Y240748D02*
Y247441D01*
X297835Y240748D02*
Y247441D01*
X292717Y242126D02*
X297835D01*
X292717Y242913D02*
X297835D01*
X292717Y243701D02*
X297835D01*
X279921Y226378D02*
Y230315D01*
X287008Y226378D02*
Y230315D01*
X273228Y233661D02*
Y254528D01*
X262205Y233661D02*
Y254528D01*
X272342D02*
X273228D01*
X272342Y233661D02*
X273228D01*
X262205Y254528D02*
X263090D01*
X262205Y233661D02*
X263090D01*
X286024Y260630D02*
Y262008D01*
X265158Y260630D02*
X286024D01*
X265158D02*
Y262008D01*
X286024Y273425D02*
Y274803D01*
X265158D02*
X286024D01*
X265158Y273425D02*
Y274803D01*
X287008Y246063D02*
Y250000D01*
X279921Y246063D02*
Y250000D01*
X313583Y260630D02*
Y262008D01*
X292717Y260630D02*
X313583D01*
X292717D02*
Y262008D01*
X313583Y273425D02*
Y274803D01*
X292717D02*
X313583D01*
X292717Y273425D02*
Y274803D01*
X341142Y260630D02*
Y262008D01*
X320276Y260630D02*
X341142D01*
X320276D02*
Y262008D01*
X341142Y273425D02*
Y274803D01*
X320276D02*
X341142D01*
X320276Y273425D02*
Y274803D01*
X368701Y260630D02*
Y262008D01*
X347835Y260630D02*
X368701D01*
X347835D02*
Y262008D01*
X368701Y273425D02*
Y274803D01*
X347835D02*
X368701D01*
X347835Y273425D02*
Y274803D01*
X396260Y260630D02*
Y262008D01*
X375394Y260630D02*
X396260D01*
X375394D02*
Y262008D01*
X396260Y273425D02*
Y274803D01*
X375394D02*
X396260D01*
X375394Y273425D02*
Y274803D01*
X423819Y260630D02*
Y262008D01*
X402953Y260630D02*
X423819D01*
X402953D02*
Y262008D01*
X423819Y273425D02*
Y274803D01*
X402953D02*
X423819D01*
X402953Y273425D02*
Y274803D01*
X451378Y260630D02*
Y262008D01*
X430512Y260630D02*
X451378D01*
X430512D02*
Y262008D01*
X451378Y273425D02*
Y274803D01*
X430512D02*
X451378D01*
X430512Y273425D02*
Y274803D01*
X458071Y273425D02*
Y274803D01*
X478937D01*
Y273425D02*
Y274803D01*
X458071Y260630D02*
Y262008D01*
Y260630D02*
X478937D01*
Y262008D01*
X466535Y279921D02*
X470472D01*
X466535Y287008D02*
X470472D01*
X287008Y76772D02*
Y80709D01*
X279921Y76772D02*
Y80709D01*
X297835Y59646D02*
Y66339D01*
X292717Y59646D02*
Y66339D01*
Y64961D02*
X297835D01*
X292717Y64173D02*
X297835D01*
X292717Y63386D02*
X297835D01*
X279921Y57087D02*
Y61024D01*
X287008Y57087D02*
Y61024D01*
X262205Y52559D02*
Y73425D01*
X273228Y52559D02*
Y73425D01*
X262205Y52559D02*
X263091D01*
X262205Y73425D02*
X263091D01*
X272342Y52559D02*
X273228D01*
X272342Y73425D02*
X273228D01*
X458071Y45079D02*
Y46457D01*
X478937D01*
Y45079D02*
Y46457D01*
X458071Y32283D02*
Y33661D01*
Y32283D02*
X478937D01*
Y33661D01*
X466535Y20079D02*
X470472D01*
X466535Y27165D02*
X470472D01*
X451378Y32283D02*
Y33661D01*
X430512Y32283D02*
X451378D01*
X430512D02*
Y33661D01*
X451378Y45079D02*
Y46457D01*
X430512D02*
X451378D01*
X430512Y45079D02*
Y46457D01*
X438976Y20079D02*
X442913D01*
X438976Y27165D02*
X442913D01*
X423819Y32283D02*
Y33661D01*
X402953Y32283D02*
X423819D01*
X402953D02*
Y33661D01*
X423819Y45079D02*
Y46457D01*
X402953D02*
X423819D01*
X402953Y45079D02*
Y46457D01*
X411417Y20079D02*
X415354D01*
X411417Y27165D02*
X415354D01*
X396260Y32283D02*
Y33661D01*
X375394Y32283D02*
X396260D01*
X375394D02*
Y33661D01*
X396260Y45079D02*
Y46457D01*
X375394D02*
X396260D01*
X375394Y45079D02*
Y46457D01*
X383858Y20079D02*
X387795D01*
X383858Y27165D02*
X387795D01*
X368701Y32283D02*
Y33661D01*
X347835Y32283D02*
X368701D01*
X347835D02*
Y33661D01*
X368701Y45079D02*
Y46457D01*
X347835D02*
X368701D01*
X347835Y45079D02*
Y46457D01*
X356299Y20079D02*
X360236D01*
X356299Y27165D02*
X360236D01*
X341142Y32283D02*
Y33661D01*
X320276Y32283D02*
X341142D01*
X320276D02*
Y33661D01*
X341142Y45079D02*
Y46457D01*
X320276D02*
X341142D01*
X320276Y45079D02*
Y46457D01*
X328740Y20079D02*
X332677D01*
X328740Y27165D02*
X332677D01*
X313583Y32283D02*
Y33661D01*
X292717Y32283D02*
X313583D01*
X292717D02*
Y33661D01*
X313583Y45079D02*
Y46457D01*
X292717D02*
X313583D01*
X292717Y45079D02*
Y46457D01*
X301181Y20079D02*
X305118D01*
X301181Y27165D02*
X305118D01*
X286024Y32283D02*
Y33661D01*
X265158Y32283D02*
X286024D01*
X265158D02*
Y33661D01*
X286024Y45079D02*
Y46457D01*
X265158D02*
X286024D01*
X265158Y45079D02*
Y46457D01*
X273622Y20079D02*
X277559D01*
X273622Y27165D02*
X277559D01*
X78347Y96457D02*
Y100394D01*
X71260Y96457D02*
Y100394D01*
X113779Y200787D02*
Y204724D01*
X106693Y200787D02*
Y204724D01*
X209449Y249999D02*
X211548D01*
X210498D01*
Y246850D01*
X212597D02*
Y249999D01*
X214172D01*
X214697Y249474D01*
Y248425D01*
X214172Y247900D01*
X212597D01*
X215746Y246850D02*
X216795D01*
X216271D01*
Y249999D01*
X215746Y249474D01*
X218370D02*
X218895Y249999D01*
X219944D01*
X220469Y249474D01*
Y248950D01*
X219944Y248425D01*
X220469Y247900D01*
Y247375D01*
X219944Y246850D01*
X218895D01*
X218370Y247375D01*
Y247900D01*
X218895Y248425D01*
X218370Y248950D01*
Y249474D01*
X218895Y248425D02*
X219944D01*
X224667Y247900D02*
X226766D01*
X224667Y248950D02*
X226766D01*
X230964Y249474D02*
X231489Y249999D01*
X232539D01*
X233063Y249474D01*
Y247375D01*
X232539Y246850D01*
X231489D01*
X230964Y247375D01*
Y249474D01*
X234113Y249999D02*
Y247900D01*
X235162Y246850D01*
X236212Y247900D01*
Y249999D01*
X209449Y257873D02*
X211548D01*
X210498D01*
Y254724D01*
X212597D02*
Y257873D01*
X214172D01*
X214697Y257348D01*
Y256299D01*
X214172Y255774D01*
X212597D01*
X217845Y254724D02*
X215746D01*
X217845Y256823D01*
Y257348D01*
X217320Y257873D01*
X216271D01*
X215746Y257348D01*
X222043Y255774D02*
X224142D01*
X222043Y256823D02*
X224142D01*
X228340Y256299D02*
X230439D01*
X229390Y257348D02*
Y255249D01*
X233588Y254724D02*
X231489D01*
X233588Y256823D01*
Y257348D01*
X233063Y257873D01*
X232014D01*
X231489Y257348D01*
X236212Y254724D02*
Y257873D01*
X234637Y256299D01*
X236737D01*
X237786Y257873D02*
Y255774D01*
X238836Y254724D01*
X239885Y255774D01*
Y257873D01*
X209449Y265747D02*
X211548D01*
X210498D01*
Y262598D01*
X212597D02*
Y265747D01*
X214172D01*
X214697Y265222D01*
Y264173D01*
X214172Y263648D01*
X212597D01*
X215746Y262598D02*
X216795D01*
X216271D01*
Y265747D01*
X215746Y265222D01*
X221518Y263648D02*
X223618D01*
X221518Y264698D02*
X223618D01*
X227816Y264173D02*
X229915D01*
X228865Y265222D02*
Y263123D01*
X230964Y262598D02*
X232014D01*
X231489D01*
Y265747D01*
X230964Y265222D01*
X235687Y265747D02*
X233588D01*
Y264173D01*
X234637Y264698D01*
X235162D01*
X235687Y264173D01*
Y263123D01*
X235162Y262598D01*
X234113D01*
X233588Y263123D01*
X236737Y265747D02*
Y263648D01*
X237786Y262598D01*
X238836Y263648D01*
Y265747D01*
X209449Y45275D02*
X211548D01*
X210498D01*
Y42126D01*
X212597D02*
Y45275D01*
X214172D01*
X214697Y44750D01*
Y43700D01*
X214172Y43176D01*
X212597D01*
X215746Y44225D02*
X217845Y42126D01*
X216795Y43176D01*
X217845Y44225D01*
X215746Y42126D01*
X218895Y44750D02*
X219419Y45275D01*
X220469D01*
X220994Y44750D01*
Y42651D01*
X220469Y42126D01*
X219419D01*
X218895Y42651D01*
Y44750D01*
X222043D02*
X222568Y45275D01*
X223618D01*
X224142Y44750D01*
Y44225D01*
X223618Y43700D01*
X223093D01*
X223618D01*
X224142Y43176D01*
Y42651D01*
X223618Y42126D01*
X222568D01*
X222043Y42651D01*
X228340Y43176D02*
X230439D01*
X228340Y44225D02*
X230439D01*
X234637Y43700D02*
X236737D01*
X237786Y42651D02*
X238311Y42126D01*
X239360D01*
X239885Y42651D01*
Y44750D01*
X239360Y45275D01*
X238311D01*
X237786Y44750D01*
Y44225D01*
X238311Y43700D01*
X239885D01*
X240935Y45275D02*
Y43176D01*
X241984Y42126D01*
X243034Y43176D01*
Y45275D01*
X209449Y53149D02*
X211548D01*
X210498D01*
Y50000D01*
X212597D02*
Y53149D01*
X214172D01*
X214697Y52624D01*
Y51574D01*
X214172Y51050D01*
X212597D01*
X215746Y52099D02*
X217845Y50000D01*
X216795Y51050D01*
X217845Y52099D01*
X215746Y50000D01*
X218895Y52624D02*
X219419Y53149D01*
X220469D01*
X220994Y52624D01*
Y50525D01*
X220469Y50000D01*
X219419D01*
X218895Y50525D01*
Y52624D01*
X224142Y50000D02*
X222043D01*
X224142Y52099D01*
Y52624D01*
X223618Y53149D01*
X222568D01*
X222043Y52624D01*
X228340Y51050D02*
X230439D01*
X228340Y52099D02*
X230439D01*
X234637Y52624D02*
X235162Y53149D01*
X236212D01*
X236737Y52624D01*
Y50525D01*
X236212Y50000D01*
X235162D01*
X234637Y50525D01*
Y52624D01*
X237786Y53149D02*
Y51050D01*
X238836Y50000D01*
X239885Y51050D01*
Y53149D01*
X209449Y61023D02*
X211548D01*
X210498D01*
Y57874D01*
X212597D02*
Y61023D01*
X214172D01*
X214697Y60498D01*
Y59448D01*
X214172Y58924D01*
X212597D01*
X215746Y59973D02*
X217845Y57874D01*
X216795Y58924D01*
X217845Y59973D01*
X215746Y57874D01*
X218895Y60498D02*
X219419Y61023D01*
X220469D01*
X220994Y60498D01*
Y58399D01*
X220469Y57874D01*
X219419D01*
X218895Y58399D01*
Y60498D01*
X222043Y57874D02*
X223093D01*
X222568D01*
Y61023D01*
X222043Y60498D01*
X227816Y58924D02*
X229915D01*
X227816Y59973D02*
X229915D01*
X234113Y59448D02*
X236212D01*
X235162Y60498D02*
Y58399D01*
X237261Y57874D02*
X238311D01*
X237786D01*
Y61023D01*
X237261Y60498D01*
X241984Y61023D02*
X239885D01*
Y59448D01*
X240935Y59973D01*
X241459D01*
X241984Y59448D01*
Y58399D01*
X241459Y57874D01*
X240410D01*
X239885Y58399D01*
X243034Y61023D02*
Y58924D01*
X244083Y57874D01*
X245133Y58924D01*
Y61023D01*
X67589Y258574D02*
X68639D01*
X68114D01*
Y255426D01*
X67589D01*
X68639D01*
X72312Y258050D02*
X71787Y258574D01*
X70738D01*
X70213Y258050D01*
Y255950D01*
X70738Y255426D01*
X71787D01*
X72312Y255950D01*
X73361Y255426D02*
X74411D01*
X73886D01*
Y258574D01*
X73361Y258050D01*
X444574Y121347D02*
Y119248D01*
Y120297D01*
X441426D01*
Y118198D02*
X444574D01*
Y116624D01*
X444050Y116099D01*
X443000D01*
X442475Y116624D01*
Y118198D01*
X441426Y112951D02*
Y115050D01*
X443525Y112951D01*
X444050D01*
X444574Y113475D01*
Y114525D01*
X444050Y115050D01*
Y111901D02*
X444574Y111376D01*
Y110327D01*
X444050Y109802D01*
X441951D01*
X441426Y110327D01*
Y111376D01*
X441951Y111901D01*
X444050D01*
X444574Y108752D02*
Y106653D01*
X444050D01*
X441951Y108752D01*
X441426D01*
X469653Y62574D02*
X471752D01*
X470703D01*
Y59426D01*
X472802D02*
Y62574D01*
X474376D01*
X474901Y62050D01*
Y61000D01*
X474376Y60475D01*
X472802D01*
X478050Y59426D02*
X475950D01*
X478050Y61525D01*
Y62050D01*
X477525Y62574D01*
X476475D01*
X475950Y62050D01*
X479099D02*
X479624Y62574D01*
X480673D01*
X481198Y62050D01*
Y59951D01*
X480673Y59426D01*
X479624D01*
X479099Y59951D01*
Y62050D01*
X484347Y62574D02*
X483297Y62050D01*
X482248Y61000D01*
Y59951D01*
X482772Y59426D01*
X483822D01*
X484347Y59951D01*
Y60475D01*
X483822Y61000D01*
X482248D01*
X373574Y109347D02*
Y107248D01*
Y108297D01*
X370426D01*
Y106198D02*
X373574D01*
Y104624D01*
X373049Y104099D01*
X372000D01*
X371475Y104624D01*
Y106198D01*
X370426Y100951D02*
Y103050D01*
X372525Y100951D01*
X373049D01*
X373574Y101475D01*
Y102525D01*
X373049Y103050D01*
Y99901D02*
X373574Y99376D01*
Y98327D01*
X373049Y97802D01*
X370951D01*
X370426Y98327D01*
Y99376D01*
X370951Y99901D01*
X373049D01*
X373574Y94653D02*
Y96752D01*
X372000D01*
X372525Y95703D01*
Y95178D01*
X372000Y94653D01*
X370951D01*
X370426Y95178D01*
Y96228D01*
X370951Y96752D01*
X373574Y133347D02*
Y131248D01*
Y132297D01*
X370426D01*
Y130198D02*
X373574D01*
Y128624D01*
X373049Y128099D01*
X372000D01*
X371475Y128624D01*
Y130198D01*
X370426Y124951D02*
Y127050D01*
X372525Y124951D01*
X373049D01*
X373574Y125475D01*
Y126525D01*
X373049Y127050D01*
Y123901D02*
X373574Y123376D01*
Y122327D01*
X373049Y121802D01*
X370951D01*
X370426Y122327D01*
Y123376D01*
X370951Y123901D01*
X373049D01*
X370426Y119178D02*
X373574D01*
X372000Y120752D01*
Y118653D01*
X216653Y99574D02*
X218752D01*
X217703D01*
Y96426D01*
X219802D02*
Y99574D01*
X221376D01*
X221901Y99050D01*
Y98000D01*
X221376Y97475D01*
X219802D01*
X225049Y96426D02*
X222951D01*
X225049Y98525D01*
Y99050D01*
X224525Y99574D01*
X223475D01*
X222951Y99050D01*
X226099D02*
X226624Y99574D01*
X227673D01*
X228198Y99050D01*
Y96951D01*
X227673Y96426D01*
X226624D01*
X226099Y96951D01*
Y99050D01*
X229248D02*
X229772Y99574D01*
X230822D01*
X231347Y99050D01*
Y98525D01*
X230822Y98000D01*
X230297D01*
X230822D01*
X231347Y97475D01*
Y96951D01*
X230822Y96426D01*
X229772D01*
X229248Y96951D01*
X216653Y111574D02*
X218752D01*
X217703D01*
Y108426D01*
X219802D02*
Y111574D01*
X221376D01*
X221901Y111049D01*
Y110000D01*
X221376Y109475D01*
X219802D01*
X225049Y108426D02*
X222951D01*
X225049Y110525D01*
Y111049D01*
X224525Y111574D01*
X223475D01*
X222951Y111049D01*
X226099D02*
X226624Y111574D01*
X227673D01*
X228198Y111049D01*
Y108950D01*
X227673Y108426D01*
X226624D01*
X226099Y108950D01*
Y111049D01*
X231347Y108426D02*
X229248D01*
X231347Y110525D01*
Y111049D01*
X230822Y111574D01*
X229772D01*
X229248Y111049D01*
X218178Y123574D02*
X220277D01*
X219228D01*
Y120426D01*
X221327D02*
Y123574D01*
X222901D01*
X223426Y123049D01*
Y122000D01*
X222901Y121475D01*
X221327D01*
X226574Y120426D02*
X224475D01*
X226574Y122525D01*
Y123049D01*
X226049Y123574D01*
X225000D01*
X224475Y123049D01*
X227624D02*
X228149Y123574D01*
X229198D01*
X229723Y123049D01*
Y120950D01*
X229198Y120426D01*
X228149D01*
X227624Y120950D01*
Y123049D01*
X230772Y120426D02*
X231822D01*
X231297D01*
Y123574D01*
X230772Y123049D01*
X444574Y200084D02*
Y197985D01*
Y199035D01*
X441426D01*
Y196936D02*
X444574D01*
Y195361D01*
X444050Y194837D01*
X443000D01*
X442475Y195361D01*
Y196936D01*
X441426Y193787D02*
Y192738D01*
Y193262D01*
X444574D01*
X444050Y193787D01*
Y191163D02*
X444574Y190639D01*
Y189589D01*
X444050Y189064D01*
X441951D01*
X441426Y189589D01*
Y190639D01*
X441951Y191163D01*
X444050D01*
X444574Y188015D02*
Y185916D01*
X444050D01*
X441951Y188015D01*
X441426D01*
X485084Y245426D02*
X482985D01*
X484035D01*
Y248574D01*
X481936D02*
Y245426D01*
X480361D01*
X479837Y245951D01*
Y247000D01*
X480361Y247525D01*
X481936D01*
X478787Y248574D02*
X477738D01*
X478262D01*
Y245426D01*
X478787Y245951D01*
X476163D02*
X475638Y245426D01*
X474589D01*
X474064Y245951D01*
Y248049D01*
X474589Y248574D01*
X475638D01*
X476163Y248049D01*
Y245951D01*
X470916Y245426D02*
X471965Y245951D01*
X473015Y247000D01*
Y248049D01*
X472490Y248574D01*
X471440D01*
X470916Y248049D01*
Y247525D01*
X471440Y247000D01*
X473015D01*
X373574Y188084D02*
Y185985D01*
Y187035D01*
X370426D01*
Y184936D02*
X373574D01*
Y183361D01*
X373049Y182837D01*
X372000D01*
X371475Y183361D01*
Y184936D01*
X370426Y181787D02*
Y180738D01*
Y181262D01*
X373574D01*
X373049Y181787D01*
Y179163D02*
X373574Y178639D01*
Y177589D01*
X373049Y177064D01*
X370951D01*
X370426Y177589D01*
Y178639D01*
X370951Y179163D01*
X373049D01*
X373574Y173916D02*
Y176015D01*
X372000D01*
X372525Y174965D01*
Y174440D01*
X372000Y173916D01*
X370951D01*
X370426Y174440D01*
Y175490D01*
X370951Y176015D01*
X373574Y212084D02*
Y209985D01*
Y211035D01*
X370426D01*
Y208936D02*
X373574D01*
Y207361D01*
X373049Y206837D01*
X372000D01*
X371475Y207361D01*
Y208936D01*
X370426Y205787D02*
Y204738D01*
Y205262D01*
X373574D01*
X373049Y205787D01*
Y203163D02*
X373574Y202639D01*
Y201589D01*
X373049Y201064D01*
X370951D01*
X370426Y201589D01*
Y202639D01*
X370951Y203163D01*
X373049D01*
X370426Y198440D02*
X373574D01*
X372000Y200015D01*
Y197916D01*
X217916Y186574D02*
X220015D01*
X218965D01*
Y183426D01*
X221064D02*
Y186574D01*
X222639D01*
X223163Y186049D01*
Y185000D01*
X222639Y184475D01*
X221064D01*
X224213Y183426D02*
X225262D01*
X224738D01*
Y186574D01*
X224213Y186049D01*
X226837D02*
X227361Y186574D01*
X228411D01*
X228936Y186049D01*
Y183950D01*
X228411Y183426D01*
X227361D01*
X226837Y183950D01*
Y186049D01*
X229985D02*
X230510Y186574D01*
X231560D01*
X232084Y186049D01*
Y185525D01*
X231560Y185000D01*
X231035D01*
X231560D01*
X232084Y184475D01*
Y183950D01*
X231560Y183426D01*
X230510D01*
X229985Y183950D01*
X217916Y198574D02*
X220015D01*
X218965D01*
Y195426D01*
X221064D02*
Y198574D01*
X222639D01*
X223163Y198049D01*
Y197000D01*
X222639Y196475D01*
X221064D01*
X224213Y195426D02*
X225262D01*
X224738D01*
Y198574D01*
X224213Y198049D01*
X226837D02*
X227361Y198574D01*
X228411D01*
X228936Y198049D01*
Y195950D01*
X228411Y195426D01*
X227361D01*
X226837Y195950D01*
Y198049D01*
X232084Y195426D02*
X229985D01*
X232084Y197525D01*
Y198049D01*
X231560Y198574D01*
X230510D01*
X229985Y198049D01*
X218440Y210574D02*
X220539D01*
X219490D01*
Y207426D01*
X221589D02*
Y210574D01*
X223163D01*
X223688Y210050D01*
Y209000D01*
X223163Y208475D01*
X221589D01*
X224738Y207426D02*
X225787D01*
X225262D01*
Y210574D01*
X224738Y210050D01*
X227361D02*
X227886Y210574D01*
X228936D01*
X229461Y210050D01*
Y207950D01*
X228936Y207426D01*
X227886D01*
X227361Y207950D01*
Y210050D01*
X230510Y207426D02*
X231560D01*
X231035D01*
Y210574D01*
X230510Y210050D01*
X135510Y177426D02*
X133411D01*
X134460D01*
Y180574D01*
X132361D02*
Y177426D01*
X130787D01*
X130262Y177951D01*
Y179000D01*
X130787Y179525D01*
X132361D01*
X129213Y180574D02*
X128163D01*
X128688D01*
Y177426D01*
X129213Y177951D01*
X126589Y180050D02*
X126064Y180574D01*
X125015D01*
X124490Y180050D01*
Y177951D01*
X125015Y177426D01*
X126064D01*
X126589Y177951D01*
Y178475D01*
X126064Y179000D01*
X124490D01*
X138426Y254490D02*
Y256589D01*
Y255539D01*
X141574D01*
Y257639D02*
X138426D01*
Y259213D01*
X138951Y259738D01*
X140000D01*
X140525Y259213D01*
Y257639D01*
X141574Y260787D02*
Y261837D01*
Y261312D01*
X138426D01*
X138951Y260787D01*
Y263411D02*
X138426Y263936D01*
Y264985D01*
X138951Y265510D01*
X139475D01*
X140000Y264985D01*
X140525Y265510D01*
X141050D01*
X141574Y264985D01*
Y263936D01*
X141050Y263411D01*
X140525D01*
X140000Y263936D01*
X139475Y263411D01*
X138951D01*
X140000Y263936D02*
Y264985D01*
X54574Y96510D02*
Y94411D01*
Y95460D01*
X51426D01*
Y93361D02*
X54574D01*
Y91787D01*
X54049Y91262D01*
X53000D01*
X52475Y91787D01*
Y93361D01*
X51426Y90213D02*
Y89163D01*
Y89688D01*
X54574D01*
X54049Y90213D01*
X54574Y87589D02*
Y85490D01*
X54049D01*
X51951Y87589D01*
X51426D01*
X140490Y156574D02*
X142589D01*
X141540D01*
Y153426D01*
X143639D02*
Y156574D01*
X145213D01*
X145738Y156050D01*
Y155000D01*
X145213Y154475D01*
X143639D01*
X146787Y153426D02*
X147837D01*
X147312D01*
Y156574D01*
X146787Y156050D01*
X151510Y156574D02*
X150461Y156050D01*
X149411Y155000D01*
Y153951D01*
X149936Y153426D01*
X150985D01*
X151510Y153951D01*
Y154475D01*
X150985Y155000D01*
X149411D01*
X37426Y110490D02*
Y112589D01*
Y111539D01*
X40574D01*
Y113639D02*
X37426D01*
Y115213D01*
X37951Y115738D01*
X39000D01*
X39525Y115213D01*
Y113639D01*
X40574Y116787D02*
Y117837D01*
Y117312D01*
X37426D01*
X37951Y116787D01*
X37426Y121510D02*
Y119411D01*
X39000D01*
X38475Y120460D01*
Y120985D01*
X39000Y121510D01*
X40049D01*
X40574Y120985D01*
Y119936D01*
X40049Y119411D01*
X40426Y134490D02*
Y136589D01*
Y135539D01*
X43574D01*
Y137639D02*
X40426D01*
Y139213D01*
X40951Y139738D01*
X42000D01*
X42525Y139213D01*
Y137639D01*
X43574Y140787D02*
Y141837D01*
Y141312D01*
X40426D01*
X40951Y140787D01*
X43574Y144985D02*
X40426D01*
X42000Y143411D01*
Y145510D01*
X49510Y51426D02*
X47411D01*
X48461D01*
Y54574D01*
X46361D02*
Y51426D01*
X44787D01*
X44262Y51951D01*
Y53000D01*
X44787Y53525D01*
X46361D01*
X43213Y54574D02*
X42163D01*
X42688D01*
Y51426D01*
X43213Y51951D01*
X40589D02*
X40064Y51426D01*
X39015D01*
X38490Y51951D01*
Y52475D01*
X39015Y53000D01*
X39540D01*
X39015D01*
X38490Y53525D01*
Y54049D01*
X39015Y54574D01*
X40064D01*
X40589Y54049D01*
X37426Y158490D02*
Y160589D01*
Y159539D01*
X40574D01*
Y161639D02*
X37426D01*
Y163213D01*
X37951Y163738D01*
X39000D01*
X39525Y163213D01*
Y161639D01*
X40574Y164787D02*
Y165837D01*
Y165312D01*
X37426D01*
X37951Y164787D01*
X40574Y169510D02*
Y167411D01*
X38475Y169510D01*
X37951D01*
X37426Y168985D01*
Y167936D01*
X37951Y167411D01*
X67985Y87426D02*
X65886D01*
X66936D01*
Y90574D01*
X64837D02*
Y87426D01*
X63262D01*
X62738Y87950D01*
Y89000D01*
X63262Y89525D01*
X64837D01*
X61688Y90574D02*
X60638D01*
X61163D01*
Y87426D01*
X61688Y87950D01*
X59064Y90574D02*
X58015D01*
X58539D01*
Y87426D01*
X59064Y87950D01*
X49510Y37426D02*
X47411D01*
X48461D01*
Y40574D01*
X46361D02*
Y37426D01*
X44787D01*
X44262Y37951D01*
Y39000D01*
X44787Y39525D01*
X46361D01*
X43213Y40574D02*
X42163D01*
X42688D01*
Y37426D01*
X43213Y37951D01*
X40589D02*
X40064Y37426D01*
X39015D01*
X38490Y37951D01*
Y40049D01*
X39015Y40574D01*
X40064D01*
X40589Y40049D01*
Y37951D01*
X134426Y192802D02*
Y194901D01*
Y193851D01*
X137574D01*
Y195950D02*
X134426D01*
Y197525D01*
X134950Y198049D01*
X136000D01*
X136525Y197525D01*
Y195950D01*
X137049Y199099D02*
X137574Y199624D01*
Y200673D01*
X137049Y201198D01*
X134950D01*
X134426Y200673D01*
Y199624D01*
X134950Y199099D01*
X135475D01*
X136000Y199624D01*
Y201198D01*
X38802Y89574D02*
X40901D01*
X39851D01*
Y86426D01*
X41951D02*
Y89574D01*
X43525D01*
X44050Y89050D01*
Y88000D01*
X43525Y87475D01*
X41951D01*
X45099Y89050D02*
X45624Y89574D01*
X46673D01*
X47198Y89050D01*
Y88525D01*
X46673Y88000D01*
X47198Y87475D01*
Y86950D01*
X46673Y86426D01*
X45624D01*
X45099Y86950D01*
Y87475D01*
X45624Y88000D01*
X45099Y88525D01*
Y89050D01*
X45624Y88000D02*
X46673D01*
X82574Y114198D02*
Y112099D01*
Y113149D01*
X79426D01*
Y111049D02*
X82574D01*
Y109475D01*
X82050Y108950D01*
X81000D01*
X80475Y109475D01*
Y111049D01*
X82574Y107901D02*
Y105802D01*
X82050D01*
X79950Y107901D01*
X79426D01*
X55426Y134802D02*
Y136901D01*
Y135851D01*
X58574D01*
Y137951D02*
X55426D01*
Y139525D01*
X55950Y140050D01*
X57000D01*
X57525Y139525D01*
Y137951D01*
X55426Y143198D02*
X55950Y142149D01*
X57000Y141099D01*
X58049D01*
X58574Y141624D01*
Y142673D01*
X58049Y143198D01*
X57525D01*
X57000Y142673D01*
Y141099D01*
X160574Y201198D02*
Y199099D01*
Y200149D01*
X157426D01*
Y198049D02*
X160574D01*
Y196475D01*
X160049Y195950D01*
X159000D01*
X158475Y196475D01*
Y198049D01*
X160574Y192802D02*
Y194901D01*
X159000D01*
X159525Y193851D01*
Y193327D01*
X159000Y192802D01*
X157950D01*
X157426Y193327D01*
Y194376D01*
X157950Y194901D01*
X81574Y162198D02*
Y160099D01*
Y161149D01*
X78426D01*
Y159049D02*
X81574D01*
Y157475D01*
X81050Y156950D01*
X80000D01*
X79475Y157475D01*
Y159049D01*
X78426Y154327D02*
X81574D01*
X80000Y155901D01*
Y153802D01*
X176574Y170198D02*
Y168099D01*
Y169149D01*
X173426D01*
Y167050D02*
X176574D01*
Y165475D01*
X176049Y164951D01*
X175000D01*
X174475Y165475D01*
Y167050D01*
X176049Y163901D02*
X176574Y163376D01*
Y162327D01*
X176049Y161802D01*
X175525D01*
X175000Y162327D01*
Y162851D01*
Y162327D01*
X174475Y161802D01*
X173951D01*
X173426Y162327D01*
Y163376D01*
X173951Y163901D01*
X63198Y186426D02*
X61099D01*
X62149D01*
Y189574D01*
X60049D02*
Y186426D01*
X58475D01*
X57951Y186951D01*
Y188000D01*
X58475Y188525D01*
X60049D01*
X54802Y189574D02*
X56901D01*
X54802Y187475D01*
Y186951D01*
X55327Y186426D01*
X56376D01*
X56901Y186951D01*
X192574Y196673D02*
Y194574D01*
Y195624D01*
X189426D01*
Y193525D02*
X192574D01*
Y191951D01*
X192050Y191426D01*
X191000D01*
X190475Y191951D01*
Y193525D01*
X189426Y190376D02*
Y189327D01*
Y189851D01*
X192574D01*
X192050Y190376D01*
X52901Y77574D02*
X55000D01*
X53951D01*
Y74426D01*
X56050D02*
X57099D01*
X56574D01*
Y77574D01*
X56050Y77049D01*
X360510Y79574D02*
Y76426D01*
X358936D01*
X358411Y76951D01*
Y78000D01*
X358936Y78525D01*
X360510D01*
X359460D02*
X358411Y79574D01*
X355262D02*
X357361D01*
X355262Y77475D01*
Y76951D01*
X355787Y76426D01*
X356837D01*
X357361Y76951D01*
X354213Y79574D02*
X353163D01*
X353688D01*
Y76426D01*
X354213Y76951D01*
X351589D02*
X351064Y76426D01*
X350015D01*
X349490Y76951D01*
Y77475D01*
X350015Y78000D01*
X350539D01*
X350015D01*
X349490Y78525D01*
Y79049D01*
X350015Y79574D01*
X351064D01*
X351589Y79049D01*
X325490Y145426D02*
Y148574D01*
X327064D01*
X327589Y148049D01*
Y147000D01*
X327064Y146475D01*
X325490D01*
X326539D02*
X327589Y145426D01*
X330738D02*
X328639D01*
X330738Y147525D01*
Y148049D01*
X330213Y148574D01*
X329163D01*
X328639Y148049D01*
X331787Y145426D02*
X332837D01*
X332312D01*
Y148574D01*
X331787Y148049D01*
X336510Y145426D02*
X334411D01*
X336510Y147525D01*
Y148049D01*
X335985Y148574D01*
X334936D01*
X334411Y148049D01*
X474510Y18574D02*
Y15426D01*
X472936D01*
X472411Y15950D01*
Y17000D01*
X472936Y17525D01*
X474510D01*
X473460D02*
X472411Y18574D01*
X469262D02*
X471361D01*
X469262Y16475D01*
Y15950D01*
X469787Y15426D01*
X470837D01*
X471361Y15950D01*
X468213Y18574D02*
X467163D01*
X467688D01*
Y15426D01*
X468213Y15950D01*
X465589D02*
X465064Y15426D01*
X464015D01*
X463490Y15950D01*
Y18049D01*
X464015Y18574D01*
X465064D01*
X465589Y18049D01*
Y15950D01*
X446772Y18574D02*
Y15426D01*
X445198D01*
X444673Y15950D01*
Y17000D01*
X445198Y17525D01*
X446772D01*
X445723D02*
X444673Y18574D01*
X441525D02*
X443624D01*
X441525Y16475D01*
Y15950D01*
X442050Y15426D01*
X443099D01*
X443624Y15950D01*
X440475D02*
X439951Y15426D01*
X438901D01*
X438376Y15950D01*
Y18049D01*
X438901Y18574D01*
X439951D01*
X440475Y18049D01*
Y15950D01*
X437327Y18049D02*
X436802Y18574D01*
X435752D01*
X435228Y18049D01*
Y15950D01*
X435752Y15426D01*
X436802D01*
X437327Y15950D01*
Y16475D01*
X436802Y17000D01*
X435228D01*
X419772Y18574D02*
Y15426D01*
X418198D01*
X417673Y15950D01*
Y17000D01*
X418198Y17525D01*
X419772D01*
X418723D02*
X417673Y18574D01*
X414525D02*
X416624D01*
X414525Y16475D01*
Y15950D01*
X415050Y15426D01*
X416099D01*
X416624Y15950D01*
X413475D02*
X412951Y15426D01*
X411901D01*
X411376Y15950D01*
Y18049D01*
X411901Y18574D01*
X412951D01*
X413475Y18049D01*
Y15950D01*
X410327D02*
X409802Y15426D01*
X408752D01*
X408228Y15950D01*
Y16475D01*
X408752Y17000D01*
X408228Y17525D01*
Y18049D01*
X408752Y18574D01*
X409802D01*
X410327Y18049D01*
Y17525D01*
X409802Y17000D01*
X410327Y16475D01*
Y15950D01*
X409802Y17000D02*
X408752D01*
X391772Y18574D02*
Y15426D01*
X390198D01*
X389673Y15950D01*
Y17000D01*
X390198Y17525D01*
X391772D01*
X390723D02*
X389673Y18574D01*
X386525D02*
X388624D01*
X386525Y16475D01*
Y15950D01*
X387050Y15426D01*
X388099D01*
X388624Y15950D01*
X385475D02*
X384950Y15426D01*
X383901D01*
X383376Y15950D01*
Y18049D01*
X383901Y18574D01*
X384950D01*
X385475Y18049D01*
Y15950D01*
X382327Y15426D02*
X380228D01*
Y15950D01*
X382327Y18049D01*
Y18574D01*
X363772D02*
Y15426D01*
X362198D01*
X361673Y15950D01*
Y17000D01*
X362198Y17525D01*
X363772D01*
X362723D02*
X361673Y18574D01*
X358525D02*
X360624D01*
X358525Y16475D01*
Y15950D01*
X359050Y15426D01*
X360099D01*
X360624Y15950D01*
X357475D02*
X356950Y15426D01*
X355901D01*
X355376Y15950D01*
Y18049D01*
X355901Y18574D01*
X356950D01*
X357475Y18049D01*
Y15950D01*
X352228Y15426D02*
X353277Y15950D01*
X354327Y17000D01*
Y18049D01*
X353802Y18574D01*
X352752D01*
X352228Y18049D01*
Y17525D01*
X352752Y17000D01*
X354327D01*
X336772Y18574D02*
Y15426D01*
X335198D01*
X334673Y15950D01*
Y17000D01*
X335198Y17525D01*
X336772D01*
X335723D02*
X334673Y18574D01*
X331525D02*
X333624D01*
X331525Y16475D01*
Y15950D01*
X332049Y15426D01*
X333099D01*
X333624Y15950D01*
X330475D02*
X329950Y15426D01*
X328901D01*
X328376Y15950D01*
Y18049D01*
X328901Y18574D01*
X329950D01*
X330475Y18049D01*
Y15950D01*
X325228Y15426D02*
X327327D01*
Y17000D01*
X326277Y16475D01*
X325752D01*
X325228Y17000D01*
Y18049D01*
X325752Y18574D01*
X326802D01*
X327327Y18049D01*
X308772Y18574D02*
Y15426D01*
X307198D01*
X306673Y15950D01*
Y17000D01*
X307198Y17525D01*
X308772D01*
X307723D02*
X306673Y18574D01*
X303525D02*
X305624D01*
X303525Y16475D01*
Y15950D01*
X304049Y15426D01*
X305099D01*
X305624Y15950D01*
X302475D02*
X301951Y15426D01*
X300901D01*
X300376Y15950D01*
Y18049D01*
X300901Y18574D01*
X301951D01*
X302475Y18049D01*
Y15950D01*
X297752Y18574D02*
Y15426D01*
X299327Y17000D01*
X297228D01*
X281772Y18574D02*
Y15426D01*
X280198D01*
X279673Y15950D01*
Y17000D01*
X280198Y17525D01*
X281772D01*
X280723D02*
X279673Y18574D01*
X276525D02*
X278624D01*
X276525Y16475D01*
Y15950D01*
X277049Y15426D01*
X278099D01*
X278624Y15950D01*
X275475D02*
X274951Y15426D01*
X273901D01*
X273376Y15950D01*
Y18049D01*
X273901Y18574D01*
X274951D01*
X275475Y18049D01*
Y15950D01*
X272327D02*
X271802Y15426D01*
X270752D01*
X270228Y15950D01*
Y16475D01*
X270752Y17000D01*
X271277D01*
X270752D01*
X270228Y17525D01*
Y18049D01*
X270752Y18574D01*
X271802D01*
X272327Y18049D01*
X278574Y53228D02*
X275426D01*
Y54802D01*
X275951Y55327D01*
X277000D01*
X277525Y54802D01*
Y53228D01*
Y54277D02*
X278574Y55327D01*
Y58475D02*
Y56376D01*
X276475Y58475D01*
X275951D01*
X275426Y57951D01*
Y56901D01*
X275951Y56376D01*
Y59525D02*
X275426Y60049D01*
Y61099D01*
X275951Y61624D01*
X278049D01*
X278574Y61099D01*
Y60049D01*
X278049Y59525D01*
X275951D01*
X278574Y64772D02*
Y62673D01*
X276475Y64772D01*
X275951D01*
X275426Y64248D01*
Y63198D01*
X275951Y62673D01*
X336248Y79574D02*
Y76426D01*
X334673D01*
X334149Y76951D01*
Y78000D01*
X334673Y78525D01*
X336248D01*
X335198D02*
X334149Y79574D01*
X331000D02*
X333099D01*
X331000Y77475D01*
Y76951D01*
X331525Y76426D01*
X332574D01*
X333099Y76951D01*
X329950D02*
X329426Y76426D01*
X328376D01*
X327851Y76951D01*
Y79049D01*
X328376Y79574D01*
X329426D01*
X329950Y79049D01*
Y76951D01*
X326802Y79574D02*
X325752D01*
X326277D01*
Y76426D01*
X326802Y76951D01*
X336248Y162574D02*
Y159426D01*
X334673D01*
X334149Y159950D01*
Y161000D01*
X334673Y161525D01*
X336248D01*
X335198D02*
X334149Y162574D01*
X333099D02*
X332049D01*
X332574D01*
Y159426D01*
X333099Y159950D01*
X330475Y162574D02*
X329426D01*
X329950D01*
Y159426D01*
X330475Y159950D01*
X327851D02*
X327327Y159426D01*
X326277D01*
X325752Y159950D01*
Y160475D01*
X326277Y161000D01*
X326802D01*
X326277D01*
X325752Y161525D01*
Y162049D01*
X326277Y162574D01*
X327327D01*
X327851Y162049D01*
X325752Y223426D02*
Y226574D01*
X327327D01*
X327851Y226049D01*
Y225000D01*
X327327Y224475D01*
X325752D01*
X326802D02*
X327851Y223426D01*
X328901D02*
X329950D01*
X329426D01*
Y226574D01*
X328901Y226049D01*
X331525Y223426D02*
X332574D01*
X332049D01*
Y226574D01*
X331525Y226049D01*
X336248Y223426D02*
X334149D01*
X336248Y225525D01*
Y226049D01*
X335723Y226574D01*
X334673D01*
X334149Y226049D01*
X463752Y288426D02*
Y291574D01*
X465327D01*
X465851Y291050D01*
Y290000D01*
X465327Y289475D01*
X463752D01*
X464802D02*
X465851Y288426D01*
X466901D02*
X467950D01*
X467426D01*
Y291574D01*
X466901Y291050D01*
X469525Y288426D02*
X470574D01*
X470049D01*
Y291574D01*
X469525Y291050D01*
X472149D02*
X472673Y291574D01*
X473723D01*
X474248Y291050D01*
Y288950D01*
X473723Y288426D01*
X472673D01*
X472149Y288950D01*
Y291050D01*
X435490Y288426D02*
Y291574D01*
X437064D01*
X437589Y291050D01*
Y290000D01*
X437064Y289475D01*
X435490D01*
X436540D02*
X437589Y288426D01*
X438639D02*
X439688D01*
X439163D01*
Y291574D01*
X438639Y291050D01*
X441262D02*
X441787Y291574D01*
X442837D01*
X443361Y291050D01*
Y288950D01*
X442837Y288426D01*
X441787D01*
X441262Y288950D01*
Y291050D01*
X444411Y288950D02*
X444936Y288426D01*
X445985D01*
X446510Y288950D01*
Y291050D01*
X445985Y291574D01*
X444936D01*
X444411Y291050D01*
Y290525D01*
X444936Y290000D01*
X446510D01*
X407490Y288426D02*
Y291574D01*
X409064D01*
X409589Y291050D01*
Y290000D01*
X409064Y289475D01*
X407490D01*
X408539D02*
X409589Y288426D01*
X410639D02*
X411688D01*
X411163D01*
Y291574D01*
X410639Y291050D01*
X413262D02*
X413787Y291574D01*
X414837D01*
X415361Y291050D01*
Y288950D01*
X414837Y288426D01*
X413787D01*
X413262Y288950D01*
Y291050D01*
X416411D02*
X416936Y291574D01*
X417985D01*
X418510Y291050D01*
Y290525D01*
X417985Y290000D01*
X418510Y289475D01*
Y288950D01*
X417985Y288426D01*
X416936D01*
X416411Y288950D01*
Y289475D01*
X416936Y290000D01*
X416411Y290525D01*
Y291050D01*
X416936Y290000D02*
X417985D01*
X380490Y288426D02*
Y291574D01*
X382064D01*
X382589Y291050D01*
Y290000D01*
X382064Y289475D01*
X380490D01*
X381540D02*
X382589Y288426D01*
X383639D02*
X384688D01*
X384163D01*
Y291574D01*
X383639Y291050D01*
X386262D02*
X386787Y291574D01*
X387837D01*
X388362Y291050D01*
Y288950D01*
X387837Y288426D01*
X386787D01*
X386262Y288950D01*
Y291050D01*
X389411Y291574D02*
X391510D01*
Y291050D01*
X389411Y288950D01*
Y288426D01*
X352490D02*
Y291574D01*
X354064D01*
X354589Y291050D01*
Y290000D01*
X354064Y289475D01*
X352490D01*
X353539D02*
X354589Y288426D01*
X355639D02*
X356688D01*
X356163D01*
Y291574D01*
X355639Y291050D01*
X358262D02*
X358787Y291574D01*
X359837D01*
X360362Y291050D01*
Y288950D01*
X359837Y288426D01*
X358787D01*
X358262Y288950D01*
Y291050D01*
X363510Y291574D02*
X362460Y291050D01*
X361411Y290000D01*
Y288950D01*
X361936Y288426D01*
X362985D01*
X363510Y288950D01*
Y289475D01*
X362985Y290000D01*
X361411D01*
X325490Y288426D02*
Y291574D01*
X327064D01*
X327589Y291050D01*
Y290000D01*
X327064Y289475D01*
X325490D01*
X326539D02*
X327589Y288426D01*
X328639D02*
X329688D01*
X329163D01*
Y291574D01*
X328639Y291050D01*
X331262D02*
X331787Y291574D01*
X332837D01*
X333362Y291050D01*
Y288950D01*
X332837Y288426D01*
X331787D01*
X331262Y288950D01*
Y291050D01*
X336510Y291574D02*
X334411D01*
Y290000D01*
X335460Y290525D01*
X335985D01*
X336510Y290000D01*
Y288950D01*
X335985Y288426D01*
X334936D01*
X334411Y288950D01*
X297490Y288426D02*
Y291574D01*
X299064D01*
X299589Y291050D01*
Y290000D01*
X299064Y289475D01*
X297490D01*
X298539D02*
X299589Y288426D01*
X300639D02*
X301688D01*
X301163D01*
Y291574D01*
X300639Y291050D01*
X303262D02*
X303787Y291574D01*
X304837D01*
X305362Y291050D01*
Y288950D01*
X304837Y288426D01*
X303787D01*
X303262Y288950D01*
Y291050D01*
X307985Y288426D02*
Y291574D01*
X306411Y290000D01*
X308510D01*
X270490Y288426D02*
Y291574D01*
X272064D01*
X272589Y291050D01*
Y290000D01*
X272064Y289475D01*
X270490D01*
X271539D02*
X272589Y288426D01*
X273639D02*
X274688D01*
X274163D01*
Y291574D01*
X273639Y291050D01*
X276262D02*
X276787Y291574D01*
X277837D01*
X278362Y291050D01*
Y288950D01*
X277837Y288426D01*
X276787D01*
X276262Y288950D01*
Y291050D01*
X279411D02*
X279936Y291574D01*
X280985D01*
X281510Y291050D01*
Y290525D01*
X280985Y290000D01*
X280461D01*
X280985D01*
X281510Y289475D01*
Y288950D01*
X280985Y288426D01*
X279936D01*
X279411Y288950D01*
X278574Y242490D02*
X275426D01*
Y244064D01*
X275951Y244589D01*
X277000D01*
X277525Y244064D01*
Y242490D01*
Y243540D02*
X278574Y244589D01*
Y245639D02*
Y246688D01*
Y246163D01*
X275426D01*
X275951Y245639D01*
Y248262D02*
X275426Y248787D01*
Y249837D01*
X275951Y250361D01*
X278049D01*
X278574Y249837D01*
Y248787D01*
X278049Y248262D01*
X275951D01*
X278574Y253510D02*
Y251411D01*
X276475Y253510D01*
X275951D01*
X275426Y252985D01*
Y251936D01*
X275951Y251411D01*
X359985Y162574D02*
Y159426D01*
X358411D01*
X357886Y159950D01*
Y161000D01*
X358411Y161525D01*
X359985D01*
X358936D02*
X357886Y162574D01*
X356837D02*
X355787D01*
X356312D01*
Y159426D01*
X356837Y159950D01*
X354213D02*
X353688Y159426D01*
X352639D01*
X352114Y159950D01*
Y162049D01*
X352639Y162574D01*
X353688D01*
X354213Y162049D01*
Y159950D01*
X351064Y162574D02*
X350015D01*
X350539D01*
Y159426D01*
X351064Y159950D01*
X63064Y76426D02*
Y79574D01*
X64639D01*
X65163Y79049D01*
Y78000D01*
X64639Y77475D01*
X63064D01*
X64114D02*
X65163Y76426D01*
X66213D02*
X67262D01*
X66738D01*
Y79574D01*
X66213Y79049D01*
X68837Y76951D02*
X69362Y76426D01*
X70411D01*
X70936Y76951D01*
Y79049D01*
X70411Y79574D01*
X69362D01*
X68837Y79049D01*
Y78525D01*
X69362Y78000D01*
X70936D01*
X142064Y72426D02*
Y75574D01*
X143639D01*
X144163Y75050D01*
Y74000D01*
X143639Y73475D01*
X142064D01*
X143114D02*
X144163Y72426D01*
X145213D02*
X146262D01*
X145738D01*
Y75574D01*
X145213Y75050D01*
X147837D02*
X148361Y75574D01*
X149411D01*
X149936Y75050D01*
Y74525D01*
X149411Y74000D01*
X149936Y73475D01*
Y72951D01*
X149411Y72426D01*
X148361D01*
X147837Y72951D01*
Y73475D01*
X148361Y74000D01*
X147837Y74525D01*
Y75050D01*
X148361Y74000D02*
X149411D01*
X160936Y136574D02*
Y133426D01*
X159361D01*
X158837Y133950D01*
Y135000D01*
X159361Y135525D01*
X160936D01*
X159886D02*
X158837Y136574D01*
X157787D02*
X156738D01*
X157262D01*
Y133426D01*
X157787Y133950D01*
X155163Y133426D02*
X153064D01*
Y133950D01*
X155163Y136049D01*
Y136574D01*
X130064Y72426D02*
Y75574D01*
X131639D01*
X132163Y75050D01*
Y74000D01*
X131639Y73475D01*
X130064D01*
X131114D02*
X132163Y72426D01*
X133213D02*
X134262D01*
X133738D01*
Y75574D01*
X133213Y75050D01*
X137936Y75574D02*
X136886Y75050D01*
X135837Y74000D01*
Y72951D01*
X136361Y72426D01*
X137411D01*
X137936Y72951D01*
Y73475D01*
X137411Y74000D01*
X135837D01*
X48426Y78936D02*
X51574D01*
Y77361D01*
X51050Y76837D01*
X50000D01*
X49475Y77361D01*
Y78936D01*
Y77886D02*
X48426Y76837D01*
Y75787D02*
Y74738D01*
Y75262D01*
X51574D01*
X51050Y75787D01*
X51574Y71064D02*
Y73163D01*
X50000D01*
X50525Y72114D01*
Y71589D01*
X50000Y71064D01*
X48950D01*
X48426Y71589D01*
Y72638D01*
X48950Y73163D01*
X75064Y72426D02*
Y75574D01*
X76639D01*
X77163Y75050D01*
Y74000D01*
X76639Y73475D01*
X75064D01*
X76114D02*
X77163Y72426D01*
X78213D02*
X79262D01*
X78738D01*
Y75574D01*
X78213Y75050D01*
X82411Y72426D02*
Y75574D01*
X80837Y74000D01*
X82936D01*
X79426Y102936D02*
X82574D01*
Y101361D01*
X82050Y100837D01*
X81000D01*
X80475Y101361D01*
Y102936D01*
Y101886D02*
X79426Y100837D01*
Y99787D02*
Y98738D01*
Y99262D01*
X82574D01*
X82050Y99787D01*
Y97163D02*
X82574Y96639D01*
Y95589D01*
X82050Y95064D01*
X81525D01*
X81000Y95589D01*
Y96114D01*
Y95589D01*
X80475Y95064D01*
X79950D01*
X79426Y95589D01*
Y96639D01*
X79950Y97163D01*
X69936Y113574D02*
Y110426D01*
X68361D01*
X67837Y110951D01*
Y112000D01*
X68361Y112525D01*
X69936D01*
X68886D02*
X67837Y113574D01*
X66787D02*
X65738D01*
X66262D01*
Y110426D01*
X66787Y110951D01*
X62064Y113574D02*
X64163D01*
X62064Y111475D01*
Y110951D01*
X62589Y110426D01*
X63639D01*
X64163Y110951D01*
X55411Y112574D02*
Y109426D01*
X53837D01*
X53312Y109950D01*
Y111000D01*
X53837Y111525D01*
X55411D01*
X54361D02*
X53312Y112574D01*
X52262D02*
X51213D01*
X51738D01*
Y109426D01*
X52262Y109950D01*
X49639Y112574D02*
X48589D01*
X49114D01*
Y109426D01*
X49639Y109950D01*
X80426Y133936D02*
X83574D01*
Y132361D01*
X83049Y131837D01*
X82000D01*
X81475Y132361D01*
Y133936D01*
Y132886D02*
X80426Y131837D01*
Y130787D02*
Y129738D01*
Y130262D01*
X83574D01*
X83049Y130787D01*
Y128163D02*
X83574Y127639D01*
Y126589D01*
X83049Y126064D01*
X80950D01*
X80426Y126589D01*
Y127639D01*
X80950Y128163D01*
X83049D01*
X49376Y134426D02*
Y137574D01*
X50950D01*
X51475Y137049D01*
Y136000D01*
X50950Y135475D01*
X49376D01*
X50426D02*
X51475Y134426D01*
X52525Y134950D02*
X53049Y134426D01*
X54099D01*
X54624Y134950D01*
Y137049D01*
X54099Y137574D01*
X53049D01*
X52525Y137049D01*
Y136525D01*
X53049Y136000D01*
X54624D01*
X80426Y147624D02*
X83574D01*
Y146049D01*
X83049Y145525D01*
X82000D01*
X81475Y146049D01*
Y147624D01*
Y146574D02*
X80426Y145525D01*
X83049Y144475D02*
X83574Y143950D01*
Y142901D01*
X83049Y142376D01*
X82525D01*
X82000Y142901D01*
X81475Y142376D01*
X80950D01*
X80426Y142901D01*
Y143950D01*
X80950Y144475D01*
X81475D01*
X82000Y143950D01*
X82525Y144475D01*
X83049D01*
X82000Y143950D02*
Y142901D01*
X68376Y182426D02*
Y185574D01*
X69950D01*
X70475Y185049D01*
Y184000D01*
X69950Y183475D01*
X68376D01*
X69426D02*
X70475Y182426D01*
X71525Y185574D02*
X73624D01*
Y185049D01*
X71525Y182950D01*
Y182426D01*
X48376D02*
Y185574D01*
X49951D01*
X50475Y185049D01*
Y184000D01*
X49951Y183475D01*
X48376D01*
X49426D02*
X50475Y182426D01*
X53624Y185574D02*
X52574Y185049D01*
X51525Y184000D01*
Y182950D01*
X52049Y182426D01*
X53099D01*
X53624Y182950D01*
Y183475D01*
X53099Y184000D01*
X51525D01*
X69624Y160574D02*
Y157426D01*
X68050D01*
X67525Y157950D01*
Y159000D01*
X68050Y159525D01*
X69624D01*
X68574D02*
X67525Y160574D01*
X64376Y157426D02*
X66475D01*
Y159000D01*
X65426Y158475D01*
X64901D01*
X64376Y159000D01*
Y160049D01*
X64901Y160574D01*
X65951D01*
X66475Y160049D01*
X54624Y160574D02*
Y157426D01*
X53049D01*
X52525Y157950D01*
Y159000D01*
X53049Y159525D01*
X54624D01*
X53574D02*
X52525Y160574D01*
X49901D02*
Y157426D01*
X51475Y159000D01*
X49376D01*
X96376Y265426D02*
Y268574D01*
X97951D01*
X98475Y268050D01*
Y267000D01*
X97951Y266475D01*
X96376D01*
X97426D02*
X98475Y265426D01*
X99525Y268050D02*
X100049Y268574D01*
X101099D01*
X101624Y268050D01*
Y267525D01*
X101099Y267000D01*
X100574D01*
X101099D01*
X101624Y266475D01*
Y265950D01*
X101099Y265426D01*
X100049D01*
X99525Y265950D01*
X170376Y84426D02*
Y87574D01*
X171950D01*
X172475Y87050D01*
Y86000D01*
X171950Y85475D01*
X170376D01*
X171426D02*
X172475Y84426D01*
X175624D02*
X173525D01*
X175624Y86525D01*
Y87050D01*
X175099Y87574D01*
X174049D01*
X173525Y87050D01*
X119901Y276426D02*
Y279574D01*
X121475D01*
X122000Y279049D01*
Y278000D01*
X121475Y277475D01*
X119901D01*
X120950D02*
X122000Y276426D01*
X123049D02*
X124099D01*
X123574D01*
Y279574D01*
X123049Y279049D01*
X195574Y231099D02*
X192426D01*
Y229000D01*
Y227951D02*
Y226901D01*
Y227426D01*
X195574D01*
X195050Y227951D01*
X109936Y48426D02*
X108886D01*
X109411D01*
Y51574D01*
X109936D01*
X108886D01*
X105213Y48950D02*
X105738Y48426D01*
X106787D01*
X107312Y48950D01*
Y51050D01*
X106787Y51574D01*
X105738D01*
X105213Y51050D01*
X102589Y51574D02*
Y48426D01*
X104163Y50000D01*
X102064D01*
X109936Y74426D02*
X108886D01*
X109411D01*
Y77574D01*
X109936D01*
X108886D01*
X105213Y74950D02*
X105738Y74426D01*
X106787D01*
X107312Y74950D01*
Y77049D01*
X106787Y77574D01*
X105738D01*
X105213Y77049D01*
X104163Y74950D02*
X103639Y74426D01*
X102589D01*
X102064Y74950D01*
Y75475D01*
X102589Y76000D01*
X103114D01*
X102589D01*
X102064Y76525D01*
Y77049D01*
X102589Y77574D01*
X103639D01*
X104163Y77049D01*
X103064Y165574D02*
X104114D01*
X103589D01*
Y162426D01*
X103064D01*
X104114D01*
X107787Y165050D02*
X107262Y165574D01*
X106213D01*
X105688Y165050D01*
Y162951D01*
X106213Y162426D01*
X107262D01*
X107787Y162951D01*
X110936Y162426D02*
X108837D01*
X110936Y164525D01*
Y165050D01*
X110411Y165574D01*
X109361D01*
X108837Y165050D01*
X392490Y136574D02*
Y133426D01*
X394064D01*
X394589Y133950D01*
Y136049D01*
X394064Y136574D01*
X392490D01*
X397738Y133426D02*
X395639D01*
X397738Y135525D01*
Y136049D01*
X397213Y136574D01*
X396163D01*
X395639Y136049D01*
X398787Y133426D02*
X399837D01*
X399312D01*
Y136574D01*
X398787Y136049D01*
X403510Y133426D02*
X401411D01*
X403510Y135525D01*
Y136049D01*
X402985Y136574D01*
X401936D01*
X401411Y136049D01*
X302574Y67985D02*
X299426D01*
Y66411D01*
X299951Y65886D01*
X302049D01*
X302574Y66411D01*
Y67985D01*
X299426Y62738D02*
Y64837D01*
X301525Y62738D01*
X302049D01*
X302574Y63262D01*
Y64312D01*
X302049Y64837D01*
X299426Y61688D02*
Y60638D01*
Y61163D01*
X302574D01*
X302049Y61688D01*
X299426Y59064D02*
Y58015D01*
Y58539D01*
X302574D01*
X302049Y59064D01*
X462490Y50574D02*
Y47426D01*
X464064D01*
X464589Y47951D01*
Y50050D01*
X464064Y50574D01*
X462490D01*
X467738Y47426D02*
X465639D01*
X467738Y49525D01*
Y50050D01*
X467213Y50574D01*
X466163D01*
X465639Y50050D01*
X468787Y47426D02*
X469837D01*
X469312D01*
Y50574D01*
X468787Y50050D01*
X471411D02*
X471936Y50574D01*
X472985D01*
X473510Y50050D01*
Y47951D01*
X472985Y47426D01*
X471936D01*
X471411Y47951D01*
Y50050D01*
X434228Y50574D02*
Y47426D01*
X435802D01*
X436327Y47951D01*
Y50050D01*
X435802Y50574D01*
X434228D01*
X439475Y47426D02*
X437376D01*
X439475Y49525D01*
Y50050D01*
X438950Y50574D01*
X437901D01*
X437376Y50050D01*
X440525D02*
X441049Y50574D01*
X442099D01*
X442624Y50050D01*
Y47951D01*
X442099Y47426D01*
X441049D01*
X440525Y47951D01*
Y50050D01*
X443673Y47951D02*
X444198Y47426D01*
X445248D01*
X445772Y47951D01*
Y50050D01*
X445248Y50574D01*
X444198D01*
X443673Y50050D01*
Y49525D01*
X444198Y49000D01*
X445772D01*
X407228Y50574D02*
Y47426D01*
X408802D01*
X409327Y47951D01*
Y50050D01*
X408802Y50574D01*
X407228D01*
X412475Y47426D02*
X410376D01*
X412475Y49525D01*
Y50050D01*
X411950Y50574D01*
X410901D01*
X410376Y50050D01*
X413525D02*
X414049Y50574D01*
X415099D01*
X415624Y50050D01*
Y47951D01*
X415099Y47426D01*
X414049D01*
X413525Y47951D01*
Y50050D01*
X416673D02*
X417198Y50574D01*
X418248D01*
X418772Y50050D01*
Y49525D01*
X418248Y49000D01*
X418772Y48475D01*
Y47951D01*
X418248Y47426D01*
X417198D01*
X416673Y47951D01*
Y48475D01*
X417198Y49000D01*
X416673Y49525D01*
Y50050D01*
X417198Y49000D02*
X418248D01*
X379228Y50574D02*
Y47426D01*
X380802D01*
X381327Y47951D01*
Y50050D01*
X380802Y50574D01*
X379228D01*
X384475Y47426D02*
X382376D01*
X384475Y49525D01*
Y50050D01*
X383950Y50574D01*
X382901D01*
X382376Y50050D01*
X385525D02*
X386050Y50574D01*
X387099D01*
X387624Y50050D01*
Y47951D01*
X387099Y47426D01*
X386050D01*
X385525Y47951D01*
Y50050D01*
X388673Y50574D02*
X390772D01*
Y50050D01*
X388673Y47951D01*
Y47426D01*
X352228Y50574D02*
Y47426D01*
X353802D01*
X354327Y47951D01*
Y50050D01*
X353802Y50574D01*
X352228D01*
X357475Y47426D02*
X355376D01*
X357475Y49525D01*
Y50050D01*
X356950Y50574D01*
X355901D01*
X355376Y50050D01*
X358525D02*
X359050Y50574D01*
X360099D01*
X360624Y50050D01*
Y47951D01*
X360099Y47426D01*
X359050D01*
X358525Y47951D01*
Y50050D01*
X363772Y50574D02*
X362723Y50050D01*
X361673Y49000D01*
Y47951D01*
X362198Y47426D01*
X363248D01*
X363772Y47951D01*
Y48475D01*
X363248Y49000D01*
X361673D01*
X324228Y50574D02*
Y47426D01*
X325802D01*
X326327Y47951D01*
Y50050D01*
X325802Y50574D01*
X324228D01*
X329475Y47426D02*
X327376D01*
X329475Y49525D01*
Y50050D01*
X328951Y50574D01*
X327901D01*
X327376Y50050D01*
X330525D02*
X331049Y50574D01*
X332099D01*
X332624Y50050D01*
Y47951D01*
X332099Y47426D01*
X331049D01*
X330525Y47951D01*
Y50050D01*
X335772Y50574D02*
X333673D01*
Y49000D01*
X334723Y49525D01*
X335248D01*
X335772Y49000D01*
Y47951D01*
X335248Y47426D01*
X334198D01*
X333673Y47951D01*
X297228Y50574D02*
Y47426D01*
X298802D01*
X299327Y47951D01*
Y50050D01*
X298802Y50574D01*
X297228D01*
X302475Y47426D02*
X300376D01*
X302475Y49525D01*
Y50050D01*
X301951Y50574D01*
X300901D01*
X300376Y50050D01*
X303525D02*
X304049Y50574D01*
X305099D01*
X305624Y50050D01*
Y47951D01*
X305099Y47426D01*
X304049D01*
X303525Y47951D01*
Y50050D01*
X308248Y47426D02*
Y50574D01*
X306673Y49000D01*
X308772D01*
X258426Y33228D02*
X261574D01*
Y34802D01*
X261050Y35327D01*
X258950D01*
X258426Y34802D01*
Y33228D01*
X261574Y38475D02*
Y36376D01*
X259475Y38475D01*
X258950D01*
X258426Y37951D01*
Y36901D01*
X258950Y36376D01*
Y39525D02*
X258426Y40049D01*
Y41099D01*
X258950Y41624D01*
X261050D01*
X261574Y41099D01*
Y40049D01*
X261050Y39525D01*
X258950D01*
Y42673D02*
X258426Y43198D01*
Y44248D01*
X258950Y44772D01*
X259475D01*
X260000Y44248D01*
Y43723D01*
Y44248D01*
X260525Y44772D01*
X261050D01*
X261574Y44248D01*
Y43198D01*
X261050Y42673D01*
X403772Y92426D02*
Y95574D01*
X402198D01*
X401673Y95050D01*
Y92950D01*
X402198Y92426D01*
X403772D01*
X398525Y95574D02*
X400624D01*
X398525Y93475D01*
Y92950D01*
X399049Y92426D01*
X400099D01*
X400624Y92950D01*
X397475D02*
X396951Y92426D01*
X395901D01*
X395376Y92950D01*
Y95050D01*
X395901Y95574D01*
X396951D01*
X397475Y95050D01*
Y92950D01*
X392228Y95574D02*
X394327D01*
X392228Y93475D01*
Y92950D01*
X392752Y92426D01*
X393802D01*
X394327Y92950D01*
X257426Y56752D02*
X260574D01*
Y58327D01*
X260050Y58851D01*
X257950D01*
X257426Y58327D01*
Y56752D01*
X260574Y62000D02*
Y59901D01*
X258475Y62000D01*
X257950D01*
X257426Y61475D01*
Y60426D01*
X257950Y59901D01*
Y63050D02*
X257426Y63574D01*
Y64624D01*
X257950Y65149D01*
X260050D01*
X260574Y64624D01*
Y63574D01*
X260050Y63050D01*
X257950D01*
X260574Y66198D02*
Y67248D01*
Y66723D01*
X257426D01*
X257950Y66198D01*
X402248Y171426D02*
Y174574D01*
X400673D01*
X400149Y174049D01*
Y171950D01*
X400673Y171426D01*
X402248D01*
X399099Y174574D02*
X398049D01*
X398574D01*
Y171426D01*
X399099Y171950D01*
X396475Y174574D02*
X395426D01*
X395951D01*
Y171426D01*
X396475Y171950D01*
X391752Y174574D02*
X393851D01*
X391752Y172475D01*
Y171950D01*
X392277Y171426D01*
X393327D01*
X393851Y171950D01*
X302574Y248723D02*
X299426D01*
Y247149D01*
X299951Y246624D01*
X302049D01*
X302574Y247149D01*
Y248723D01*
X299426Y245574D02*
Y244525D01*
Y245050D01*
X302574D01*
X302049Y245574D01*
X299426Y242951D02*
Y241901D01*
Y242426D01*
X302574D01*
X302049Y242951D01*
X299426Y240327D02*
Y239277D01*
Y239802D01*
X302574D01*
X302049Y240327D01*
X474248Y256426D02*
Y259574D01*
X472673D01*
X472149Y259050D01*
Y256950D01*
X472673Y256426D01*
X474248D01*
X471099Y259574D02*
X470049D01*
X470574D01*
Y256426D01*
X471099Y256950D01*
X468475Y259574D02*
X467426D01*
X467950D01*
Y256426D01*
X468475Y256950D01*
X465851D02*
X465327Y256426D01*
X464277D01*
X463752Y256950D01*
Y259050D01*
X464277Y259574D01*
X465327D01*
X465851Y259050D01*
Y256950D01*
X446510Y256426D02*
Y259574D01*
X444936D01*
X444411Y259050D01*
Y256950D01*
X444936Y256426D01*
X446510D01*
X443361Y259574D02*
X442312D01*
X442837D01*
Y256426D01*
X443361Y256950D01*
X440738D02*
X440213Y256426D01*
X439163D01*
X438639Y256950D01*
Y259050D01*
X439163Y259574D01*
X440213D01*
X440738Y259050D01*
Y256950D01*
X437589Y259050D02*
X437064Y259574D01*
X436015D01*
X435490Y259050D01*
Y256950D01*
X436015Y256426D01*
X437064D01*
X437589Y256950D01*
Y257475D01*
X437064Y258000D01*
X435490D01*
X418510Y256426D02*
Y259574D01*
X416936D01*
X416411Y259050D01*
Y256950D01*
X416936Y256426D01*
X418510D01*
X415361Y259574D02*
X414312D01*
X414837D01*
Y256426D01*
X415361Y256950D01*
X412738D02*
X412213Y256426D01*
X411163D01*
X410639Y256950D01*
Y259050D01*
X411163Y259574D01*
X412213D01*
X412738Y259050D01*
Y256950D01*
X409589D02*
X409064Y256426D01*
X408015D01*
X407490Y256950D01*
Y257475D01*
X408015Y258000D01*
X407490Y258525D01*
Y259050D01*
X408015Y259574D01*
X409064D01*
X409589Y259050D01*
Y258525D01*
X409064Y258000D01*
X409589Y257475D01*
Y256950D01*
X409064Y258000D02*
X408015D01*
X391510Y256426D02*
Y259574D01*
X389936D01*
X389411Y259050D01*
Y256950D01*
X389936Y256426D01*
X391510D01*
X388361Y259574D02*
X387312D01*
X387837D01*
Y256426D01*
X388361Y256950D01*
X385738D02*
X385213Y256426D01*
X384163D01*
X383639Y256950D01*
Y259050D01*
X384163Y259574D01*
X385213D01*
X385738Y259050D01*
Y256950D01*
X382589Y256426D02*
X380490D01*
Y256950D01*
X382589Y259050D01*
Y259574D01*
X363510Y256426D02*
Y259574D01*
X361936D01*
X361411Y259050D01*
Y256950D01*
X361936Y256426D01*
X363510D01*
X360361Y259574D02*
X359312D01*
X359837D01*
Y256426D01*
X360361Y256950D01*
X357738D02*
X357213Y256426D01*
X356163D01*
X355639Y256950D01*
Y259050D01*
X356163Y259574D01*
X357213D01*
X357738Y259050D01*
Y256950D01*
X352490Y256426D02*
X353539Y256950D01*
X354589Y258000D01*
Y259050D01*
X354064Y259574D01*
X353015D01*
X352490Y259050D01*
Y258525D01*
X353015Y258000D01*
X354589D01*
X336510Y256426D02*
Y259574D01*
X334936D01*
X334411Y259050D01*
Y256950D01*
X334936Y256426D01*
X336510D01*
X333361Y259574D02*
X332312D01*
X332837D01*
Y256426D01*
X333361Y256950D01*
X330738D02*
X330213Y256426D01*
X329163D01*
X328639Y256950D01*
Y259050D01*
X329163Y259574D01*
X330213D01*
X330738Y259050D01*
Y256950D01*
X325490Y256426D02*
X327589D01*
Y258000D01*
X326539Y257475D01*
X326015D01*
X325490Y258000D01*
Y259050D01*
X326015Y259574D01*
X327064D01*
X327589Y259050D01*
X308510Y256426D02*
Y259574D01*
X306936D01*
X306411Y259050D01*
Y256950D01*
X306936Y256426D01*
X308510D01*
X305361Y259574D02*
X304312D01*
X304837D01*
Y256426D01*
X305361Y256950D01*
X302738D02*
X302213Y256426D01*
X301163D01*
X300639Y256950D01*
Y259050D01*
X301163Y259574D01*
X302213D01*
X302738Y259050D01*
Y256950D01*
X298015Y259574D02*
Y256426D01*
X299589Y258000D01*
X297490D01*
X258426Y262490D02*
X261574D01*
Y264064D01*
X261050Y264589D01*
X258950D01*
X258426Y264064D01*
Y262490D01*
X261574Y265639D02*
Y266688D01*
Y266163D01*
X258426D01*
X258950Y265639D01*
Y268262D02*
X258426Y268787D01*
Y269837D01*
X258950Y270361D01*
X261050D01*
X261574Y269837D01*
Y268787D01*
X261050Y268262D01*
X258950D01*
Y271411D02*
X258426Y271936D01*
Y272985D01*
X258950Y273510D01*
X259475D01*
X260000Y272985D01*
Y272461D01*
Y272985D01*
X260525Y273510D01*
X261050D01*
X261574Y272985D01*
Y271936D01*
X261050Y271411D01*
X391490Y214574D02*
Y211426D01*
X393064D01*
X393589Y211950D01*
Y214050D01*
X393064Y214574D01*
X391490D01*
X394639Y211426D02*
X395688D01*
X395163D01*
Y214574D01*
X394639Y214050D01*
X397262D02*
X397787Y214574D01*
X398837D01*
X399361Y214050D01*
Y211950D01*
X398837Y211426D01*
X397787D01*
X397262Y211950D01*
Y214050D01*
X402510Y211426D02*
X400411D01*
X402510Y213525D01*
Y214050D01*
X401985Y214574D01*
X400936D01*
X400411Y214050D01*
X257426Y240015D02*
X260574D01*
Y241589D01*
X260050Y242114D01*
X257950D01*
X257426Y241589D01*
Y240015D01*
X260574Y243163D02*
Y244213D01*
Y243688D01*
X257426D01*
X257950Y243163D01*
Y245787D02*
X257426Y246312D01*
Y247361D01*
X257950Y247886D01*
X260050D01*
X260574Y247361D01*
Y246312D01*
X260050Y245787D01*
X257950D01*
X260574Y248936D02*
Y249985D01*
Y249461D01*
X257426D01*
X257950Y248936D01*
X37426Y99376D02*
X40574D01*
Y100951D01*
X40049Y101475D01*
X37951D01*
X37426Y100951D01*
Y99376D01*
Y104624D02*
Y102525D01*
X39000D01*
X38475Y103574D01*
Y104099D01*
X39000Y104624D01*
X40049D01*
X40574Y104099D01*
Y103050D01*
X40049Y102525D01*
X37426Y147376D02*
X40574D01*
Y148951D01*
X40049Y149475D01*
X37951D01*
X37426Y148951D01*
Y147376D01*
X40574Y152099D02*
X37426D01*
X39000Y150525D01*
Y152624D01*
X127376Y249574D02*
Y246426D01*
X128951D01*
X129475Y246951D01*
Y249049D01*
X128951Y249574D01*
X127376D01*
X130525Y249049D02*
X131050Y249574D01*
X132099D01*
X132624Y249049D01*
Y248525D01*
X132099Y248000D01*
X131574D01*
X132099D01*
X132624Y247475D01*
Y246951D01*
X132099Y246426D01*
X131050D01*
X130525Y246951D01*
X40376Y222574D02*
Y219426D01*
X41951D01*
X42475Y219951D01*
Y222049D01*
X41951Y222574D01*
X40376D01*
X45624Y219426D02*
X43525D01*
X45624Y221525D01*
Y222049D01*
X45099Y222574D01*
X44050D01*
X43525Y222049D01*
X50426Y198901D02*
X53574D01*
Y200475D01*
X53049Y201000D01*
X50950D01*
X50426Y200475D01*
Y198901D01*
X53574Y202049D02*
Y203099D01*
Y202574D01*
X50426D01*
X50950Y202049D01*
X305950Y83589D02*
X305426Y83064D01*
Y82015D01*
X305950Y81490D01*
X308050D01*
X308574Y82015D01*
Y83064D01*
X308050Y83589D01*
X308574Y86738D02*
Y84639D01*
X306475Y86738D01*
X305950D01*
X305426Y86213D01*
Y85163D01*
X305950Y84639D01*
X308574Y87787D02*
Y88837D01*
Y88312D01*
X305426D01*
X305950Y87787D01*
Y90411D02*
X305426Y90936D01*
Y91985D01*
X305950Y92510D01*
X306475D01*
X307000Y91985D01*
Y91461D01*
Y91985D01*
X307525Y92510D01*
X308050D01*
X308574Y91985D01*
Y90936D01*
X308050Y90411D01*
X293951Y83589D02*
X293426Y83064D01*
Y82015D01*
X293951Y81490D01*
X296049D01*
X296574Y82015D01*
Y83064D01*
X296049Y83589D01*
X296574Y86738D02*
Y84639D01*
X294475Y86738D01*
X293951D01*
X293426Y86213D01*
Y85163D01*
X293951Y84639D01*
X296574Y87787D02*
Y88837D01*
Y88312D01*
X293426D01*
X293951Y87787D01*
X296574Y92510D02*
Y90411D01*
X294475Y92510D01*
X293951D01*
X293426Y91985D01*
Y90936D01*
X293951Y90411D01*
X286886Y89951D02*
X287411Y89426D01*
X288460D01*
X288985Y89951D01*
Y92049D01*
X288460Y92574D01*
X287411D01*
X286886Y92049D01*
X283738Y92574D02*
X285837D01*
X283738Y90475D01*
Y89951D01*
X284262Y89426D01*
X285312D01*
X285837Y89951D01*
X282688Y92574D02*
X281639D01*
X282163D01*
Y89426D01*
X282688Y89951D01*
X280064Y92574D02*
X279015D01*
X279539D01*
Y89426D01*
X280064Y89951D01*
X270951Y83589D02*
X270426Y83064D01*
Y82015D01*
X270951Y81490D01*
X273049D01*
X273574Y82015D01*
Y83064D01*
X273049Y83589D01*
X273574Y86738D02*
Y84639D01*
X271475Y86738D01*
X270951D01*
X270426Y86213D01*
Y85163D01*
X270951Y84639D01*
X273574Y87787D02*
Y88837D01*
Y88312D01*
X270426D01*
X270951Y87787D01*
Y90411D02*
X270426Y90936D01*
Y91985D01*
X270951Y92510D01*
X273049D01*
X273574Y91985D01*
Y90936D01*
X273049Y90411D01*
X270951D01*
X258950Y83327D02*
X258426Y82802D01*
Y81752D01*
X258950Y81228D01*
X261050D01*
X261574Y81752D01*
Y82802D01*
X261050Y83327D01*
X261574Y86475D02*
Y84376D01*
X259475Y86475D01*
X258950D01*
X258426Y85950D01*
Y84901D01*
X258950Y84376D01*
Y87525D02*
X258426Y88050D01*
Y89099D01*
X258950Y89624D01*
X261050D01*
X261574Y89099D01*
Y88050D01*
X261050Y87525D01*
X258950D01*
X261050Y90673D02*
X261574Y91198D01*
Y92248D01*
X261050Y92772D01*
X258950D01*
X258426Y92248D01*
Y91198D01*
X258950Y90673D01*
X259475D01*
X260000Y91198D01*
Y92772D01*
X246951Y83327D02*
X246426Y82802D01*
Y81752D01*
X246951Y81228D01*
X249049D01*
X249574Y81752D01*
Y82802D01*
X249049Y83327D01*
X249574Y86475D02*
Y84376D01*
X247475Y86475D01*
X246951D01*
X246426Y85950D01*
Y84901D01*
X246951Y84376D01*
Y87525D02*
X246426Y88050D01*
Y89099D01*
X246951Y89624D01*
X249049D01*
X249574Y89099D01*
Y88050D01*
X249049Y87525D01*
X246951D01*
Y90673D02*
X246426Y91198D01*
Y92248D01*
X246951Y92772D01*
X247475D01*
X248000Y92248D01*
X248525Y92772D01*
X249049D01*
X249574Y92248D01*
Y91198D01*
X249049Y90673D01*
X248525D01*
X248000Y91198D01*
X247475Y90673D01*
X246951D01*
X248000Y91198D02*
Y92248D01*
X305950Y138327D02*
X305426Y137802D01*
Y136752D01*
X305950Y136228D01*
X308050D01*
X308574Y136752D01*
Y137802D01*
X308050Y138327D01*
X308574Y141475D02*
Y139376D01*
X306475Y141475D01*
X305950D01*
X305426Y140951D01*
Y139901D01*
X305950Y139376D01*
Y142525D02*
X305426Y143050D01*
Y144099D01*
X305950Y144624D01*
X308050D01*
X308574Y144099D01*
Y143050D01*
X308050Y142525D01*
X305950D01*
X305426Y145673D02*
Y147772D01*
X305950D01*
X308050Y145673D01*
X308574D01*
X293951Y138327D02*
X293426Y137802D01*
Y136752D01*
X293951Y136228D01*
X296049D01*
X296574Y136752D01*
Y137802D01*
X296049Y138327D01*
X296574Y141475D02*
Y139376D01*
X294475Y141475D01*
X293951D01*
X293426Y140951D01*
Y139901D01*
X293951Y139376D01*
Y142525D02*
X293426Y143050D01*
Y144099D01*
X293951Y144624D01*
X296049D01*
X296574Y144099D01*
Y143050D01*
X296049Y142525D01*
X293951D01*
X293426Y147772D02*
X293951Y146723D01*
X295000Y145673D01*
X296049D01*
X296574Y146198D01*
Y147248D01*
X296049Y147772D01*
X295525D01*
X295000Y147248D01*
Y145673D01*
X282950Y138327D02*
X282426Y137802D01*
Y136752D01*
X282950Y136228D01*
X285050D01*
X285574Y136752D01*
Y137802D01*
X285050Y138327D01*
X285574Y141475D02*
Y139376D01*
X283475Y141475D01*
X282950D01*
X282426Y140951D01*
Y139901D01*
X282950Y139376D01*
Y142525D02*
X282426Y143050D01*
Y144099D01*
X282950Y144624D01*
X285050D01*
X285574Y144099D01*
Y143050D01*
X285050Y142525D01*
X282950D01*
X282426Y147772D02*
Y145673D01*
X284000D01*
X283475Y146723D01*
Y147248D01*
X284000Y147772D01*
X285050D01*
X285574Y147248D01*
Y146198D01*
X285050Y145673D01*
X270951Y138327D02*
X270426Y137802D01*
Y136752D01*
X270951Y136228D01*
X273049D01*
X273574Y136752D01*
Y137802D01*
X273049Y138327D01*
X273574Y141475D02*
Y139376D01*
X271475Y141475D01*
X270951D01*
X270426Y140951D01*
Y139901D01*
X270951Y139376D01*
Y142525D02*
X270426Y143050D01*
Y144099D01*
X270951Y144624D01*
X273049D01*
X273574Y144099D01*
Y143050D01*
X273049Y142525D01*
X270951D01*
X273574Y147248D02*
X270426D01*
X272000Y145673D01*
Y147772D01*
X258950Y138327D02*
X258426Y137802D01*
Y136752D01*
X258950Y136228D01*
X261050D01*
X261574Y136752D01*
Y137802D01*
X261050Y138327D01*
X261574Y141475D02*
Y139376D01*
X259475Y141475D01*
X258950D01*
X258426Y140951D01*
Y139901D01*
X258950Y139376D01*
Y142525D02*
X258426Y143050D01*
Y144099D01*
X258950Y144624D01*
X261050D01*
X261574Y144099D01*
Y143050D01*
X261050Y142525D01*
X258950D01*
Y145673D02*
X258426Y146198D01*
Y147248D01*
X258950Y147772D01*
X259475D01*
X260000Y147248D01*
Y146723D01*
Y147248D01*
X260525Y147772D01*
X261050D01*
X261574Y147248D01*
Y146198D01*
X261050Y145673D01*
X246951Y138327D02*
X246426Y137802D01*
Y136752D01*
X246951Y136228D01*
X249049D01*
X249574Y136752D01*
Y137802D01*
X249049Y138327D01*
X249574Y141475D02*
Y139376D01*
X247475Y141475D01*
X246951D01*
X246426Y140951D01*
Y139901D01*
X246951Y139376D01*
Y142525D02*
X246426Y143050D01*
Y144099D01*
X246951Y144624D01*
X249049D01*
X249574Y144099D01*
Y143050D01*
X249049Y142525D01*
X246951D01*
X249574Y147772D02*
Y145673D01*
X247475Y147772D01*
X246951D01*
X246426Y147248D01*
Y146198D01*
X246951Y145673D01*
X275951Y74851D02*
X275426Y74327D01*
Y73277D01*
X275951Y72752D01*
X278049D01*
X278574Y73277D01*
Y74327D01*
X278049Y74851D01*
X278574Y78000D02*
Y75901D01*
X276475Y78000D01*
X275951D01*
X275426Y77475D01*
Y76426D01*
X275951Y75901D01*
Y79049D02*
X275426Y79574D01*
Y80624D01*
X275951Y81149D01*
X278049D01*
X278574Y80624D01*
Y79574D01*
X278049Y79049D01*
X275951D01*
X278574Y82198D02*
Y83248D01*
Y82723D01*
X275426D01*
X275951Y82198D01*
X305950Y162851D02*
X305426Y162327D01*
Y161277D01*
X305950Y160752D01*
X308050D01*
X308574Y161277D01*
Y162327D01*
X308050Y162851D01*
X308574Y163901D02*
Y164951D01*
Y164426D01*
X305426D01*
X305950Y163901D01*
X308574Y166525D02*
Y167574D01*
Y167050D01*
X305426D01*
X305950Y166525D01*
Y169149D02*
X305426Y169673D01*
Y170723D01*
X305950Y171248D01*
X306475D01*
X307000Y170723D01*
Y170198D01*
Y170723D01*
X307525Y171248D01*
X308050D01*
X308574Y170723D01*
Y169673D01*
X308050Y169149D01*
X293951Y162851D02*
X293426Y162327D01*
Y161277D01*
X293951Y160752D01*
X296049D01*
X296574Y161277D01*
Y162327D01*
X296049Y162851D01*
X296574Y163901D02*
Y164951D01*
Y164426D01*
X293426D01*
X293951Y163901D01*
X296574Y166525D02*
Y167574D01*
Y167050D01*
X293426D01*
X293951Y166525D01*
X296574Y171248D02*
Y169149D01*
X294475Y171248D01*
X293951D01*
X293426Y170723D01*
Y169673D01*
X293951Y169149D01*
X281950Y163376D02*
X281426Y162851D01*
Y161802D01*
X281950Y161277D01*
X284050D01*
X284574Y161802D01*
Y162851D01*
X284050Y163376D01*
X284574Y164426D02*
Y165475D01*
Y164951D01*
X281426D01*
X281950Y164426D01*
X284574Y167050D02*
Y168099D01*
Y167574D01*
X281426D01*
X281950Y167050D01*
X284574Y169673D02*
Y170723D01*
Y170198D01*
X281426D01*
X281950Y169673D01*
X270951Y162851D02*
X270426Y162327D01*
Y161277D01*
X270951Y160752D01*
X273049D01*
X273574Y161277D01*
Y162327D01*
X273049Y162851D01*
X273574Y163901D02*
Y164951D01*
Y164426D01*
X270426D01*
X270951Y163901D01*
X273574Y166525D02*
Y167574D01*
Y167050D01*
X270426D01*
X270951Y166525D01*
Y169149D02*
X270426Y169673D01*
Y170723D01*
X270951Y171248D01*
X273049D01*
X273574Y170723D01*
Y169673D01*
X273049Y169149D01*
X270951D01*
X258950Y162589D02*
X258426Y162064D01*
Y161015D01*
X258950Y160490D01*
X261050D01*
X261574Y161015D01*
Y162064D01*
X261050Y162589D01*
X261574Y163639D02*
Y164688D01*
Y164163D01*
X258426D01*
X258950Y163639D01*
Y166262D02*
X258426Y166787D01*
Y167837D01*
X258950Y168361D01*
X261050D01*
X261574Y167837D01*
Y166787D01*
X261050Y166262D01*
X258950D01*
X261050Y169411D02*
X261574Y169936D01*
Y170985D01*
X261050Y171510D01*
X258950D01*
X258426Y170985D01*
Y169936D01*
X258950Y169411D01*
X259475D01*
X260000Y169936D01*
Y171510D01*
X246951Y162589D02*
X246426Y162064D01*
Y161015D01*
X246951Y160490D01*
X249049D01*
X249574Y161015D01*
Y162064D01*
X249049Y162589D01*
X249574Y163639D02*
Y164688D01*
Y164163D01*
X246426D01*
X246951Y163639D01*
Y166262D02*
X246426Y166787D01*
Y167837D01*
X246951Y168361D01*
X249049D01*
X249574Y167837D01*
Y166787D01*
X249049Y166262D01*
X246951D01*
Y169411D02*
X246426Y169936D01*
Y170985D01*
X246951Y171510D01*
X247475D01*
X248000Y170985D01*
X248525Y171510D01*
X249049D01*
X249574Y170985D01*
Y169936D01*
X249049Y169411D01*
X248525D01*
X248000Y169936D01*
X247475Y169411D01*
X246951D01*
X248000Y169936D02*
Y170985D01*
X305950Y216589D02*
X305426Y216064D01*
Y215015D01*
X305950Y214490D01*
X308050D01*
X308574Y215015D01*
Y216064D01*
X308050Y216589D01*
X308574Y217639D02*
Y218688D01*
Y218163D01*
X305426D01*
X305950Y217639D01*
Y220262D02*
X305426Y220787D01*
Y221837D01*
X305950Y222361D01*
X308050D01*
X308574Y221837D01*
Y220787D01*
X308050Y220262D01*
X305950D01*
X305426Y223411D02*
Y225510D01*
X305950D01*
X308050Y223411D01*
X308574D01*
X293951Y216589D02*
X293426Y216064D01*
Y215015D01*
X293951Y214490D01*
X296049D01*
X296574Y215015D01*
Y216064D01*
X296049Y216589D01*
X296574Y217639D02*
Y218688D01*
Y218163D01*
X293426D01*
X293951Y217639D01*
Y220262D02*
X293426Y220787D01*
Y221837D01*
X293951Y222361D01*
X296049D01*
X296574Y221837D01*
Y220787D01*
X296049Y220262D01*
X293951D01*
X293426Y225510D02*
X293951Y224461D01*
X295000Y223411D01*
X296049D01*
X296574Y223936D01*
Y224985D01*
X296049Y225510D01*
X295525D01*
X295000Y224985D01*
Y223411D01*
X279589Y217050D02*
X279064Y217574D01*
X278015D01*
X277490Y217050D01*
Y214950D01*
X278015Y214426D01*
X279064D01*
X279589Y214950D01*
X280639Y214426D02*
X281688D01*
X281163D01*
Y217574D01*
X280639Y217050D01*
X283262D02*
X283787Y217574D01*
X284837D01*
X285362Y217050D01*
Y214950D01*
X284837Y214426D01*
X283787D01*
X283262Y214950D01*
Y217050D01*
X288510Y217574D02*
X286411D01*
Y216000D01*
X287460Y216525D01*
X287985D01*
X288510Y216000D01*
Y214950D01*
X287985Y214426D01*
X286936D01*
X286411Y214950D01*
X270951Y216589D02*
X270426Y216064D01*
Y215015D01*
X270951Y214490D01*
X273049D01*
X273574Y215015D01*
Y216064D01*
X273049Y216589D01*
X273574Y217639D02*
Y218688D01*
Y218163D01*
X270426D01*
X270951Y217639D01*
Y220262D02*
X270426Y220787D01*
Y221837D01*
X270951Y222361D01*
X273049D01*
X273574Y221837D01*
Y220787D01*
X273049Y220262D01*
X270951D01*
X273574Y224985D02*
X270426D01*
X272000Y223411D01*
Y225510D01*
X258950Y216589D02*
X258426Y216064D01*
Y215015D01*
X258950Y214490D01*
X261050D01*
X261574Y215015D01*
Y216064D01*
X261050Y216589D01*
X261574Y217639D02*
Y218688D01*
Y218163D01*
X258426D01*
X258950Y217639D01*
Y220262D02*
X258426Y220787D01*
Y221837D01*
X258950Y222361D01*
X261050D01*
X261574Y221837D01*
Y220787D01*
X261050Y220262D01*
X258950D01*
Y223411D02*
X258426Y223936D01*
Y224985D01*
X258950Y225510D01*
X259475D01*
X260000Y224985D01*
Y224461D01*
Y224985D01*
X260525Y225510D01*
X261050D01*
X261574Y224985D01*
Y223936D01*
X261050Y223411D01*
X246951Y216589D02*
X246426Y216064D01*
Y215015D01*
X246951Y214490D01*
X249049D01*
X249574Y215015D01*
Y216064D01*
X249049Y216589D01*
X249574Y217639D02*
Y218688D01*
Y218163D01*
X246426D01*
X246951Y217639D01*
Y220262D02*
X246426Y220787D01*
Y221837D01*
X246951Y222361D01*
X249049D01*
X249574Y221837D01*
Y220787D01*
X249049Y220262D01*
X246951D01*
X249574Y225510D02*
Y223411D01*
X247475Y225510D01*
X246951D01*
X246426Y224985D01*
Y223936D01*
X246951Y223411D01*
X275951Y226114D02*
X275426Y225589D01*
Y224539D01*
X275951Y224015D01*
X278049D01*
X278574Y224539D01*
Y225589D01*
X278049Y226114D01*
X278574Y227163D02*
Y228213D01*
Y227688D01*
X275426D01*
X275951Y227163D01*
Y229787D02*
X275426Y230312D01*
Y231362D01*
X275951Y231886D01*
X278049D01*
X278574Y231362D01*
Y230312D01*
X278049Y229787D01*
X275951D01*
X278574Y232936D02*
Y233985D01*
Y233460D01*
X275426D01*
X275951Y232936D01*
X164475Y268050D02*
X163951Y268574D01*
X162901D01*
X162376Y268050D01*
Y265950D01*
X162901Y265426D01*
X163951D01*
X164475Y265950D01*
X165525Y268050D02*
X166050Y268574D01*
X167099D01*
X167624Y268050D01*
Y267525D01*
X167099Y267000D01*
X167624Y266475D01*
Y265950D01*
X167099Y265426D01*
X166050D01*
X165525Y265950D01*
Y266475D01*
X166050Y267000D01*
X165525Y267525D01*
Y268050D01*
X166050Y267000D02*
X167099D01*
X141050Y141525D02*
X141574Y142050D01*
Y143099D01*
X141050Y143624D01*
X138951D01*
X138426Y143099D01*
Y142050D01*
X138951Y141525D01*
X141574Y140475D02*
Y138376D01*
X141050D01*
X138951Y140475D01*
X138426D01*
X141050Y98525D02*
X141574Y99050D01*
Y100099D01*
X141050Y100624D01*
X138951D01*
X138426Y100099D01*
Y99050D01*
X138951Y98525D01*
X141574Y95376D02*
X141050Y96426D01*
X140000Y97475D01*
X138951D01*
X138426Y96951D01*
Y95901D01*
X138951Y95376D01*
X139475D01*
X140000Y95901D01*
Y97475D01*
X177050Y181525D02*
X177574Y182050D01*
Y183099D01*
X177050Y183624D01*
X174951D01*
X174426Y183099D01*
Y182050D01*
X174951Y181525D01*
X177574Y178376D02*
Y180475D01*
X176000D01*
X176525Y179426D01*
Y178901D01*
X176000Y178376D01*
X174951D01*
X174426Y178901D01*
Y179950D01*
X174951Y180475D01*
X108499Y217524D02*
X107974Y218049D01*
X106925D01*
X106400Y217524D01*
Y215425D01*
X106925Y214900D01*
X107974D01*
X108499Y215425D01*
X109549Y217524D02*
X110073Y218049D01*
X111123D01*
X111648Y217524D01*
Y216999D01*
X111123Y216474D01*
X110598D01*
X111123D01*
X111648Y215950D01*
Y215425D01*
X111123Y214900D01*
X110073D01*
X109549Y215425D01*
X122000Y251951D02*
X122525Y251426D01*
X123574D01*
X124099Y251951D01*
Y254049D01*
X123574Y254574D01*
X122525D01*
X122000Y254049D01*
X120950Y254574D02*
X119901D01*
X120426D01*
Y251426D01*
X120950Y251951D01*
D13*
X68996Y97146D02*
X68258Y97572D01*
Y96719D01*
X68996Y97146D01*
X61122Y60039D02*
X60384Y60466D01*
Y59613D01*
X61122Y60039D01*
X88681Y119232D02*
X87943Y119659D01*
Y118806D01*
X88681Y119232D01*
Y162539D02*
X87943Y162966D01*
Y162113D01*
X88681Y162539D01*
X68996Y144390D02*
X68258Y144816D01*
Y143964D01*
X68996Y144390D01*
X80413Y195571D02*
X79675Y195997D01*
Y195145D01*
X80413Y195571D01*
X38583Y191339D02*
X37844Y191765D01*
Y190912D01*
X38583Y191339D01*
X112598Y213784D02*
X111860Y214210D01*
Y213357D01*
X112598Y213784D01*
X125197Y219291D02*
X124459Y219718D01*
Y218865D01*
X125197Y219291D01*
X385138Y186319D02*
X384400Y186745D01*
Y185893D01*
X385138Y186319D01*
X411122Y199508D02*
X410384Y199934D01*
Y199082D01*
X411122Y199508D01*
Y97146D02*
X410384Y97572D01*
Y96719D01*
X411122Y97146D01*
X385138Y131201D02*
X384400Y131627D01*
Y130775D01*
X385138Y131201D01*
X292815Y238189D02*
X292077Y238615D01*
Y237763D01*
X292815Y238189D01*
X273425Y257087D02*
X272687Y257513D01*
Y256660D01*
X273425Y257087D01*
X291043Y267717D02*
X290305Y268143D01*
Y267290D01*
X291043Y267717D01*
X318602D02*
X317864Y268143D01*
Y267290D01*
X318602Y267717D01*
X346161D02*
X345423Y268143D01*
Y267290D01*
X346161Y267717D01*
X373721D02*
X372982Y268143D01*
Y267290D01*
X373721Y267717D01*
X401279D02*
X400541Y268143D01*
Y267290D01*
X401279Y267717D01*
X428839D02*
X428100Y268143D01*
Y267290D01*
X428839Y267717D01*
X456398D02*
X455659Y268143D01*
Y267290D01*
X456398Y267717D01*
X454035D02*
X453297Y268143D01*
Y267290D01*
X454035Y267717D01*
X298721Y68898D02*
X297982Y69324D01*
Y68471D01*
X298721Y68898D01*
X262992Y50000D02*
X262254Y50426D01*
Y49574D01*
X262992Y50000D01*
X454035Y39370D02*
X453297Y39796D01*
Y38944D01*
X454035Y39370D01*
X456398D02*
X455659Y39796D01*
Y38944D01*
X456398Y39370D01*
X428839D02*
X428100Y39796D01*
Y38944D01*
X428839Y39370D01*
X401279D02*
X400541Y39796D01*
Y38944D01*
X401279Y39370D01*
X373721D02*
X372982Y39796D01*
Y38944D01*
X373721Y39370D01*
X346161D02*
X345423Y39796D01*
Y38944D01*
X346161Y39370D01*
X318602D02*
X317864Y39796D01*
Y38944D01*
X318602Y39370D01*
X291043D02*
X290305Y39796D01*
Y38944D01*
X291043Y39370D01*
D14*
X98819Y113976D02*
X98374Y114900D01*
X97375Y115128D01*
X96574Y114489D01*
Y113464D01*
X97375Y112825D01*
X98374Y113053D01*
X98819Y113976D01*
Y157283D02*
X98374Y158207D01*
X97375Y158435D01*
X96574Y157796D01*
Y156771D01*
X97375Y156132D01*
X98374Y156360D01*
X98819Y157283D01*
D15*
X461894Y115563D02*
X493391Y131311D01*
X461894Y115563D02*
X493391Y99815D01*
Y131311D01*
X473705Y117531D02*
X480595Y110642D01*
Y120484D01*
X488469Y112610D01*
X495359Y174618D02*
Y206114D01*
X463863Y190366D02*
X495359Y174618D01*
X463863Y190366D02*
X495359Y206114D01*
D16*
X77362Y195719D02*
Y205955D01*
X76008Y195719D02*
Y205474D01*
X75008Y195719D02*
Y205474D01*
X76685Y195719D02*
Y205474D01*
X38189Y194488D02*
X48425D01*
X38189Y195843D02*
X47945D01*
X38189Y196843D02*
X47945D01*
X38189Y195165D02*
X47945D01*
X124754Y242717D02*
X134990D01*
X125234Y241362D02*
X134990D01*
X125234Y240362D02*
X134990D01*
X125234Y242039D02*
X134990D01*
X408071Y97293D02*
Y107529D01*
X406717Y97293D02*
Y107049D01*
X405717Y97293D02*
Y107049D01*
X407394Y97293D02*
Y107049D01*
X387205Y120817D02*
Y131053D01*
X388559Y121297D02*
Y131053D01*
X389559Y121297D02*
Y131053D01*
X387882Y121297D02*
Y131053D01*
X387205Y175935D02*
Y186171D01*
X388559Y176415D02*
Y186171D01*
X389559Y176415D02*
Y186171D01*
X387882Y176415D02*
Y186171D01*
X408071Y199655D02*
Y209892D01*
X406717Y199655D02*
Y209411D01*
X405717Y199655D02*
Y209411D01*
X407394Y199655D02*
Y209411D01*
X262648Y52559D02*
X272884D01*
X262648Y53913D02*
X272404D01*
X262648Y54913D02*
X272404D01*
X262648Y53236D02*
X272404D01*
X262549Y254528D02*
X272785D01*
X263030Y253173D02*
X272785D01*
X263030Y252173D02*
X272785D01*
X263030Y253850D02*
X272785D01*
X65354Y144488D02*
Y154724D01*
X64000Y144488D02*
Y154244D01*
X63000Y144488D02*
Y154244D01*
X64677Y144488D02*
Y154244D01*
Y97244D02*
Y107000D01*
X63000Y97244D02*
X64677D01*
X63000D02*
Y107000D01*
X64000D01*
Y97244D02*
Y107000D01*
Y97244D02*
X65354D01*
Y107480D01*
X286024Y262008D02*
Y274114D01*
X285000Y261319D02*
Y274114D01*
X284000Y261319D02*
Y274346D01*
X313583Y262008D02*
Y274114D01*
X312559Y261319D02*
Y274114D01*
X311559Y261319D02*
Y274346D01*
X341142Y262008D02*
Y274114D01*
X340118Y261319D02*
Y274114D01*
X339118Y261319D02*
Y274346D01*
X368701Y262008D02*
Y274114D01*
X367677Y261319D02*
Y274114D01*
X366677Y261319D02*
Y274346D01*
X396260Y262008D02*
Y274114D01*
X395236Y261319D02*
Y274114D01*
X394236Y261319D02*
Y274346D01*
X423819Y262008D02*
Y274114D01*
X422795Y261319D02*
Y274114D01*
X421795Y261319D02*
Y274346D01*
X451378Y262008D02*
Y274114D01*
X450354Y261319D02*
Y274114D01*
X449354Y261319D02*
Y274346D01*
X478937Y262008D02*
Y274114D01*
X477913Y261319D02*
Y274114D01*
X476913Y261319D02*
Y274346D01*
X476913Y32972D02*
Y46000D01*
X477913Y32972D02*
Y45768D01*
X478937Y33661D02*
Y45768D01*
X449354Y32972D02*
Y46000D01*
X450354Y32972D02*
Y45768D01*
X451378Y33661D02*
Y45768D01*
X421795Y32972D02*
Y46000D01*
X422795Y32972D02*
Y45768D01*
X423819Y33661D02*
Y45768D01*
X394236Y32972D02*
Y46000D01*
X395236Y32972D02*
Y45768D01*
X396260Y33661D02*
Y45768D01*
X366677Y32972D02*
Y46000D01*
X367677Y32972D02*
Y45768D01*
X368701Y33661D02*
Y45768D01*
X339118Y32972D02*
Y46000D01*
X340118Y32972D02*
Y45768D01*
X341142Y33661D02*
Y45768D01*
X311559Y32972D02*
Y46000D01*
X312559Y32972D02*
Y45768D01*
X313583Y33661D02*
Y45768D01*
X286024Y33661D02*
Y45768D01*
X285000D02*
X286024D01*
X285000Y32972D02*
Y45768D01*
X284000Y32972D02*
X285000D01*
X284000D02*
Y46000D01*
M02*
