G04*
G04 #@! TF.GenerationSoftware,Altium Limited,Altium Designer,22.5.1 (42)*
G04*
G04 Layer_Physical_Order=2*
G04 Layer_Color=16711680*
%FSLAX25Y25*%
%MOIN*%
G70*
G04*
G04 #@! TF.SameCoordinates,AD146B9C-557F-4D5F-B811-4A91A8D423AC*
G04*
G04*
G04 #@! TF.FilePolarity,Positive*
G04*
G01*
G75*
%ADD10C,0.01181*%
%ADD62C,0.01575*%
%ADD65C,0.06693*%
%ADD66R,0.06299X0.06299*%
%ADD67C,0.06299*%
%ADD68C,0.14961*%
%ADD69C,0.08268*%
%ADD70R,0.05906X0.05906*%
%ADD71C,0.05906*%
%ADD72C,0.07874*%
%ADD73C,0.05118*%
G36*
X192913Y229130D02*
Y47244D01*
X188976Y43307D01*
X122047D01*
X118110Y47244D01*
Y94141D01*
X118819D01*
X119871Y94423D01*
X120813Y94967D01*
X121583Y95737D01*
X122127Y96680D01*
X122409Y97731D01*
Y98819D01*
X122127Y99871D01*
X121583Y100813D01*
X121301Y101096D01*
X121224Y101215D01*
X121069Y101377D01*
X120967Y101497D01*
X120885Y101610D01*
X120819Y101714D01*
X120769Y101812D01*
X120731Y101902D01*
X120704Y101988D01*
X120685Y102072D01*
X120684Y102081D01*
Y133026D01*
X130919Y143261D01*
X160450D01*
X161371Y143444D01*
X162153Y143966D01*
X172703Y154517D01*
X173225Y155298D01*
X173408Y156220D01*
Y184000D01*
X173225Y184922D01*
X172703Y185703D01*
X164703Y193703D01*
X163922Y194225D01*
X163000Y194409D01*
X148000D01*
X147078Y194225D01*
X146297Y193703D01*
X143454Y190860D01*
X142932Y190079D01*
X142749Y189157D01*
Y188931D01*
X142740Y188856D01*
X142716Y188747D01*
X142688Y188664D01*
X142658Y188600D01*
X142627Y188549D01*
X142591Y188503D01*
X142545Y188457D01*
X142484Y188408D01*
X142334Y188311D01*
X142247Y188227D01*
X141773Y187954D01*
X140747Y186928D01*
X140021Y185671D01*
X139646Y184269D01*
Y182818D01*
X140021Y181416D01*
X140747Y180159D01*
X141773Y179133D01*
X142869Y178500D01*
X142917Y178031D01*
X142888Y177934D01*
X142126Y177494D01*
X141207Y176575D01*
X140557Y175449D01*
X140314Y174543D01*
X145158D01*
Y172543D01*
X140314D01*
X140557Y171638D01*
X141207Y170512D01*
X142126Y169593D01*
X142888Y169153D01*
X142917Y169056D01*
X142869Y168587D01*
X141773Y167954D01*
X140747Y166928D01*
X140021Y165671D01*
X139646Y164269D01*
Y162818D01*
X140021Y161416D01*
X140747Y160159D01*
X141773Y159133D01*
X143030Y158407D01*
X144432Y158031D01*
X145883D01*
X147285Y158407D01*
X148542Y159133D01*
X149568Y160159D01*
X149908Y160747D01*
X150408D01*
X150747Y160159D01*
X151773Y159133D01*
X153030Y158407D01*
X154432Y158031D01*
X155883D01*
X157285Y158407D01*
X158542Y159133D01*
X159568Y160159D01*
X160294Y161416D01*
X160669Y162818D01*
Y164269D01*
X160294Y165671D01*
X159568Y166928D01*
X158542Y167954D01*
X157954Y168293D01*
Y168793D01*
X158542Y169133D01*
X159568Y170159D01*
X160294Y171416D01*
X160669Y172818D01*
Y174269D01*
X160294Y175671D01*
X159568Y176928D01*
X158542Y177954D01*
X157954Y178293D01*
Y178793D01*
X158542Y179133D01*
X158956Y179547D01*
X159069Y179618D01*
X159780Y180287D01*
X160063Y180517D01*
X160338Y180715D01*
X160588Y180871D01*
X160676Y180918D01*
X162592Y179002D01*
Y158498D01*
X156502Y152409D01*
X126000D01*
X125078Y152225D01*
X124297Y151703D01*
X118988Y146394D01*
X118981Y146388D01*
X118908Y146343D01*
X118828Y146301D01*
X118737Y146264D01*
X118633Y146231D01*
X118610Y146226D01*
X118318Y146376D01*
X118198Y146484D01*
X118110Y146633D01*
Y173228D01*
X100339Y191000D01*
X41284D01*
X35433Y196850D01*
Y240158D01*
X23622Y251969D01*
X15748D01*
X11811Y255906D01*
X11811Y259842D01*
X15748Y263779D01*
X43307D01*
X51181Y255906D01*
X78740D01*
X90551Y267717D01*
X154327D01*
X192913Y229130D01*
D02*
G37*
G36*
X291601Y226974D02*
X291430Y226772D01*
X291279Y226566D01*
X291149Y226357D01*
X291038Y226145D01*
X290948Y225929D01*
X290878Y225709D01*
X290828Y225486D01*
X290797Y225260D01*
X290787Y225030D01*
X289213D01*
X289203Y225260D01*
X289172Y225486D01*
X289122Y225709D01*
X289052Y225929D01*
X288962Y226145D01*
X288851Y226357D01*
X288721Y226566D01*
X288570Y226772D01*
X288399Y226974D01*
X288209Y227172D01*
X291791D01*
X291601Y226974D01*
D02*
G37*
G36*
X425000Y234000D02*
Y203000D01*
X419000Y197000D01*
X372000D01*
X354000Y215000D01*
X332000D01*
X329000Y212000D01*
Y207000D01*
X327000Y205000D01*
X319000D01*
X315000Y201000D01*
Y191000D01*
X308000Y184000D01*
X282000D01*
X275000Y191000D01*
Y200000D01*
Y201000D01*
X280000Y206000D01*
X290000D01*
X314000Y230000D01*
X362000D01*
X376000Y216000D01*
X406000D01*
X413000Y223000D01*
Y234000D01*
X416000Y237000D01*
X422000Y237000D01*
X425000Y234000D01*
D02*
G37*
G36*
X145957Y188860D02*
X145992Y188581D01*
X146050Y188318D01*
X146132Y188072D01*
X146237Y187844D01*
X146366Y187633D01*
X146518Y187439D01*
X146693Y187262D01*
X146892Y187102D01*
X147114Y186960D01*
X143201D01*
X143423Y187102D01*
X143622Y187262D01*
X143797Y187439D01*
X143949Y187633D01*
X144078Y187844D01*
X144183Y188072D01*
X144265Y188318D01*
X144323Y188581D01*
X144358Y188860D01*
X144370Y189157D01*
X145945D01*
X145957Y188860D01*
D02*
G37*
G36*
X322346Y185787D02*
X321965Y186161D01*
X321229Y186791D01*
X320874Y187047D01*
X320529Y187264D01*
X320193Y187441D01*
X319865Y187579D01*
X319547Y187677D01*
X319238Y187736D01*
X318938Y187756D01*
Y189331D01*
X319238Y189350D01*
X319547Y189409D01*
X319865Y189508D01*
X320193Y189646D01*
X320529Y189823D01*
X320874Y190039D01*
X321229Y190295D01*
X321592Y190591D01*
X322346Y191299D01*
Y185787D01*
D02*
G37*
G36*
X158351Y185925D02*
X159086Y185295D01*
X159441Y185039D01*
X159786Y184823D01*
X160122Y184646D01*
X160449Y184508D01*
X160768Y184409D01*
X161077Y184350D01*
X161377Y184331D01*
Y182756D01*
X161077Y182736D01*
X160768Y182677D01*
X160449Y182579D01*
X160122Y182441D01*
X159786Y182264D01*
X159441Y182047D01*
X159086Y181791D01*
X158723Y181496D01*
X157969Y180787D01*
Y186299D01*
X158351Y185925D01*
D02*
G37*
G36*
X168591Y183002D02*
Y157217D01*
X167573Y156199D01*
X167185Y156518D01*
X167225Y156578D01*
X167409Y157500D01*
Y180000D01*
X167225Y180922D01*
X166703Y181703D01*
X163160Y185246D01*
X162378Y185768D01*
X161457Y185952D01*
X161251D01*
X161157Y185970D01*
X161000Y186019D01*
X160809Y186099D01*
X160588Y186215D01*
X160338Y186372D01*
X160080Y186558D01*
X159436Y187110D01*
X159093Y187446D01*
X158968Y187527D01*
X158542Y187954D01*
X157285Y188680D01*
X155883Y189055D01*
X154432D01*
X153030Y188680D01*
X151773Y187954D01*
X150747Y186928D01*
X150408Y186340D01*
X149908D01*
X149568Y186928D01*
X148542Y187954D01*
X148241Y188128D01*
X148123Y188583D01*
X148137Y188672D01*
X148182Y188776D01*
X148998Y189592D01*
X162002D01*
X168591Y183002D01*
D02*
G37*
G36*
X121364Y144251D02*
X121209Y144081D01*
X121070Y143900D01*
X120948Y143706D01*
X120842Y143501D01*
X120753Y143285D01*
X120681Y143056D01*
X120625Y142816D01*
X120587Y142564D01*
X120564Y142301D01*
X120559Y142026D01*
X118026Y144559D01*
X118301Y144564D01*
X118564Y144587D01*
X118816Y144625D01*
X119056Y144681D01*
X119285Y144753D01*
X119501Y144842D01*
X119706Y144948D01*
X119899Y145070D01*
X120081Y145209D01*
X120251Y145364D01*
X121364Y144251D01*
D02*
G37*
G36*
X322346Y115787D02*
X321965Y116161D01*
X321229Y116791D01*
X320874Y117047D01*
X320529Y117264D01*
X320193Y117441D01*
X319865Y117579D01*
X319547Y117677D01*
X319238Y117736D01*
X318938Y117756D01*
Y119331D01*
X319238Y119350D01*
X319547Y119409D01*
X319865Y119508D01*
X320193Y119646D01*
X320529Y119823D01*
X320874Y120039D01*
X321229Y120295D01*
X321592Y120591D01*
X322346Y121299D01*
Y115787D01*
D02*
G37*
G36*
Y105787D02*
X321965Y106161D01*
X321229Y106791D01*
X320874Y107047D01*
X320529Y107264D01*
X320193Y107441D01*
X319865Y107579D01*
X319547Y107677D01*
X319238Y107736D01*
X318938Y107756D01*
Y109331D01*
X319238Y109350D01*
X319547Y109409D01*
X319865Y109508D01*
X320193Y109646D01*
X320529Y109823D01*
X320874Y110039D01*
X321229Y110295D01*
X321592Y110591D01*
X322346Y111299D01*
Y105787D01*
D02*
G37*
G36*
X119073Y102015D02*
X119103Y101789D01*
X119153Y101566D01*
X119223Y101346D01*
X119314Y101130D01*
X119424Y100918D01*
X119554Y100709D01*
X119705Y100503D01*
X119876Y100301D01*
X120066Y100103D01*
X116484D01*
X116674Y100301D01*
X116845Y100503D01*
X116996Y100709D01*
X117126Y100918D01*
X117237Y101130D01*
X117327Y101346D01*
X117397Y101566D01*
X117448Y101789D01*
X117478Y102015D01*
X117488Y102245D01*
X119062D01*
X119073Y102015D01*
D02*
G37*
G36*
X312797Y85740D02*
X312828Y85514D01*
X312878Y85291D01*
X312948Y85071D01*
X313038Y84855D01*
X313149Y84643D01*
X313279Y84434D01*
X313430Y84228D01*
X313601Y84026D01*
X313791Y83828D01*
X310209D01*
X310399Y84026D01*
X310570Y84228D01*
X310721Y84434D01*
X310851Y84643D01*
X310962Y84855D01*
X311052Y85071D01*
X311122Y85291D01*
X311172Y85514D01*
X311203Y85740D01*
X311213Y85970D01*
X312787D01*
X312797Y85740D01*
D02*
G37*
G36*
X303797Y78740D02*
X303828Y78514D01*
X303878Y78291D01*
X303948Y78071D01*
X304038Y77855D01*
X304149Y77643D01*
X304279Y77434D01*
X304430Y77228D01*
X304601Y77026D01*
X304791Y76828D01*
X301209D01*
X301399Y77026D01*
X301570Y77228D01*
X301721Y77434D01*
X301851Y77643D01*
X301962Y77855D01*
X302052Y78071D01*
X302122Y78291D01*
X302172Y78514D01*
X302203Y78740D01*
X302213Y78970D01*
X303787D01*
X303797Y78740D01*
D02*
G37*
G36*
X426000Y105496D02*
Y73000D01*
X422000Y69000D01*
X416000D01*
X412000Y73000D01*
Y86000D01*
X362000Y136000D01*
X332000D01*
X329000Y133000D01*
Y127000D01*
X327000Y125000D01*
X310000D01*
X290000Y105000D01*
X252000D01*
X243000Y114000D01*
Y139000D01*
X252000Y148000D01*
X383496D01*
X426000Y105496D01*
D02*
G37*
G36*
X151441Y289910D02*
Y287814D01*
X146267D01*
Y285282D01*
X143935D01*
Y287814D01*
X142368D01*
Y289928D01*
X143935D01*
Y297944D01*
X145975D01*
X151441Y289910D01*
D02*
G37*
%LPC*%
G36*
X156512Y263871D02*
Y260842D01*
X159540D01*
X159379Y261444D01*
X158832Y262390D01*
X158060Y263163D01*
X157114Y263709D01*
X156512Y263871D01*
D02*
G37*
G36*
X154512Y263871D02*
X153910Y263709D01*
X152964Y263163D01*
X152191Y262390D01*
X151645Y261444D01*
X151484Y260842D01*
X154512D01*
Y263871D01*
D02*
G37*
G36*
X20685Y262764D02*
Y258717D01*
X24732D01*
X24469Y259698D01*
X23793Y260869D01*
X22837Y261825D01*
X21667Y262501D01*
X20685Y262764D01*
D02*
G37*
G36*
X18685Y262764D02*
X17703Y262501D01*
X16533Y261825D01*
X15577Y260869D01*
X14901Y259698D01*
X14638Y258717D01*
X18685D01*
Y262764D01*
D02*
G37*
G36*
X154512Y258842D02*
X151484D01*
X151645Y258241D01*
X152191Y257295D01*
X152964Y256522D01*
X153910Y255976D01*
X154512Y255815D01*
Y258842D01*
D02*
G37*
G36*
X159540D02*
X156512D01*
Y255815D01*
X157114Y255976D01*
X158060Y256522D01*
X158832Y257295D01*
X159379Y258241D01*
X159540Y258842D01*
D02*
G37*
G36*
X18685Y256717D02*
X14638D01*
X14901Y255735D01*
X15577Y254564D01*
X16533Y253608D01*
X17703Y252933D01*
X18685Y252670D01*
Y256717D01*
D02*
G37*
G36*
X24732D02*
X20685D01*
Y252670D01*
X21667Y252933D01*
X22837Y253608D01*
X23793Y254564D01*
X24469Y255735D01*
X24732Y256717D01*
D02*
G37*
G36*
X117142Y189067D02*
Y186039D01*
X120170D01*
X120009Y186641D01*
X119462Y187587D01*
X118690Y188360D01*
X117743Y188906D01*
X117142Y189067D01*
D02*
G37*
G36*
X115142D02*
X114540Y188906D01*
X113594Y188360D01*
X112821Y187587D01*
X112275Y186641D01*
X112114Y186039D01*
X115142D01*
Y189067D01*
D02*
G37*
G36*
X120170Y184039D02*
X117142D01*
Y181011D01*
X117743Y181173D01*
X118690Y181719D01*
X119462Y182491D01*
X120009Y183438D01*
X120170Y184039D01*
D02*
G37*
G36*
X115142D02*
X112114D01*
X112275Y183438D01*
X112821Y182491D01*
X113594Y181719D01*
X114540Y181173D01*
X115142Y181011D01*
Y184039D01*
D02*
G37*
G36*
X185635Y72520D02*
X184443D01*
X183292Y72211D01*
X182259Y71615D01*
X181416Y70772D01*
X180820Y69740D01*
X180512Y68588D01*
Y67396D01*
X180820Y66245D01*
X181416Y65212D01*
X182259Y64369D01*
X183292Y63773D01*
X184443Y63465D01*
X185635D01*
X186787Y63773D01*
X187819Y64369D01*
X188662Y65212D01*
X189258Y66245D01*
X189567Y67396D01*
Y68588D01*
X189258Y69740D01*
X188662Y70772D01*
X187819Y71615D01*
X186787Y72211D01*
X185635Y72520D01*
D02*
G37*
G36*
X162013D02*
X160821D01*
X159670Y72211D01*
X158637Y71615D01*
X157794Y70772D01*
X157198Y69740D01*
X156890Y68588D01*
Y67396D01*
X157198Y66245D01*
X157794Y65212D01*
X158637Y64369D01*
X159670Y63773D01*
X160821Y63465D01*
X162013D01*
X163165Y63773D01*
X164197Y64369D01*
X165040Y65212D01*
X165636Y66245D01*
X165945Y67396D01*
Y68588D01*
X165636Y69740D01*
X165040Y70772D01*
X164197Y71615D01*
X163165Y72211D01*
X162013Y72520D01*
D02*
G37*
G36*
X188992Y61945D02*
X186039D01*
Y58992D01*
X188992D01*
Y61945D01*
D02*
G37*
G36*
X184039D02*
X181087D01*
Y58992D01*
X184039D01*
Y61945D01*
D02*
G37*
G36*
X188992Y56992D02*
X186039D01*
Y54039D01*
X188992D01*
Y56992D01*
D02*
G37*
G36*
X184039D02*
X181087D01*
Y54039D01*
X184039D01*
Y56992D01*
D02*
G37*
G36*
X165945Y62520D02*
X156890D01*
Y53465D01*
X165945D01*
Y62520D01*
D02*
G37*
G36*
X146267Y294264D02*
Y289928D01*
X149200D01*
X146267Y294264D01*
D02*
G37*
%LPD*%
D10*
X93016Y-19820D02*
Y-27691D01*
X89081D01*
X87769Y-26379D01*
Y-25067D01*
X89081Y-23755D01*
X93016D01*
X89081D01*
X87769Y-22444D01*
Y-21132D01*
X89081Y-19820D01*
X93016D01*
X83833Y-27691D02*
X81209D01*
X79897Y-26379D01*
Y-23755D01*
X81209Y-22444D01*
X83833D01*
X85145Y-23755D01*
Y-26379D01*
X83833Y-27691D01*
X75961Y-21132D02*
Y-22444D01*
X77273D01*
X74650D01*
X75961D01*
Y-26379D01*
X74650Y-27691D01*
X69402Y-21132D02*
Y-22444D01*
X70714D01*
X68090D01*
X69402D01*
Y-26379D01*
X68090Y-27691D01*
X62842D02*
X60219D01*
X58907Y-26379D01*
Y-23755D01*
X60219Y-22444D01*
X62842D01*
X64154Y-23755D01*
Y-26379D01*
X62842Y-27691D01*
X56283D02*
Y-22444D01*
X54971D01*
X53659Y-23755D01*
Y-27691D01*
Y-23755D01*
X52347Y-22444D01*
X51035Y-23755D01*
Y-27691D01*
X40540Y-19820D02*
Y-27691D01*
X35292D01*
X31356Y-22444D02*
X28732D01*
X27421Y-23755D01*
Y-27691D01*
X31356D01*
X32668Y-26379D01*
X31356Y-25067D01*
X27421D01*
X24797Y-22444D02*
Y-26379D01*
X23485Y-27691D01*
X19549D01*
Y-29003D01*
X20861Y-30315D01*
X22173D01*
X19549Y-27691D02*
Y-22444D01*
X12990Y-27691D02*
X15613D01*
X16925Y-26379D01*
Y-23755D01*
X15613Y-22444D01*
X12990D01*
X11678Y-23755D01*
Y-25067D01*
X16925D01*
X9054Y-22444D02*
Y-27691D01*
Y-25067D01*
X7742Y-23755D01*
X6430Y-22444D01*
X5118D01*
D62*
X129921Y145669D02*
X160450D01*
X171000Y156220D02*
Y184000D01*
X160450Y145669D02*
X171000Y156220D01*
X157500Y150000D02*
X165000Y157500D01*
Y180000D01*
X161457Y183543D02*
X165000Y180000D01*
X118275Y134023D02*
X129921Y145669D01*
X118275Y98275D02*
Y134023D01*
X118000Y142000D02*
X126000Y150000D01*
X157500D01*
X163000Y192000D02*
X171000Y184000D01*
X155157Y183543D02*
X161457D01*
X148000Y192000D02*
X163000D01*
X145158Y189157D02*
X148000Y192000D01*
X145158Y183543D02*
Y189157D01*
X271000Y203000D02*
X278000Y210000D01*
X271000Y189000D02*
Y203000D01*
X278000Y210000D02*
X284000D01*
X290000Y216000D01*
Y229000D01*
X310000Y181000D02*
X317543Y188543D01*
X271000Y189000D02*
X279000Y181000D01*
X310000D01*
X317543Y188543D02*
X325157D01*
X303000Y112000D02*
X309543Y118543D01*
X303000Y75000D02*
Y112000D01*
X309543Y118543D02*
X325157D01*
X316543Y108543D02*
X325157D01*
X312000Y104000D02*
X316543Y108543D01*
X312000Y82000D02*
Y104000D01*
X182861Y15356D02*
X179974D01*
X181418D01*
Y24014D01*
X182861Y22571D01*
X175645D02*
X174202Y24014D01*
X171316D01*
X169873Y22571D01*
Y16799D01*
X171316Y15356D01*
X174202D01*
X175645Y16799D01*
Y22571D01*
X166987Y15356D02*
X161214Y21128D01*
X158328Y22571D02*
X156885Y24014D01*
X153999D01*
X152556Y22571D01*
Y16799D01*
X153999Y15356D01*
X156885D01*
X158328Y16799D01*
Y22571D01*
X143897Y24014D02*
X146783Y22571D01*
X149669Y19685D01*
Y16799D01*
X148226Y15356D01*
X145340D01*
X143897Y16799D01*
Y18242D01*
X145340Y19685D01*
X149669D01*
X141011Y15356D02*
X135238Y21128D01*
X126580Y15356D02*
X132352D01*
X126580Y21128D01*
Y22571D01*
X128023Y24014D01*
X130909D01*
X132352Y22571D01*
X123694D02*
X122250Y24014D01*
X119364D01*
X117921Y22571D01*
Y16799D01*
X119364Y15356D01*
X122250D01*
X123694Y16799D01*
Y22571D01*
X109262Y15356D02*
X115035D01*
X109262Y21128D01*
Y22571D01*
X110705Y24014D01*
X113592D01*
X115035Y22571D01*
X100604Y15356D02*
X106376D01*
X100604Y21128D01*
Y22571D01*
X102047Y24014D01*
X104933D01*
X106376Y22571D01*
D65*
X348701Y102362D02*
D03*
X438701D02*
D03*
X348701Y125984D02*
D03*
X438701D02*
D03*
X348701Y204724D02*
D03*
X438701D02*
D03*
X348701Y181102D02*
D03*
X438701D02*
D03*
D66*
X175197Y259842D02*
D03*
X96457Y185039D02*
D03*
D67*
X155512Y259842D02*
D03*
X116142Y185039D02*
D03*
D68*
X19685Y237717D02*
D03*
Y297716D02*
D03*
X19685Y215354D02*
D03*
Y115354D02*
D03*
Y91181D02*
D03*
Y11181D02*
D03*
X398819Y74803D02*
D03*
X498819D02*
D03*
Y232283D02*
D03*
X398819D02*
D03*
D69*
X19685Y257716D02*
D03*
Y277716D02*
D03*
X19685Y195354D02*
D03*
Y175354D02*
D03*
Y155354D02*
D03*
Y135354D02*
D03*
Y71181D02*
D03*
Y51181D02*
D03*
Y31181D02*
D03*
X418819Y74803D02*
D03*
X438819D02*
D03*
X458819D02*
D03*
X478819D02*
D03*
Y232283D02*
D03*
X458819D02*
D03*
X438819D02*
D03*
X418819D02*
D03*
D70*
X161417Y57992D02*
D03*
X185039D02*
D03*
D71*
X161417Y67992D02*
D03*
X185039D02*
D03*
D72*
X145158Y183543D02*
D03*
X155157D02*
D03*
X145158Y173543D02*
D03*
X155157D02*
D03*
Y163543D02*
D03*
X145158D02*
D03*
X335157Y98543D02*
D03*
X325157D02*
D03*
X335157Y108543D02*
D03*
X325157D02*
D03*
X335157Y118543D02*
D03*
X325157D02*
D03*
X335157Y128543D02*
D03*
X325157D02*
D03*
X335157Y178543D02*
D03*
X325157D02*
D03*
X335157Y188543D02*
D03*
X325157D02*
D03*
X335157Y198543D02*
D03*
X325157D02*
D03*
Y208543D02*
D03*
X335157D02*
D03*
D73*
X150000Y87000D02*
D03*
X165834Y145190D02*
D03*
X144000Y118000D02*
D03*
X118275Y98275D02*
D03*
X118000Y142000D02*
D03*
X134000Y127000D02*
D03*
Y84000D02*
D03*
X150000Y137000D02*
D03*
X291000Y193000D02*
D03*
X300000D02*
D03*
X309000D02*
D03*
X290000Y113000D02*
D03*
X278000D02*
D03*
X254000D02*
D03*
X266000D02*
D03*
X282000Y193000D02*
D03*
X290000Y229000D02*
D03*
X303000Y75000D02*
D03*
X312000Y82000D02*
D03*
M02*
