G04*
G04 #@! TF.GenerationSoftware,Altium Limited,Altium Designer,22.5.1 (42)*
G04*
G04 Layer_Color=32768*
%FSLAX25Y25*%
%MOIN*%
G70*
G04*
G04 #@! TF.SameCoordinates,AD146B9C-557F-4D5F-B811-4A91A8D423AC*
G04*
G04*
G04 #@! TF.FilePolarity,Positive*
G04*
G01*
G75*
%ADD10C,0.01181*%
%ADD78C,0.01968*%
%ADD82C,0.05906*%
D10*
X1181Y-19820D02*
Y-27691D01*
X5117D01*
X6429Y-26379D01*
Y-25067D01*
X5117Y-23755D01*
X1181D01*
X5117D01*
X6429Y-22444D01*
Y-21132D01*
X5117Y-19820D01*
X1181D01*
X10364Y-27691D02*
X12988D01*
X14300Y-26379D01*
Y-23755D01*
X12988Y-22444D01*
X10364D01*
X9053Y-23755D01*
Y-26379D01*
X10364Y-27691D01*
X18236Y-22444D02*
X20860D01*
X22172Y-23755D01*
Y-27691D01*
X18236D01*
X16924Y-26379D01*
X18236Y-25067D01*
X22172D01*
X24795Y-22444D02*
Y-27691D01*
Y-25067D01*
X26107Y-23755D01*
X27419Y-22444D01*
X28731D01*
X37915Y-19820D02*
Y-27691D01*
X33979D01*
X32667Y-26379D01*
Y-23755D01*
X33979Y-22444D01*
X37915D01*
X49722Y-27691D02*
X52346D01*
X53658Y-26379D01*
Y-23755D01*
X52346Y-22444D01*
X49722D01*
X48410Y-23755D01*
Y-26379D01*
X49722Y-27691D01*
X56282Y-22444D02*
Y-26379D01*
X57593Y-27691D01*
X61529D01*
Y-22444D01*
X65465Y-21132D02*
Y-22444D01*
X64153D01*
X66777D01*
X65465D01*
Y-26379D01*
X66777Y-27691D01*
X78584D02*
X81208D01*
X79896D01*
Y-19820D01*
X78584D01*
X86455Y-22444D02*
X89079D01*
X90391Y-23755D01*
Y-27691D01*
X86455D01*
X85144Y-26379D01*
X86455Y-25067D01*
X90391D01*
X93015Y-22444D02*
Y-26379D01*
X94327Y-27691D01*
X98263D01*
Y-29003D01*
X96951Y-30315D01*
X95639D01*
X98263Y-27691D02*
Y-22444D01*
X104822Y-27691D02*
X102198D01*
X100886Y-26379D01*
Y-23755D01*
X102198Y-22444D01*
X104822D01*
X106134Y-23755D01*
Y-25067D01*
X100886D01*
X108758Y-22444D02*
Y-27691D01*
Y-25067D01*
X110070Y-23755D01*
X111382Y-22444D01*
X112694D01*
D78*
X224410Y287402D02*
X224367Y288403D01*
X224240Y289398D01*
X224028Y290378D01*
X223735Y291336D01*
X223361Y292267D01*
X222910Y293162D01*
X222384Y294015D01*
X221788Y294822D01*
X221126Y295574D01*
X220402Y296268D01*
X219622Y296898D01*
X218791Y297459D01*
X217916Y297948D01*
X217002Y298361D01*
X216057Y298695D01*
X215087Y298948D01*
X214099Y299117D01*
X213100Y299202D01*
X212097D01*
X211098Y299117D01*
X210110Y298948D01*
X209140Y298695D01*
X208195Y298361D01*
X207281Y297948D01*
X206406Y297459D01*
X205575Y296898D01*
X204795Y296268D01*
X204071Y295574D01*
X203409Y294822D01*
X202813Y294015D01*
X202287Y293162D01*
X201836Y292267D01*
X201462Y291336D01*
X201168Y290378D01*
X200957Y289398D01*
X200830Y288403D01*
X200787Y287402D01*
X200830Y286400D01*
X200957Y285405D01*
X201168Y284425D01*
X201462Y283467D01*
X201836Y282537D01*
X202287Y281641D01*
X202813Y280788D01*
X203409Y279982D01*
X204071Y279229D01*
X204795Y278535D01*
X205575Y277906D01*
X206406Y277344D01*
X207281Y276855D01*
X208195Y276442D01*
X209140Y276108D01*
X210110Y275856D01*
X211098Y275686D01*
X212097Y275601D01*
X213100D01*
X214099Y275686D01*
X215087Y275856D01*
X216057Y276108D01*
X217002Y276442D01*
X217916Y276855D01*
X218791Y277344D01*
X219622Y277906D01*
X220402Y278535D01*
X221126Y279229D01*
X221788Y279982D01*
X222384Y280788D01*
X222910Y281641D01*
X223361Y282537D01*
X223735Y283467D01*
X224028Y284425D01*
X224240Y285405D01*
X224367Y286400D01*
X224410Y287402D01*
Y19685D02*
X224367Y20687D01*
X224240Y21681D01*
X224028Y22661D01*
X223735Y23620D01*
X223361Y24550D01*
X222910Y25445D01*
X222384Y26299D01*
X221788Y27105D01*
X221126Y27858D01*
X220402Y28551D01*
X219622Y29181D01*
X218791Y29743D01*
X217916Y30231D01*
X217002Y30644D01*
X216057Y30978D01*
X215087Y31231D01*
X214099Y31400D01*
X213100Y31485D01*
X212097D01*
X211098Y31400D01*
X210110Y31231D01*
X209140Y30978D01*
X208195Y30644D01*
X207281Y30231D01*
X206406Y29743D01*
X205575Y29181D01*
X204795Y28551D01*
X204071Y27858D01*
X203409Y27105D01*
X202813Y26299D01*
X202287Y25445D01*
X201836Y24550D01*
X201462Y23620D01*
X201168Y22661D01*
X200957Y21681D01*
X200830Y20687D01*
X200787Y19685D01*
X200830Y18683D01*
X200957Y17689D01*
X201168Y16709D01*
X201462Y15750D01*
X201836Y14820D01*
X202287Y13925D01*
X202813Y13071D01*
X203409Y12265D01*
X204071Y11513D01*
X204795Y10819D01*
X205575Y10189D01*
X206406Y9628D01*
X207281Y9139D01*
X208195Y8726D01*
X209140Y8392D01*
X210110Y8139D01*
X211098Y7970D01*
X212097Y7885D01*
X213100D01*
X214099Y7970D01*
X215087Y8139D01*
X216057Y8392D01*
X217002Y8726D01*
X217916Y9139D01*
X218791Y9628D01*
X219622Y10189D01*
X220402Y10819D01*
X221126Y11513D01*
X221788Y12265D01*
X222384Y13071D01*
X222910Y13925D01*
X223361Y14820D01*
X223735Y15750D01*
X224028Y16709D01*
X224240Y17689D01*
X224367Y18683D01*
X224410Y19685D01*
X78740Y287402D02*
X78698Y288403D01*
X78570Y289398D01*
X78359Y290378D01*
X78066Y291336D01*
X77692Y292267D01*
X77240Y293162D01*
X76715Y294016D01*
X76118Y294822D01*
X75456Y295574D01*
X74732Y296268D01*
X73952Y296898D01*
X73122Y297459D01*
X72246Y297948D01*
X71333Y298361D01*
X70388Y298695D01*
X69418Y298948D01*
X68429Y299117D01*
X67430Y299202D01*
X66428D01*
X65429Y299117D01*
X64441Y298948D01*
X63471Y298695D01*
X62525Y298361D01*
X61612Y297948D01*
X60737Y297459D01*
X59906Y296898D01*
X59126Y296268D01*
X58402Y295574D01*
X57740Y294822D01*
X57144Y294015D01*
X56618Y293162D01*
X56167Y292267D01*
X55793Y291336D01*
X55499Y290378D01*
X55288Y289398D01*
X55161Y288403D01*
X55118Y287402D01*
X55161Y286400D01*
X55288Y285405D01*
X55499Y284425D01*
X55793Y283467D01*
X56167Y282537D01*
X56618Y281641D01*
X57144Y280788D01*
X57740Y279982D01*
X58402Y279229D01*
X59126Y278535D01*
X59906Y277906D01*
X60737Y277344D01*
X61612Y276855D01*
X62525Y276442D01*
X63471Y276108D01*
X64441Y275856D01*
X65429Y275686D01*
X66428Y275601D01*
X67430D01*
X68429Y275686D01*
X69418Y275856D01*
X70388Y276108D01*
X71333Y276442D01*
X72246Y276855D01*
X73122Y277344D01*
X73952Y277906D01*
X74732Y278535D01*
X75456Y279229D01*
X76119Y279982D01*
X76715Y280788D01*
X77240Y281641D01*
X77692Y282537D01*
X78066Y283467D01*
X78359Y284425D01*
X78570Y285405D01*
X78698Y286400D01*
X78740Y287402D01*
Y19685D02*
X78698Y20687D01*
X78570Y21681D01*
X78359Y22661D01*
X78066Y23620D01*
X77692Y24550D01*
X77240Y25445D01*
X76715Y26299D01*
X76118Y27105D01*
X75456Y27858D01*
X74732Y28551D01*
X73952Y29181D01*
X73122Y29743D01*
X72246Y30231D01*
X71333Y30644D01*
X70388Y30978D01*
X69418Y31231D01*
X68429Y31400D01*
X67430Y31485D01*
X66428D01*
X65429Y31400D01*
X64441Y31231D01*
X63471Y30978D01*
X62525Y30644D01*
X61612Y30231D01*
X60737Y29743D01*
X59906Y29181D01*
X59126Y28551D01*
X58402Y27858D01*
X57740Y27105D01*
X57144Y26299D01*
X56618Y25445D01*
X56167Y24550D01*
X55793Y23620D01*
X55499Y22661D01*
X55288Y21681D01*
X55161Y20687D01*
X55118Y19685D01*
X55161Y18683D01*
X55288Y17689D01*
X55499Y16709D01*
X55793Y15750D01*
X56167Y14820D01*
X56618Y13925D01*
X57144Y13071D01*
X57740Y12265D01*
X58402Y11513D01*
X59126Y10819D01*
X59906Y10189D01*
X60737Y9628D01*
X61612Y9139D01*
X62525Y8726D01*
X63471Y8392D01*
X64441Y8139D01*
X65429Y7970D01*
X66428Y7885D01*
X67430D01*
X68429Y7970D01*
X69418Y8139D01*
X70388Y8392D01*
X71333Y8726D01*
X72246Y9139D01*
X73122Y9628D01*
X73952Y10189D01*
X74732Y10819D01*
X75456Y11513D01*
X76119Y12265D01*
X76715Y13071D01*
X77240Y13925D01*
X77692Y14820D01*
X78066Y15750D01*
X78359Y16709D01*
X78570Y17689D01*
X78698Y18683D01*
X78740Y19685D01*
X523622D02*
X523580Y20687D01*
X523452Y21681D01*
X523241Y22661D01*
X522947Y23620D01*
X522574Y24550D01*
X522122Y25445D01*
X521597Y26299D01*
X521000Y27105D01*
X520338Y27858D01*
X519614Y28551D01*
X518834Y29181D01*
X518004Y29743D01*
X517128Y30231D01*
X516215Y30644D01*
X515270Y30978D01*
X514299Y31231D01*
X513311Y31400D01*
X512312Y31485D01*
X511310D01*
X510311Y31400D01*
X509323Y31231D01*
X508353Y30978D01*
X507407Y30644D01*
X506494Y30231D01*
X505618Y29743D01*
X504788Y29181D01*
X504008Y28551D01*
X503284Y27858D01*
X502622Y27105D01*
X502026Y26299D01*
X501500Y25445D01*
X501049Y24550D01*
X500675Y23620D01*
X500381Y22661D01*
X500170Y21681D01*
X500043Y20687D01*
X500000Y19685D01*
X500043Y18683D01*
X500170Y17689D01*
X500381Y16709D01*
X500675Y15750D01*
X501049Y14820D01*
X501500Y13925D01*
X502026Y13071D01*
X502622Y12265D01*
X503284Y11513D01*
X504008Y10819D01*
X504788Y10189D01*
X505618Y9628D01*
X506494Y9139D01*
X507407Y8726D01*
X508353Y8392D01*
X509323Y8139D01*
X510311Y7970D01*
X511310Y7885D01*
X512312D01*
X513311Y7970D01*
X514299Y8139D01*
X515270Y8392D01*
X516215Y8726D01*
X517128Y9139D01*
X518004Y9628D01*
X518834Y10189D01*
X519614Y10819D01*
X520338Y11513D01*
X521000Y12265D01*
X521597Y13071D01*
X522122Y13925D01*
X522574Y14820D01*
X522947Y15750D01*
X523241Y16709D01*
X523452Y17689D01*
X523580Y18683D01*
X523622Y19685D01*
Y287402D02*
X523580Y288403D01*
X523452Y289398D01*
X523241Y290378D01*
X522947Y291336D01*
X522574Y292267D01*
X522122Y293162D01*
X521597Y294015D01*
X521000Y294822D01*
X520338Y295574D01*
X519614Y296268D01*
X518834Y296898D01*
X518004Y297459D01*
X517128Y297948D01*
X516215Y298361D01*
X515270Y298695D01*
X514299Y298948D01*
X513311Y299117D01*
X512312Y299202D01*
X511310D01*
X510311Y299117D01*
X509323Y298948D01*
X508353Y298695D01*
X507407Y298361D01*
X506494Y297948D01*
X505618Y297459D01*
X504788Y296898D01*
X504008Y296268D01*
X503284Y295574D01*
X502622Y294822D01*
X502026Y294015D01*
X501500Y293162D01*
X501049Y292267D01*
X500675Y291336D01*
X500381Y290378D01*
X500170Y289398D01*
X500043Y288403D01*
X500000Y287402D01*
X500043Y286400D01*
X500170Y285405D01*
X500381Y284425D01*
X500675Y283467D01*
X501049Y282537D01*
X501500Y281641D01*
X502026Y280788D01*
X502622Y279982D01*
X503284Y279229D01*
X504008Y278535D01*
X504788Y277906D01*
X505618Y277344D01*
X506494Y276855D01*
X507407Y276442D01*
X508353Y276108D01*
X509323Y275856D01*
X510311Y275686D01*
X511310Y275601D01*
X512312D01*
X513311Y275686D01*
X514299Y275856D01*
X515270Y276108D01*
X516215Y276442D01*
X517128Y276855D01*
X518004Y277344D01*
X518834Y277906D01*
X519614Y278535D01*
X520338Y279229D01*
X521000Y279982D01*
X521597Y280788D01*
X522122Y281641D01*
X522574Y282537D01*
X522947Y283467D01*
X523241Y284425D01*
X523452Y285405D01*
X523580Y286400D01*
X523622Y287402D01*
X0Y0D02*
X531496D01*
X531496Y307087D02*
X531496Y0D01*
X0Y307087D02*
X531496D01*
X0Y0D02*
Y307087D01*
D82*
X480315Y11811D02*
X506021Y54655D01*
X480315Y295276D02*
X503937Y251969D01*
X212598Y70866D02*
Y137795D01*
Y169291D02*
Y236221D01*
X236221Y153543D02*
X460630D01*
M02*
