G04*
G04 #@! TF.GenerationSoftware,Altium Limited,Altium Designer,22.5.1 (42)*
G04*
G04 Layer_Color=32896*
%FSLAX25Y25*%
%MOIN*%
G70*
G04*
G04 #@! TF.SameCoordinates,AD146B9C-557F-4D5F-B811-4A91A8D423AC*
G04*
G04*
G04 #@! TF.FilePolarity,Positive*
G04*
G01*
G75*
%ADD10C,0.01181*%
%ADD12C,0.00787*%
%ADD13C,0.00984*%
%ADD15C,0.01378*%
%ADD16C,0.01000*%
%ADD77C,0.00492*%
G36*
X491142Y120079D02*
X486221Y118110D01*
X489173Y115157D01*
X491142Y120079D01*
D02*
G37*
G36*
X178391Y298054D02*
X178738Y297999D01*
X179084Y297926D01*
X179393Y297835D01*
X179685Y297708D01*
X179976Y297580D01*
X180213Y297434D01*
X180450Y297307D01*
X180651Y297161D01*
X180833Y297015D01*
X180979Y296888D01*
X181106Y296760D01*
X181216Y296669D01*
X181288Y296596D01*
X181325Y296542D01*
X181343Y296523D01*
X181562Y296214D01*
X181762Y295867D01*
X181926Y295485D01*
X182072Y295102D01*
X182199Y294683D01*
X182309Y294264D01*
X182400Y293845D01*
X182455Y293444D01*
X182509Y293061D01*
X182546Y292697D01*
X182582Y292369D01*
X182600Y292078D01*
X182618Y291841D01*
Y291659D01*
Y291604D01*
Y291549D01*
Y291531D01*
Y291513D01*
X182600Y290893D01*
X182564Y290329D01*
X182509Y289800D01*
X182418Y289327D01*
X182327Y288871D01*
X182236Y288470D01*
X182126Y288124D01*
X181999Y287796D01*
X181890Y287523D01*
X181780Y287286D01*
X181689Y287085D01*
X181580Y286921D01*
X181507Y286794D01*
X181452Y286703D01*
X181416Y286648D01*
X181398Y286630D01*
X181161Y286375D01*
X180906Y286138D01*
X180651Y285938D01*
X180377Y285773D01*
X180122Y285628D01*
X179849Y285519D01*
X179594Y285409D01*
X179357Y285336D01*
X179120Y285282D01*
X178920Y285227D01*
X178719Y285209D01*
X178555Y285172D01*
X178428D01*
X178337Y285154D01*
X178246D01*
X177918Y285172D01*
X177608Y285209D01*
X177316Y285263D01*
X177043Y285336D01*
X176770Y285427D01*
X176533Y285519D01*
X176314Y285628D01*
X176114Y285737D01*
X175932Y285846D01*
X175786Y285956D01*
X175640Y286047D01*
X175531Y286138D01*
X175440Y286211D01*
X175385Y286265D01*
X175349Y286302D01*
X175330Y286320D01*
X175130Y286539D01*
X174948Y286794D01*
X174802Y287049D01*
X174674Y287304D01*
X174547Y287559D01*
X174456Y287814D01*
X174328Y288324D01*
X174274Y288543D01*
X174237Y288762D01*
X174219Y288944D01*
X174201Y289108D01*
X174183Y289254D01*
Y289345D01*
Y289418D01*
Y289436D01*
X174201Y289782D01*
X174237Y290092D01*
X174292Y290401D01*
X174347Y290675D01*
X174438Y290948D01*
X174529Y291185D01*
X174620Y291422D01*
X174729Y291622D01*
X174838Y291804D01*
X174930Y291968D01*
X175021Y292096D01*
X175112Y292223D01*
X175166Y292315D01*
X175221Y292369D01*
X175258Y292406D01*
X175276Y292424D01*
X175476Y292624D01*
X175695Y292807D01*
X175914Y292970D01*
X176132Y293098D01*
X176351Y293207D01*
X176569Y293298D01*
X176970Y293444D01*
X177152Y293499D01*
X177335Y293535D01*
X177480Y293553D01*
X177608Y293572D01*
X177717Y293590D01*
X177863D01*
X178118Y293572D01*
X178355Y293535D01*
X178574Y293499D01*
X178792Y293426D01*
X179175Y293244D01*
X179503Y293061D01*
X179758Y292861D01*
X179867Y292770D01*
X179958Y292679D01*
X180031Y292606D01*
X180086Y292570D01*
X180104Y292533D01*
X180122Y292515D01*
X180086Y292898D01*
X180049Y293262D01*
X180013Y293590D01*
X179958Y293881D01*
X179904Y294137D01*
X179849Y294373D01*
X179794Y294574D01*
X179721Y294756D01*
X179667Y294920D01*
X179630Y295047D01*
X179576Y295157D01*
X179539Y295230D01*
X179503Y295303D01*
X179466Y295339D01*
X179448Y295375D01*
X179248Y295612D01*
X179029Y295776D01*
X178811Y295904D01*
X178610Y295977D01*
X178428Y296031D01*
X178282Y296050D01*
X178191Y296068D01*
X178155D01*
X177954Y296050D01*
X177754Y296013D01*
X177590Y295958D01*
X177462Y295904D01*
X177353Y295831D01*
X177280Y295776D01*
X177225Y295740D01*
X177207Y295722D01*
X177080Y295576D01*
X176988Y295412D01*
X176897Y295230D01*
X176843Y295066D01*
X176806Y294902D01*
X176770Y294774D01*
X176752Y294701D01*
Y294665D01*
X174419Y294920D01*
X174547Y295467D01*
X174729Y295922D01*
X174930Y296323D01*
X175130Y296669D01*
X175330Y296924D01*
X175403Y297015D01*
X175494Y297106D01*
X175549Y297161D01*
X175604Y297216D01*
X175622Y297252D01*
X175640D01*
X175822Y297398D01*
X176005Y297526D01*
X176405Y297726D01*
X176806Y297872D01*
X177171Y297963D01*
X177499Y298036D01*
X177644Y298054D01*
X177772D01*
X177863Y298072D01*
X178009D01*
X178391Y298054D01*
D02*
G37*
G36*
X508082Y100108D02*
X496582D01*
Y129698D01*
X508082D01*
Y100108D01*
D02*
G37*
G36*
X490367Y192690D02*
X490585Y192635D01*
X490804Y192553D01*
X491078Y192444D01*
X491324Y192307D01*
X491570Y192088D01*
X491597Y192061D01*
X491652Y191979D01*
X491761Y191842D01*
X491870Y191678D01*
X491980Y191432D01*
X492089Y191186D01*
X492144Y190913D01*
X492171Y190585D01*
Y190448D01*
X492144Y190284D01*
X492089Y190065D01*
X492034Y189847D01*
X491925Y189573D01*
X491761Y189327D01*
X491570Y189081D01*
X491542Y189054D01*
X491460Y188999D01*
X491324Y188890D01*
X491132Y188780D01*
X490913Y188671D01*
X490667Y188562D01*
X490394Y188507D01*
X490066Y188480D01*
X490039D01*
X489929D01*
X489765Y188507D01*
X489546Y188562D01*
X489300Y188616D01*
X489054Y188726D01*
X488808Y188890D01*
X488562Y189081D01*
X488535Y189108D01*
X488453Y189190D01*
X488371Y189327D01*
X488234Y189491D01*
X488125Y189710D01*
X488043Y189983D01*
X487961Y190257D01*
X487933Y190585D01*
Y190721D01*
X487961Y190885D01*
X488015Y191104D01*
X488097Y191350D01*
X488207Y191596D01*
X488343Y191842D01*
X488562Y192088D01*
X488590Y192116D01*
X488672Y192198D01*
X488808Y192280D01*
X488972Y192417D01*
X489218Y192526D01*
X489465Y192608D01*
X489738Y192690D01*
X490066Y192717D01*
X490093D01*
X490203D01*
X490367Y192690D01*
D02*
G37*
G36*
X476259Y192717D02*
X476423D01*
X476587Y192690D01*
X476779Y192663D01*
X477025Y192635D01*
X477298Y192581D01*
X477599Y192526D01*
X477927Y192471D01*
X478310Y192389D01*
X478720Y192307D01*
X479157Y192198D01*
X479649Y192088D01*
X482493Y191378D01*
X482520D01*
X482547Y191350D01*
X482657D01*
X482766Y191323D01*
X482903Y191296D01*
X483067Y191268D01*
X483504Y191186D01*
X484024Y191104D01*
X484625Y191022D01*
X485336Y190940D01*
X486074Y190858D01*
Y190284D01*
X486047D01*
X485992D01*
X485910D01*
X485801Y190257D01*
X485664D01*
X485500Y190229D01*
X485063Y190175D01*
X484543Y190093D01*
X483942Y189983D01*
X483258Y189847D01*
X482493Y189682D01*
X479649Y188999D01*
X479622D01*
X479540Y188972D01*
X479403Y188944D01*
X479239Y188917D01*
X479021Y188862D01*
X478774Y188808D01*
X478228Y188698D01*
X477626Y188589D01*
X477025Y188480D01*
X476451Y188425D01*
X476205Y188398D01*
X475986D01*
X475931D01*
X475822D01*
X475630Y188425D01*
X475412Y188480D01*
X475138Y188534D01*
X474865Y188644D01*
X474619Y188780D01*
X474373Y188972D01*
X474345Y188999D01*
X474263Y189081D01*
X474181Y189218D01*
X474045Y189409D01*
X473935Y189628D01*
X473853Y189901D01*
X473771Y190202D01*
X473744Y190557D01*
Y190721D01*
X473771Y190885D01*
X473826Y191104D01*
X473908Y191350D01*
X474017Y191596D01*
X474154Y191870D01*
X474373Y192116D01*
X474400Y192143D01*
X474482Y192225D01*
X474619Y192307D01*
X474810Y192444D01*
X475029Y192553D01*
X475302Y192635D01*
X475603Y192717D01*
X475958Y192745D01*
X476013D01*
X476068D01*
X476150D01*
X476259Y192717D01*
D02*
G37*
G36*
X508347Y172772D02*
X499175D01*
Y206693D01*
X508347D01*
Y172772D01*
D02*
G37*
%LPC*%
G36*
X178355Y291804D02*
X178246D01*
X177991Y291786D01*
X177754Y291713D01*
X177553Y291622D01*
X177371Y291513D01*
X177225Y291404D01*
X177134Y291312D01*
X177061Y291240D01*
X177043Y291221D01*
X176879Y290985D01*
X176752Y290693D01*
X176679Y290383D01*
X176606Y290092D01*
X176569Y289818D01*
X176551Y289600D01*
Y289527D01*
Y289454D01*
Y289418D01*
Y289399D01*
X176569Y288980D01*
X176624Y288616D01*
X176697Y288324D01*
X176770Y288088D01*
X176861Y287905D01*
X176934Y287778D01*
X176988Y287687D01*
X177007Y287668D01*
X177189Y287504D01*
X177371Y287377D01*
X177571Y287286D01*
X177735Y287231D01*
X177900Y287195D01*
X178027Y287158D01*
X178136D01*
X178391Y287195D01*
X178628Y287268D01*
X178829Y287359D01*
X179011Y287486D01*
X179157Y287596D01*
X179284Y287705D01*
X179357Y287778D01*
X179375Y287796D01*
X179558Y288051D01*
X179685Y288343D01*
X179776Y288652D01*
X179831Y288944D01*
X179867Y289217D01*
X179904Y289418D01*
Y289509D01*
Y289563D01*
Y289600D01*
Y289618D01*
X179885Y290001D01*
X179831Y290329D01*
X179758Y290602D01*
X179667Y290839D01*
X179576Y291003D01*
X179503Y291130D01*
X179448Y291221D01*
X179430Y291240D01*
X179248Y291422D01*
X179047Y291567D01*
X178847Y291659D01*
X178665Y291732D01*
X178501Y291768D01*
X178355Y291804D01*
D02*
G37*
G36*
X506114Y127729D02*
Y127664D01*
X504660D01*
Y126210D01*
X506114D01*
Y126155D01*
X500332D01*
X504157Y126527D01*
Y127357D01*
X500332Y127729D01*
X498550D01*
Y126155D01*
X506114D01*
Y127729D01*
D02*
G37*
G36*
Y121444D02*
X498550D01*
Y115400D01*
X506114D01*
Y116930D01*
X502802D01*
Y119914D01*
X506114D01*
Y121444D01*
D02*
G37*
G36*
X498550Y114591D02*
Y112941D01*
X504146Y111017D01*
X498550Y109170D01*
Y107541D01*
X506114Y110230D01*
Y107541D01*
X498550D01*
X506114D01*
Y111881D01*
X498550Y114591D01*
D02*
G37*
G36*
X506114Y103650D02*
D01*
Y103585D01*
X504660D01*
Y102131D01*
X506114D01*
Y102076D01*
X500332D01*
X504157Y102448D01*
Y103279D01*
X500332Y103650D01*
X498550D01*
Y102076D01*
X506114D01*
Y103650D01*
D02*
G37*
%LPD*%
G36*
X501523Y116930D02*
X498550D01*
Y119914D01*
X501523D01*
Y116930D01*
D02*
G37*
%LPC*%
G36*
X506283Y204725D02*
X501239D01*
Y202712D01*
X501246Y202654D01*
X501253Y202516D01*
X501261Y202363D01*
X501282Y202202D01*
X501304Y202049D01*
X501341Y201911D01*
Y201903D01*
X501348Y201889D01*
X501355Y201867D01*
X501363Y201838D01*
X501399Y201750D01*
X501450Y201648D01*
X501516Y201532D01*
X501596Y201400D01*
X501691Y201276D01*
X501807Y201152D01*
Y201145D01*
X501822Y201138D01*
X501866Y201101D01*
X501938Y201043D01*
X502033Y200977D01*
X502150Y200897D01*
X502288Y200817D01*
X502449Y200737D01*
X502624Y200671D01*
X502631D01*
X502646Y200664D01*
X502675Y200657D01*
X502711Y200642D01*
X502755Y200635D01*
X502813Y200620D01*
X502879Y200606D01*
X502952Y200584D01*
X503032Y200569D01*
X503127Y200555D01*
X503222Y200540D01*
X503331Y200533D01*
X503557Y200511D01*
X503812Y200504D01*
X503914D01*
X503972Y200511D01*
X504031D01*
X504104Y200518D01*
X504184Y200525D01*
X504352Y200540D01*
X504527Y200569D01*
X504709Y200613D01*
X504884Y200664D01*
X504891D01*
X504906Y200671D01*
X504935Y200686D01*
X504978Y200700D01*
X505022Y200715D01*
X505073Y200744D01*
X505204Y200803D01*
X505343Y200875D01*
X505496Y200970D01*
X505642Y201080D01*
X505780Y201203D01*
X505795Y201218D01*
X505824Y201255D01*
X505868Y201313D01*
X505926Y201393D01*
X505992Y201495D01*
X506057Y201612D01*
X506123Y201758D01*
X506181Y201918D01*
Y201925D01*
X506189Y201933D01*
Y201954D01*
X506196Y201976D01*
X506211Y202056D01*
X506232Y202158D01*
X506254Y202282D01*
X506269Y202435D01*
X506276Y202618D01*
X506283Y202815D01*
Y200897D01*
Y204725D01*
D02*
G37*
G36*
Y200154D02*
X501239Y198200D01*
D01*
Y197121D01*
X506283Y195095D01*
Y200154D01*
D02*
G37*
G36*
Y194548D02*
X501239D01*
Y190538D01*
X506283D01*
Y191559D01*
X502959Y193607D01*
X506283D01*
Y194548D01*
D02*
G37*
G36*
X503746Y189642D02*
X503666D01*
X503615Y189634D01*
X503542D01*
X503462Y189627D01*
X503375Y189612D01*
X503273Y189598D01*
X503061Y189561D01*
X502821Y189503D01*
X502580Y189423D01*
X502463Y189372D01*
X502347Y189313D01*
X502340Y189306D01*
X502318Y189299D01*
X502288Y189277D01*
X502245Y189255D01*
X502194Y189219D01*
X502135Y189175D01*
X502070Y189124D01*
X501997Y189073D01*
X501924Y189007D01*
X501844Y188934D01*
X501764Y188854D01*
X501683Y188767D01*
X501611Y188672D01*
X501530Y188577D01*
X501399Y188351D01*
Y188344D01*
X501384Y188329D01*
X501377Y188300D01*
X501355Y188264D01*
X501341Y188213D01*
X501319Y188162D01*
X501297Y188089D01*
X501268Y188016D01*
X501246Y187936D01*
X501224Y187841D01*
X501202Y187739D01*
X501180Y187637D01*
X501151Y187404D01*
X501144Y187141D01*
Y187054D01*
X501151Y186988D01*
X501159Y186908D01*
X501166Y186813D01*
X501173Y186711D01*
X501195Y186602D01*
X501239Y186368D01*
X501312Y186128D01*
X501355Y186004D01*
X501406Y185887D01*
X501465Y185778D01*
X501538Y185676D01*
X501545Y185669D01*
X501552Y185654D01*
X501581Y185625D01*
X501611Y185588D01*
X501647Y185545D01*
X501698Y185501D01*
X501756Y185450D01*
X501822Y185391D01*
X501895Y185333D01*
X501975Y185275D01*
X502062Y185216D01*
X502165Y185166D01*
X502267Y185107D01*
X502376Y185063D01*
X502500Y185020D01*
X502624Y184991D01*
X502813Y186004D01*
X502806D01*
X502799Y186011D01*
X502755Y186026D01*
X502689Y186055D01*
X502602Y186099D01*
X502507Y186150D01*
X502412Y186223D01*
X502318Y186310D01*
X502230Y186412D01*
X502223Y186427D01*
X502194Y186463D01*
X502157Y186529D01*
X502121Y186609D01*
X502077Y186718D01*
X502048Y186842D01*
X502019Y186981D01*
X502011Y187141D01*
Y187207D01*
X502019Y187250D01*
X502026Y187309D01*
X502033Y187374D01*
X502048Y187447D01*
X502062Y187528D01*
X502113Y187695D01*
X502150Y187783D01*
X502194Y187870D01*
X502245Y187958D01*
X502296Y188045D01*
X502369Y188125D01*
X502442Y188205D01*
X502449Y188213D01*
X502463Y188220D01*
X502485Y188242D01*
X502522Y188264D01*
X502565Y188293D01*
X502617Y188329D01*
X502682Y188366D01*
X502755Y188395D01*
X502843Y188431D01*
X502937Y188468D01*
X503039Y188504D01*
X503149Y188533D01*
X503273Y188555D01*
X503411Y188577D01*
X503550Y188584D01*
X503703Y188592D01*
X503710D01*
X503739D01*
X503790D01*
X503849Y188584D01*
X503929Y188577D01*
X504009Y188570D01*
X504111Y188555D01*
X504213Y188541D01*
X504432Y188497D01*
X504658Y188424D01*
X504767Y188380D01*
X504869Y188329D01*
X504971Y188264D01*
X505059Y188198D01*
X505066Y188191D01*
X505081Y188176D01*
X505102Y188154D01*
X505131Y188125D01*
X505161Y188082D01*
X505204Y188038D01*
X505241Y187979D01*
X505285Y187914D01*
X505328Y187841D01*
X505365Y187768D01*
X505438Y187586D01*
X505467Y187484D01*
X505489Y187382D01*
X505503Y187265D01*
X505511Y187148D01*
Y187090D01*
X505503Y187032D01*
X505496Y186944D01*
X505481Y186849D01*
X505460Y186740D01*
X505430Y186624D01*
X505387Y186507D01*
Y186500D01*
X505379Y186492D01*
X505365Y186456D01*
X505336Y186390D01*
X505299Y186317D01*
X505256Y186230D01*
X505204Y186135D01*
X505146Y186040D01*
X505081Y185953D01*
X504432D01*
Y187119D01*
X503579D01*
Y184925D01*
X501144D01*
Y186981D01*
Y184925D01*
X505605D01*
X505620Y184940D01*
X505635Y184961D01*
X505656Y184983D01*
X505686Y185020D01*
X505715Y185056D01*
X505788Y185158D01*
X505868Y185297D01*
X505963Y185457D01*
X506057Y185639D01*
X506145Y185858D01*
Y185865D01*
X506152Y185887D01*
X506167Y185916D01*
X506181Y185960D01*
X506196Y186018D01*
X506218Y186084D01*
X506240Y186157D01*
X506261Y186237D01*
X506305Y186419D01*
X506342Y186631D01*
X506371Y186849D01*
X506378Y187083D01*
Y187163D01*
X506371Y187214D01*
Y187287D01*
X506364Y187367D01*
X506349Y187455D01*
X506334Y187557D01*
X506298Y187768D01*
X506240Y188001D01*
X506159Y188242D01*
X506108Y188351D01*
X506050Y188468D01*
X506043Y188475D01*
X506036Y188490D01*
X506014Y188526D01*
X505984Y188563D01*
X505955Y188614D01*
X505912Y188665D01*
X505861Y188730D01*
X505802Y188796D01*
X505671Y188942D01*
X505503Y189087D01*
X505314Y189226D01*
X505095Y189350D01*
X505088D01*
X505066Y189365D01*
X505029Y189379D01*
X504986Y189394D01*
X504927Y189416D01*
X504862Y189445D01*
X504782Y189467D01*
X504694Y189496D01*
X504599Y189525D01*
X504490Y189547D01*
X504264Y189598D01*
X504016Y189627D01*
X503746Y189642D01*
D02*
G37*
G36*
X506283Y183977D02*
X501239D01*
Y180143D01*
Y180237D01*
X502092D01*
Y182957D01*
X503207D01*
Y180427D01*
X504060D01*
Y182957D01*
X505430D01*
Y180143D01*
X501239D01*
X506283D01*
Y183977D01*
D02*
G37*
G36*
Y179275D02*
X501239D01*
Y174741D01*
Y177001D01*
X501246Y176935D01*
Y176855D01*
X501253Y176775D01*
Y176680D01*
X501275Y176490D01*
X501297Y176294D01*
X501333Y176111D01*
X501355Y176031D01*
X501377Y175958D01*
Y175951D01*
X501384Y175944D01*
X501406Y175900D01*
X501443Y175834D01*
X501486Y175747D01*
X501559Y175652D01*
X501640Y175557D01*
X501742Y175462D01*
X501866Y175375D01*
X501873D01*
X501880Y175368D01*
X501902Y175353D01*
X501924Y175339D01*
X501997Y175302D01*
X502092Y175258D01*
X502208Y175222D01*
X502340Y175186D01*
X502493Y175156D01*
X502653Y175149D01*
X502660D01*
X502675D01*
X502711D01*
X502748Y175156D01*
X502799D01*
X502850Y175164D01*
X502981Y175193D01*
X503134Y175229D01*
X503287Y175288D01*
X503447Y175375D01*
X503520Y175426D01*
X503593Y175484D01*
X503601Y175492D01*
X503608Y175499D01*
X503630Y175521D01*
X503652Y175550D01*
X503681Y175579D01*
X503717Y175623D01*
X503754Y175674D01*
X503790Y175732D01*
X503834Y175798D01*
X503870Y175878D01*
X503907Y175958D01*
X503943Y176046D01*
X503980Y176148D01*
X504009Y176250D01*
X504038Y176359D01*
X504060Y176483D01*
Y176476D01*
X504067Y176469D01*
X504096Y176425D01*
X504133Y176366D01*
X504184Y176294D01*
X504249Y176206D01*
X504315Y176119D01*
X504395Y176024D01*
X504483Y175944D01*
X504490Y175936D01*
X504527Y175900D01*
X504585Y175856D01*
X504672Y175791D01*
X504782Y175703D01*
X504854Y175659D01*
X504927Y175608D01*
X505008Y175550D01*
X505095Y175492D01*
X505197Y175426D01*
X505299Y175361D01*
X506283Y174741D01*
Y175965D01*
X505190Y176695D01*
X505183Y176702D01*
X505161Y176709D01*
X505131Y176731D01*
X505095Y176760D01*
X505051Y176789D01*
X504993Y176826D01*
X504876Y176906D01*
X504745Y177001D01*
X504629Y177088D01*
X504519Y177168D01*
X504483Y177205D01*
X504446Y177234D01*
X504439Y177241D01*
X504424Y177256D01*
X504395Y177285D01*
X504359Y177322D01*
X504330Y177373D01*
X504293Y177424D01*
X504264Y177482D01*
X504235Y177540D01*
Y177548D01*
X504228Y177569D01*
X504213Y177606D01*
X504206Y177664D01*
X504191Y177737D01*
X504184Y177824D01*
X504177Y177927D01*
Y178255D01*
X506283D01*
Y179275D01*
D02*
G37*
%LPD*%
G36*
X505430Y202807D02*
X505423Y202712D01*
Y202610D01*
X505409Y202508D01*
X505401Y202414D01*
X505387Y202333D01*
Y202319D01*
X505372Y202290D01*
X505358Y202246D01*
X505336Y202188D01*
X505306Y202122D01*
X505270Y202056D01*
X505226Y201991D01*
X505175Y201925D01*
X505168Y201918D01*
X505146Y201896D01*
X505110Y201867D01*
X505059Y201830D01*
X504993Y201794D01*
X504913Y201743D01*
X504811Y201707D01*
X504694Y201663D01*
X504687D01*
X504680Y201656D01*
X504658D01*
X504629Y201648D01*
X504599Y201634D01*
X504556Y201626D01*
X504446Y201605D01*
X504315Y201590D01*
X504162Y201568D01*
X503972Y201561D01*
X503768Y201553D01*
X503761D01*
X503739D01*
X503710D01*
X503674D01*
X503622D01*
X503564Y201561D01*
X503440Y201568D01*
X503295Y201583D01*
X503141Y201597D01*
X503003Y201626D01*
X502872Y201663D01*
X502864D01*
X502857Y201670D01*
X502821Y201685D01*
X502762Y201707D01*
X502689Y201736D01*
X502617Y201779D01*
X502536Y201830D01*
X502456Y201889D01*
X502383Y201954D01*
X502376Y201962D01*
X502354Y201983D01*
X502325Y202027D01*
X502288Y202078D01*
X502245Y202151D01*
X502208Y202231D01*
X502172Y202319D01*
X502143Y202421D01*
Y202428D01*
X502135Y202465D01*
X502128Y202523D01*
X502113Y202603D01*
Y202654D01*
X502106Y202720D01*
Y202785D01*
X502099Y202858D01*
Y202946D01*
X502092Y203041D01*
Y203704D01*
X505430D01*
Y202807D01*
D02*
G37*
G36*
X504286Y196961D02*
X502412Y197668D01*
X504286Y198353D01*
Y196961D01*
D02*
G37*
G36*
X506283Y196195D02*
X505139Y196633D01*
Y198659D01*
X506283Y199075D01*
Y196195D01*
D02*
G37*
G36*
X504636Y191479D02*
X501239D01*
Y193564D01*
X504636Y191479D01*
D02*
G37*
G36*
X503375Y177263D02*
X503367Y177117D01*
X503360Y176964D01*
X503353Y176811D01*
X503345Y176746D01*
X503338Y176687D01*
X503324Y176629D01*
X503316Y176593D01*
Y176585D01*
X503302Y176563D01*
X503287Y176527D01*
X503265Y176490D01*
X503200Y176396D01*
X503156Y176352D01*
X503105Y176308D01*
X503098Y176301D01*
X503076Y176294D01*
X503047Y176272D01*
X503003Y176250D01*
X502945Y176235D01*
X502879Y176213D01*
X502806Y176206D01*
X502726Y176199D01*
X502711D01*
X502682D01*
X502638Y176206D01*
X502580Y176213D01*
X502514Y176235D01*
X502449Y176257D01*
X502376Y176294D01*
X502318Y176337D01*
X502310Y176345D01*
X502288Y176359D01*
X502267Y176396D01*
X502230Y176439D01*
X502194Y176490D01*
X502165Y176556D01*
X502135Y176636D01*
X502113Y176724D01*
Y176731D01*
X502106Y176753D01*
Y176797D01*
X502099Y176862D01*
Y177023D01*
X502092Y177088D01*
Y178255D01*
X503375D01*
Y177263D01*
D02*
G37*
D10*
X84646Y287402D02*
X84617Y288404D01*
X84532Y289403D01*
X84391Y290396D01*
X84193Y291379D01*
X83941Y292349D01*
X83634Y293304D01*
X83273Y294239D01*
X82860Y295153D01*
X82396Y296042D01*
X81882Y296903D01*
X81321Y297734D01*
X80713Y298532D01*
X80062Y299293D01*
X79368Y300017D01*
X78634Y300701D01*
X77863Y301342D01*
X77057Y301938D01*
X76218Y302488D01*
X75350Y302989D01*
X74454Y303440D01*
X73535Y303840D01*
X72594Y304188D01*
X71636Y304482D01*
X70662Y304720D01*
X69676Y304904D01*
X68681Y305031D01*
X67681Y305102D01*
X66678Y305116D01*
X65677Y305074D01*
X64679Y304975D01*
X63688Y304819D01*
X62708Y304608D01*
X61741Y304342D01*
X60791Y304021D01*
X59861Y303647D01*
X58953Y303221D01*
X58071Y302745D01*
X57217Y302219D01*
X56394Y301646D01*
X55605Y301027D01*
X54853Y300364D01*
X54139Y299660D01*
X53465Y298917D01*
X52836Y298137D01*
X52251Y297322D01*
X51713Y296476D01*
X51224Y295601D01*
X50785Y294699D01*
X50398Y293774D01*
X50064Y292829D01*
X49784Y291866D01*
X49559Y290889D01*
X49390Y289900D01*
X49276Y288904D01*
X49220Y287903D01*
X49220Y286900D01*
X49276Y285899D01*
X49390Y284903D01*
X49559Y283914D01*
X49784Y282937D01*
X50064Y281975D01*
X50398Y281029D01*
X50785Y280104D01*
X51224Y279203D01*
X51713Y278327D01*
X52251Y277481D01*
X52836Y276666D01*
X53465Y275886D01*
X54138Y275143D01*
X54853Y274439D01*
X55605Y273776D01*
X56394Y273158D01*
X57217Y272584D01*
X58071Y272059D01*
X58953Y271582D01*
X59861Y271156D01*
X60791Y270782D01*
X61741Y270462D01*
X62708Y270195D01*
X63688Y269984D01*
X64679Y269829D01*
X65677Y269729D01*
X66678Y269687D01*
X67681Y269701D01*
X68681Y269772D01*
X69676Y269899D01*
X70662Y270083D01*
X71636Y270322D01*
X72594Y270615D01*
X73535Y270963D01*
X74454Y271363D01*
X75350Y271814D01*
X76218Y272315D01*
X77057Y272865D01*
X77863Y273461D01*
X78634Y274102D01*
X79368Y274786D01*
X80062Y275510D01*
X80713Y276272D01*
X81321Y277069D01*
X81882Y277900D01*
X82396Y278761D01*
X82860Y279650D01*
X83273Y280564D01*
X83634Y281500D01*
X83941Y282454D01*
X84193Y283424D01*
X84391Y284407D01*
X84532Y285400D01*
X84617Y286399D01*
X84646Y287402D01*
X230315D02*
X230287Y288404D01*
X230202Y289403D01*
X230060Y290396D01*
X229863Y291379D01*
X229610Y292349D01*
X229303Y293304D01*
X228942Y294239D01*
X228529Y295153D01*
X228065Y296042D01*
X227552Y296903D01*
X226990Y297734D01*
X226382Y298532D01*
X225731Y299293D01*
X225037Y300017D01*
X224303Y300701D01*
X223532Y301342D01*
X222726Y301938D01*
X221887Y302488D01*
X221019Y302989D01*
X220124Y303440D01*
X219204Y303840D01*
X218264Y304188D01*
X217305Y304482D01*
X216331Y304720D01*
X215345Y304904D01*
X214351Y305031D01*
X213350Y305102D01*
X212348Y305116D01*
X211346Y305074D01*
X210348Y304975D01*
X209358Y304819D01*
X208377Y304608D01*
X207411Y304342D01*
X206461Y304021D01*
X205530Y303647D01*
X204622Y303221D01*
X203740Y302745D01*
X202886Y302219D01*
X202064Y301646D01*
X201275Y301027D01*
X200522Y300364D01*
X199808Y299660D01*
X199135Y298917D01*
X198505Y298137D01*
X197920Y297322D01*
X197382Y296476D01*
X196893Y295601D01*
X196455Y294699D01*
X196068Y293774D01*
X195734Y292829D01*
X195454Y291866D01*
X195228Y290889D01*
X195059Y289900D01*
X194946Y288904D01*
X194889Y287903D01*
X194889Y286900D01*
X194946Y285899D01*
X195059Y284903D01*
X195228Y283914D01*
X195454Y282937D01*
X195734Y281975D01*
X196068Y281029D01*
X196455Y280104D01*
X196893Y279203D01*
X197382Y278327D01*
X197920Y277481D01*
X198505Y276666D01*
X199135Y275886D01*
X199808Y275143D01*
X200522Y274439D01*
X201275Y273776D01*
X202064Y273158D01*
X202886Y272584D01*
X203740Y272059D01*
X204622Y271582D01*
X205530Y271156D01*
X206460Y270782D01*
X207411Y270462D01*
X208377Y270195D01*
X209358Y269984D01*
X210348Y269829D01*
X211346Y269729D01*
X212348Y269687D01*
X213350Y269701D01*
X214351Y269772D01*
X215345Y269899D01*
X216331Y270083D01*
X217305Y270322D01*
X218264Y270615D01*
X219204Y270963D01*
X220124Y271363D01*
X221019Y271814D01*
X221887Y272315D01*
X222726Y272865D01*
X223532Y273461D01*
X224303Y274102D01*
X225037Y274786D01*
X225731Y275510D01*
X226382Y276272D01*
X226990Y277069D01*
X227552Y277900D01*
X228065Y278761D01*
X228529Y279650D01*
X228942Y280564D01*
X229303Y281500D01*
X229610Y282454D01*
X229863Y283424D01*
X230060Y284407D01*
X230202Y285400D01*
X230287Y286399D01*
X230315Y287402D01*
X529528D02*
X529499Y288404D01*
X529414Y289403D01*
X529273Y290396D01*
X529075Y291379D01*
X528823Y292349D01*
X528515Y293304D01*
X528155Y294239D01*
X527742Y295153D01*
X527278Y296042D01*
X526764Y296903D01*
X526203Y297734D01*
X525595Y298532D01*
X524943Y299293D01*
X524250Y300017D01*
X523516Y300701D01*
X522745Y301342D01*
X521939Y301938D01*
X521100Y302488D01*
X520231Y302989D01*
X519336Y303440D01*
X518417Y303840D01*
X517476Y304188D01*
X516517Y304482D01*
X515544Y304720D01*
X514558Y304904D01*
X513563Y305031D01*
X512563Y305102D01*
X511560Y305116D01*
X510559Y305074D01*
X509561Y304975D01*
X508570Y304819D01*
X507590Y304608D01*
X506623Y304342D01*
X505673Y304021D01*
X504743Y303647D01*
X503835Y303221D01*
X502953Y302745D01*
X502099Y302219D01*
X501276Y301646D01*
X500487Y301027D01*
X499734Y300364D01*
X499020Y299660D01*
X498347Y298917D01*
X497718Y298137D01*
X497133Y297322D01*
X496595Y296476D01*
X496106Y295601D01*
X495667Y294699D01*
X495280Y293774D01*
X494946Y292829D01*
X494666Y291866D01*
X494441Y290889D01*
X494272Y289900D01*
X494158Y288904D01*
X494102Y287903D01*
X494102Y286900D01*
X494158Y285899D01*
X494272Y284903D01*
X494441Y283914D01*
X494666Y282937D01*
X494946Y281975D01*
X495280Y281029D01*
X495667Y280104D01*
X496106Y279203D01*
X496595Y278327D01*
X497133Y277481D01*
X497718Y276666D01*
X498347Y275886D01*
X499020Y275143D01*
X499734Y274439D01*
X500487Y273776D01*
X501276Y273158D01*
X502099Y272584D01*
X502953Y272059D01*
X503835Y271582D01*
X504743Y271156D01*
X505673Y270782D01*
X506623Y270462D01*
X507590Y270195D01*
X508570Y269984D01*
X509561Y269829D01*
X510559Y269729D01*
X511560Y269687D01*
X512563Y269701D01*
X513563Y269772D01*
X514558Y269899D01*
X515544Y270083D01*
X516517Y270322D01*
X517476Y270615D01*
X518417Y270963D01*
X519336Y271363D01*
X520232Y271814D01*
X521100Y272315D01*
X521939Y272865D01*
X522745Y273461D01*
X523516Y274102D01*
X524250Y274786D01*
X524943Y275510D01*
X525595Y276272D01*
X526203Y277069D01*
X526764Y277900D01*
X527278Y278761D01*
X527742Y279650D01*
X528155Y280564D01*
X528516Y281500D01*
X528823Y282454D01*
X529075Y283424D01*
X529273Y284407D01*
X529414Y285400D01*
X529499Y286399D01*
X529528Y287402D01*
Y19685D02*
X529499Y20687D01*
X529414Y21687D01*
X529273Y22679D01*
X529075Y23662D01*
X528823Y24633D01*
X528515Y25587D01*
X528155Y26523D01*
X527742Y27436D01*
X527278Y28325D01*
X526764Y29186D01*
X526203Y30017D01*
X525595Y30815D01*
X524943Y31577D01*
X524250Y32301D01*
X523516Y32984D01*
X522745Y33625D01*
X521939Y34222D01*
X521100Y34771D01*
X520231Y35273D01*
X519336Y35724D01*
X518417Y36124D01*
X517476Y36471D01*
X516517Y36765D01*
X515544Y37004D01*
X514558Y37187D01*
X513563Y37315D01*
X512563Y37386D01*
X511560Y37400D01*
X510559Y37357D01*
X509561Y37258D01*
X508570Y37103D01*
X507590Y36891D01*
X506623Y36625D01*
X505673Y36304D01*
X504743Y35930D01*
X503835Y35505D01*
X502953Y35028D01*
X502099Y34502D01*
X501276Y33929D01*
X500487Y33310D01*
X499734Y32648D01*
X499020Y31944D01*
X498347Y31201D01*
X497718Y30420D01*
X497133Y29606D01*
X496595Y28760D01*
X496106Y27884D01*
X495667Y26983D01*
X495280Y26057D01*
X494946Y25112D01*
X494666Y24149D01*
X494441Y23172D01*
X494272Y22184D01*
X494158Y21188D01*
X494102Y20186D01*
X494102Y19184D01*
X494158Y18183D01*
X494272Y17186D01*
X494441Y16198D01*
X494666Y15221D01*
X494946Y14258D01*
X495280Y13313D01*
X495667Y12388D01*
X496106Y11486D01*
X496595Y10611D01*
X497133Y9764D01*
X497718Y8950D01*
X498347Y8170D01*
X499020Y7426D01*
X499734Y6722D01*
X500487Y6060D01*
X501276Y5441D01*
X502099Y4868D01*
X502953Y4342D01*
X503835Y3866D01*
X504743Y3440D01*
X505673Y3066D01*
X506623Y2745D01*
X507590Y2479D01*
X508570Y2268D01*
X509561Y2112D01*
X510559Y2013D01*
X511560Y1970D01*
X512563Y1984D01*
X513563Y2055D01*
X514558Y2183D01*
X515544Y2366D01*
X516517Y2605D01*
X517476Y2899D01*
X518417Y3246D01*
X519336Y3646D01*
X520232Y4098D01*
X521100Y4599D01*
X521939Y5149D01*
X522745Y5745D01*
X523516Y6386D01*
X524250Y7069D01*
X524943Y7793D01*
X525595Y8555D01*
X526203Y9353D01*
X526764Y10184D01*
X527278Y11045D01*
X527742Y11934D01*
X528155Y12847D01*
X528516Y13783D01*
X528823Y14738D01*
X529075Y15708D01*
X529273Y16691D01*
X529414Y17684D01*
X529499Y18683D01*
X529528Y19685D01*
X230315D02*
X230287Y20687D01*
X230202Y21687D01*
X230060Y22679D01*
X229863Y23662D01*
X229610Y24633D01*
X229303Y25587D01*
X228942Y26523D01*
X228529Y27436D01*
X228065Y28325D01*
X227552Y29186D01*
X226990Y30017D01*
X226382Y30815D01*
X225731Y31577D01*
X225037Y32301D01*
X224303Y32984D01*
X223532Y33625D01*
X222726Y34222D01*
X221887Y34771D01*
X221019Y35273D01*
X220124Y35724D01*
X219204Y36124D01*
X218264Y36471D01*
X217305Y36765D01*
X216331Y37004D01*
X215345Y37187D01*
X214351Y37315D01*
X213350Y37386D01*
X212348Y37400D01*
X211346Y37357D01*
X210348Y37258D01*
X209358Y37103D01*
X208377Y36891D01*
X207411Y36625D01*
X206461Y36304D01*
X205530Y35930D01*
X204622Y35505D01*
X203740Y35028D01*
X202886Y34502D01*
X202064Y33929D01*
X201275Y33310D01*
X200522Y32648D01*
X199808Y31944D01*
X199135Y31201D01*
X198505Y30420D01*
X197920Y29606D01*
X197382Y28760D01*
X196893Y27884D01*
X196455Y26983D01*
X196068Y26057D01*
X195734Y25112D01*
X195454Y24149D01*
X195228Y23172D01*
X195059Y22184D01*
X194946Y21188D01*
X194889Y20186D01*
X194889Y19184D01*
X194946Y18183D01*
X195059Y17186D01*
X195228Y16198D01*
X195454Y15221D01*
X195734Y14258D01*
X196068Y13313D01*
X196455Y12388D01*
X196893Y11486D01*
X197382Y10611D01*
X197920Y9764D01*
X198505Y8950D01*
X199135Y8170D01*
X199808Y7426D01*
X200522Y6722D01*
X201275Y6060D01*
X202064Y5441D01*
X202886Y4868D01*
X203740Y4342D01*
X204622Y3866D01*
X205530Y3440D01*
X206460Y3066D01*
X207411Y2745D01*
X208377Y2479D01*
X209358Y2268D01*
X210348Y2112D01*
X211346Y2013D01*
X212348Y1970D01*
X213350Y1984D01*
X214351Y2055D01*
X215345Y2183D01*
X216331Y2366D01*
X217305Y2605D01*
X218264Y2899D01*
X219204Y3246D01*
X220124Y3646D01*
X221019Y4098D01*
X221887Y4599D01*
X222726Y5149D01*
X223532Y5745D01*
X224303Y6386D01*
X225037Y7069D01*
X225731Y7793D01*
X226382Y8555D01*
X226990Y9353D01*
X227552Y10184D01*
X228065Y11045D01*
X228529Y11934D01*
X228942Y12847D01*
X229303Y13783D01*
X229610Y14738D01*
X229863Y15708D01*
X230060Y16691D01*
X230202Y17684D01*
X230287Y18683D01*
X230315Y19685D01*
X84646D02*
X84617Y20687D01*
X84532Y21687D01*
X84391Y22679D01*
X84193Y23662D01*
X83941Y24633D01*
X83634Y25587D01*
X83273Y26523D01*
X82860Y27436D01*
X82396Y28325D01*
X81882Y29186D01*
X81321Y30017D01*
X80713Y30815D01*
X80062Y31577D01*
X79368Y32301D01*
X78634Y32984D01*
X77863Y33625D01*
X77057Y34222D01*
X76218Y34771D01*
X75350Y35273D01*
X74454Y35724D01*
X73535Y36124D01*
X72594Y36471D01*
X71636Y36765D01*
X70662Y37004D01*
X69676Y37187D01*
X68681Y37315D01*
X67681Y37386D01*
X66678Y37400D01*
X65677Y37357D01*
X64679Y37258D01*
X63688Y37103D01*
X62708Y36891D01*
X61741Y36625D01*
X60791Y36304D01*
X59861Y35930D01*
X58953Y35505D01*
X58071Y35028D01*
X57217Y34502D01*
X56394Y33929D01*
X55605Y33310D01*
X54853Y32648D01*
X54139Y31944D01*
X53465Y31201D01*
X52836Y30420D01*
X52251Y29606D01*
X51713Y28760D01*
X51224Y27884D01*
X50785Y26983D01*
X50398Y26057D01*
X50064Y25112D01*
X49784Y24149D01*
X49559Y23172D01*
X49390Y22184D01*
X49276Y21188D01*
X49220Y20186D01*
X49220Y19184D01*
X49276Y18183D01*
X49390Y17186D01*
X49559Y16198D01*
X49784Y15221D01*
X50064Y14258D01*
X50398Y13313D01*
X50785Y12388D01*
X51224Y11486D01*
X51713Y10611D01*
X52251Y9764D01*
X52836Y8950D01*
X53465Y8170D01*
X54138Y7426D01*
X54853Y6722D01*
X55605Y6060D01*
X56394Y5441D01*
X57217Y4868D01*
X58071Y4342D01*
X58953Y3866D01*
X59861Y3440D01*
X60791Y3066D01*
X61741Y2745D01*
X62708Y2479D01*
X63688Y2268D01*
X64679Y2112D01*
X65677Y2013D01*
X66678Y1970D01*
X67681Y1984D01*
X68681Y2055D01*
X69676Y2183D01*
X70662Y2366D01*
X71636Y2605D01*
X72594Y2899D01*
X73535Y3246D01*
X74454Y3646D01*
X75350Y4098D01*
X76218Y4599D01*
X77057Y5149D01*
X77863Y5745D01*
X78634Y6386D01*
X79368Y7069D01*
X80062Y7793D01*
X80713Y8555D01*
X81321Y9353D01*
X81882Y10184D01*
X82396Y11045D01*
X82860Y11934D01*
X83273Y12847D01*
X83634Y13783D01*
X83941Y14738D01*
X84193Y15708D01*
X84391Y16691D01*
X84532Y17684D01*
X84617Y18683D01*
X84646Y19685D01*
X329528Y40551D02*
Y46455D01*
X327560Y44487D01*
X325592Y46455D01*
Y40551D01*
X322640D02*
X320672D01*
X319688Y41535D01*
Y43503D01*
X320672Y44487D01*
X322640D01*
X323624Y43503D01*
Y41535D01*
X322640Y40551D01*
X313785Y46455D02*
Y40551D01*
X316736D01*
X317720Y41535D01*
Y43503D01*
X316736Y44487D01*
X313785D01*
X311817D02*
Y41535D01*
X310833Y40551D01*
X307881D01*
Y44487D01*
X305913Y40551D02*
X303945D01*
X304929D01*
Y46455D01*
X305913D01*
X298042Y40551D02*
X300010D01*
X300993Y41535D01*
Y43503D01*
X300010Y44487D01*
X298042D01*
X297058Y43503D01*
Y42519D01*
X300993D01*
X289186Y40551D02*
Y44487D01*
X286234D01*
X285251Y43503D01*
Y40551D01*
X283283Y44487D02*
Y41535D01*
X282299Y40551D01*
X279347D01*
Y44487D01*
X277379Y40551D02*
Y44487D01*
X276395D01*
X275411Y43503D01*
Y40551D01*
Y43503D01*
X274427Y44487D01*
X273443Y43503D01*
Y40551D01*
X271476Y46455D02*
Y40551D01*
X268524D01*
X267540Y41535D01*
Y42519D01*
Y43503D01*
X268524Y44487D01*
X271476D01*
X262620Y40551D02*
X264588D01*
X265572Y41535D01*
Y43503D01*
X264588Y44487D01*
X262620D01*
X261636Y43503D01*
Y42519D01*
X265572D01*
X259668Y44487D02*
Y40551D01*
Y42519D01*
X258684Y43503D01*
X257700Y44487D01*
X256716D01*
X100589Y72046D02*
X101573Y71062D01*
Y69094D01*
X100589Y68110D01*
X99605D01*
X98621Y69094D01*
Y71062D01*
X97637Y72046D01*
X96653D01*
X95669Y71062D01*
Y69094D01*
X96653Y68110D01*
X95669Y76966D02*
Y74998D01*
X96653Y74014D01*
X98621D01*
X99605Y74998D01*
Y76966D01*
X98621Y77950D01*
X97637D01*
Y74014D01*
X99605Y79917D02*
X95669D01*
X97637D01*
X98621Y80901D01*
X99605Y81885D01*
Y82869D01*
X95669Y85821D02*
Y87789D01*
Y86805D01*
X99605D01*
Y85821D01*
Y91725D02*
Y93692D01*
X98621Y94676D01*
X95669D01*
Y91725D01*
X96653Y90741D01*
X97637Y91725D01*
Y94676D01*
X95669Y96644D02*
Y98612D01*
Y97628D01*
X101573D01*
Y96644D01*
X95669Y107468D02*
X99605D01*
Y110419D01*
X98621Y111403D01*
X95669D01*
X99605Y113371D02*
X96653D01*
X95669Y114355D01*
Y117307D01*
X99605D01*
X95669Y119275D02*
X99605D01*
Y120259D01*
X98621Y121243D01*
X95669D01*
X98621D01*
X99605Y122227D01*
X98621Y123211D01*
X95669D01*
X101573Y125178D02*
X95669D01*
Y128130D01*
X96653Y129114D01*
X97637D01*
X98621D01*
X99605Y128130D01*
Y125178D01*
X95669Y134034D02*
Y132066D01*
X96653Y131082D01*
X98621D01*
X99605Y132066D01*
Y134034D01*
X98621Y135018D01*
X97637D01*
Y131082D01*
X99605Y136986D02*
X95669D01*
X97637D01*
X98621Y137970D01*
X99605Y138953D01*
Y139937D01*
X349213Y247046D02*
X347245D01*
X348229D01*
Y241143D01*
X349213D01*
X347245D01*
X340357Y246062D02*
X341341Y247046D01*
X343309D01*
X344293Y246062D01*
Y242127D01*
X343309Y241143D01*
X341341D01*
X340357Y242127D01*
Y244094D01*
X342325D01*
X338389Y247046D02*
Y241143D01*
X335437D01*
X334454Y242127D01*
Y243111D01*
X335437Y244094D01*
X338389D01*
X335437D01*
X334454Y245078D01*
Y246062D01*
X335437Y247046D01*
X338389D01*
X332486D02*
X328550D01*
X330518D01*
Y241143D01*
X316743Y246062D02*
X317727Y247046D01*
X319695D01*
X320678Y246062D01*
Y242127D01*
X319695Y241143D01*
X317727D01*
X316743Y242127D01*
Y244094D01*
X318711D01*
X313791Y245078D02*
X311823D01*
X310839Y244094D01*
Y241143D01*
X313791D01*
X314775Y242127D01*
X313791Y243111D01*
X310839D01*
X307887Y246062D02*
Y245078D01*
X308871D01*
X306904D01*
X307887D01*
Y242127D01*
X306904Y241143D01*
X301000D02*
X302968D01*
X303952Y242127D01*
Y244094D01*
X302968Y245078D01*
X301000D01*
X300016Y244094D01*
Y243111D01*
X303952D01*
X292144Y247046D02*
Y241143D01*
X289193D01*
X288209Y242127D01*
Y246062D01*
X289193Y247046D01*
X292144D01*
X286241Y245078D02*
Y241143D01*
Y243111D01*
X285257Y244094D01*
X284273Y245078D01*
X283289D01*
X280337Y241143D02*
X278369D01*
X279353D01*
Y245078D01*
X280337D01*
X275418D02*
X273450Y241143D01*
X271482Y245078D01*
X266562Y241143D02*
X268530D01*
X269514Y242127D01*
Y244094D01*
X268530Y245078D01*
X266562D01*
X265578Y244094D01*
Y243111D01*
X269514D01*
X263610Y245078D02*
Y241143D01*
Y243111D01*
X262627Y244094D01*
X261643Y245078D01*
X260659D01*
X251803Y241143D02*
X249835D01*
X250819D01*
Y247046D01*
X251803Y246062D01*
X242948Y247046D02*
X246884D01*
Y244094D01*
X244916Y245078D01*
X243932D01*
X242948Y244094D01*
Y242127D01*
X243932Y241143D01*
X245900D01*
X246884Y242127D01*
X240980Y241143D02*
Y245078D01*
X239012Y247046D01*
X237044Y245078D01*
Y241143D01*
Y244094D01*
X240980D01*
X346261Y258365D02*
X348229D01*
X349213Y257381D01*
Y253446D01*
X348229Y252462D01*
X346261D01*
X345277Y253446D01*
Y257381D01*
X346261Y258365D01*
X340357D02*
X342325D01*
X343309Y257381D01*
Y253446D01*
X342325Y252462D01*
X340357D01*
X339373Y253446D01*
Y257381D01*
X340357Y258365D01*
X334454D02*
X336421D01*
X337405Y257381D01*
Y253446D01*
X336421Y252462D01*
X334454D01*
X333470Y253446D01*
Y257381D01*
X334454Y258365D01*
X330518Y259349D02*
Y257381D01*
X331502Y256398D01*
X326582Y259349D02*
Y257381D01*
X327566Y256398D01*
X323630Y252462D02*
Y258365D01*
X321662Y256398D01*
X319695Y258365D01*
Y252462D01*
X317727Y258365D02*
X315759D01*
X316743D01*
Y252462D01*
X317727D01*
X315759D01*
X312807Y258365D02*
Y252462D01*
Y254430D01*
X308871Y258365D01*
X311823Y255414D01*
X308871Y252462D01*
X306904D02*
Y258365D01*
X303952D01*
X302968Y257381D01*
Y255414D01*
X303952Y254430D01*
X306904D01*
X304936D02*
X302968Y252462D01*
X298048Y258365D02*
X300016D01*
X301000Y257381D01*
Y253446D01*
X300016Y252462D01*
X298048D01*
X297064Y253446D01*
Y257381D01*
X298048Y258365D01*
X291161D02*
X295096D01*
Y252462D01*
X291161D01*
X295096Y255414D02*
X293128D01*
X289193Y258365D02*
Y252462D01*
X285257D01*
X279353Y258365D02*
X283289D01*
Y252462D01*
X279353D01*
X283289Y255414D02*
X281321D01*
X277385Y258365D02*
Y252462D01*
Y254430D01*
X273450Y258365D01*
X276401Y255414D01*
X273450Y252462D01*
X271482Y258365D02*
X267546D01*
X269514D01*
Y252462D01*
X265578D02*
Y258365D01*
X262627D01*
X261643Y257381D01*
Y255414D01*
X262627Y254430D01*
X265578D01*
X263610D02*
X261643Y252462D01*
X256723Y258365D02*
X258691D01*
X259675Y257381D01*
Y253446D01*
X258691Y252462D01*
X256723D01*
X255739Y253446D01*
Y257381D01*
X256723Y258365D01*
X253771Y252462D02*
Y258365D01*
X249835Y252462D01*
Y258365D01*
X247867D02*
X245900D01*
X246884D01*
Y252462D01*
X247867D01*
X245900D01*
X242948Y258365D02*
Y252462D01*
Y254430D01*
X239012Y258365D01*
X241964Y255414D01*
X239012Y252462D01*
X237044D02*
Y256398D01*
X235076Y258365D01*
X233108Y256398D01*
Y252462D01*
Y255414D01*
X237044D01*
X225237Y252462D02*
Y258365D01*
X222285D01*
X221301Y257381D01*
Y255414D01*
X222285Y254430D01*
X225237D01*
X219333Y258365D02*
Y252462D01*
X215398D01*
X213430Y258365D02*
Y257381D01*
X211462Y255414D01*
X209494Y257381D01*
Y258365D01*
X211462Y255414D02*
Y252462D01*
X207526Y258365D02*
Y253446D01*
X206542Y252462D01*
X204574D01*
X203590Y253446D01*
Y258365D01*
X197687Y257381D02*
X198671Y258365D01*
X200639D01*
X201623Y257381D01*
Y256398D01*
X200639Y255414D01*
X198671D01*
X197687Y254430D01*
Y253446D01*
X198671Y252462D01*
X200639D01*
X201623Y253446D01*
X194735Y259349D02*
Y257381D01*
X195719Y256398D01*
X190799Y259349D02*
Y257381D01*
X191783Y256398D01*
X345277Y269684D02*
X348229D01*
X349213Y268701D01*
Y266733D01*
X348229Y265749D01*
X345277D01*
X343309Y271652D02*
Y265749D01*
Y268701D01*
X342325Y269684D01*
X340357D01*
X339373Y268701D01*
Y265749D01*
X337405D02*
X335437D01*
X336421D01*
Y269684D01*
X337405D01*
X328550Y263781D02*
Y269684D01*
X331502D01*
X332486Y268701D01*
Y266733D01*
X331502Y265749D01*
X328550D01*
X325598Y269684D02*
X323630D01*
X322646Y268701D01*
Y265749D01*
X325598D01*
X326582Y266733D01*
X325598Y267717D01*
X322646D01*
X320678Y269684D02*
Y265749D01*
Y267717D01*
X319695Y268701D01*
X318711Y269684D01*
X317727D01*
X314775Y265749D02*
X312807D01*
X313791D01*
Y269684D01*
X314775D01*
X309855Y265749D02*
X307887D01*
X308871D01*
Y271652D01*
X309855D01*
X302968Y263781D02*
X301984D01*
X301000Y264765D01*
Y269684D01*
X303952D01*
X304936Y268701D01*
Y266733D01*
X303952Y265749D01*
X301000D01*
X298048Y269684D02*
X296080D01*
X295096Y268701D01*
Y265749D01*
X298048D01*
X299032Y266733D01*
X298048Y267717D01*
X295096D01*
X293128Y265749D02*
Y269684D01*
X290177D01*
X289193Y268701D01*
Y265749D01*
X349213Y276576D02*
X347245D01*
X348229D01*
Y280511D01*
X349213D01*
X344293Y276576D02*
X341341D01*
X340357Y277560D01*
X341341Y278544D01*
X343309D01*
X344293Y279528D01*
X343309Y280511D01*
X340357D01*
X338389Y282479D02*
Y276576D01*
Y279528D01*
X337405Y280511D01*
X335437D01*
X334454Y279528D01*
Y276576D01*
X332486D02*
X330518D01*
X331502D01*
Y282479D01*
X332486D01*
X326582Y280511D02*
X324614D01*
X323630Y279528D01*
Y276576D01*
X326582D01*
X327566Y277560D01*
X326582Y278544D01*
X323630D01*
X321662Y282479D02*
Y276576D01*
X318711D01*
X317727Y277560D01*
Y278544D01*
Y279528D01*
X318711Y280511D01*
X321662D01*
X346261Y294290D02*
X348229D01*
X349213Y293306D01*
Y289371D01*
X348229Y288387D01*
X346261D01*
X345277Y289371D01*
Y293306D01*
X346261Y294290D01*
X343309Y293306D02*
X341341Y291339D01*
X337405Y292322D02*
X333470D01*
X337405Y288387D01*
X333470D01*
X331502Y294290D02*
Y288387D01*
X328550D01*
X327566Y289371D01*
Y290355D01*
Y291339D01*
X328550Y292322D01*
X331502D01*
X322646Y288387D02*
X324614D01*
X325598Y289371D01*
Y291339D01*
X324614Y292322D01*
X322646D01*
X321662Y291339D01*
Y290355D01*
X325598D01*
X319695Y288387D02*
Y294290D01*
Y290355D02*
X316743Y292322D01*
X319695Y290355D02*
X316743Y288387D01*
X313791D02*
X311823D01*
X312807D01*
Y292322D01*
X313791D01*
X308871Y288387D02*
X305920D01*
X304936Y289371D01*
X305920Y290355D01*
X307887D01*
X308871Y291339D01*
X307887Y292322D01*
X304936D01*
X301984Y293306D02*
Y292322D01*
X302968D01*
X301000D01*
X301984D01*
Y289371D01*
X301000Y288387D01*
X297064D02*
X295096D01*
X294112Y289371D01*
Y291339D01*
X295096Y292322D01*
X297064D01*
X298048Y291339D01*
Y289371D01*
X297064Y288387D01*
X292144D02*
Y292322D01*
X289193D01*
X288209Y291339D01*
Y288387D01*
X282305Y294290D02*
Y288387D01*
X285257D01*
X286241Y289371D01*
Y291339D01*
X285257Y292322D01*
X282305D01*
X279353D02*
X277385D01*
X276401Y291339D01*
Y288387D01*
X279353D01*
X280337Y289371D01*
X279353Y290355D01*
X276401D01*
X397631Y22314D02*
X358274D01*
Y41993D01*
X364834Y48552D01*
X371393D01*
X377953Y41993D01*
Y22314D01*
Y41993D01*
X384512Y48552D01*
X391072D01*
X397631Y41993D01*
Y22314D01*
X358274Y262471D02*
X384512D01*
X397631Y275590D01*
X384512Y288710D01*
X358274D01*
X377953D01*
Y262471D01*
X68032Y257376D02*
Y254752D01*
X70656Y257376D01*
X71312D01*
X71968Y256720D01*
Y255408D01*
X71312Y254752D01*
X68032Y260656D02*
X71968D01*
X70000Y258688D01*
Y261312D01*
X71968Y262624D02*
X69344D01*
X68032Y263936D01*
X69344Y265248D01*
X71968D01*
X68032Y50817D02*
X70656D01*
X71968Y52128D01*
X70656Y53440D01*
X68032D01*
X70000D01*
Y50817D01*
X68032Y61312D02*
X68688Y60656D01*
X68032Y60000D01*
Y59344D01*
X68688Y58688D01*
X69344D01*
X70000Y59344D01*
X70656Y58688D01*
X71312D01*
X71968Y59344D01*
Y60000D01*
X71312Y60656D01*
X70656D01*
X70000Y60000D01*
X69344Y60656D01*
X68688D01*
X70000Y61312D02*
X69344Y60656D01*
X70000Y59344D02*
Y60000D01*
X71968Y66560D02*
X68032D01*
Y68527D01*
X68688Y69183D01*
X69344D01*
X70000Y68527D01*
Y66560D01*
Y68527D01*
X70656Y69183D01*
X71312D01*
X71968Y68527D01*
Y66560D01*
X68032Y143688D02*
X70656D01*
X71968Y145000D01*
X70656Y146312D01*
X68032D01*
X70000D01*
Y143688D01*
X71968Y183688D02*
X68032D01*
Y185656D01*
X68688Y186312D01*
X69344D01*
X70000Y185656D01*
Y183688D01*
Y185656D01*
X70656Y186312D01*
X71312D01*
X71968Y185656D01*
Y183688D01*
X411968Y25860D02*
Y23237D01*
X408032D01*
Y25860D01*
X410000Y23237D02*
Y24548D01*
X408032Y27172D02*
X411968D01*
X410656Y28484D01*
X411968Y29796D01*
X408032D01*
X411968Y31108D02*
Y32420D01*
Y31764D01*
X408032D01*
Y31108D01*
Y32420D01*
X411968Y34388D02*
Y37012D01*
Y35700D01*
X408032D01*
X411968Y38324D02*
Y40947D01*
Y39636D01*
X408032D01*
X411968Y44883D02*
Y42259D01*
X408032D01*
Y44883D01*
X410000Y42259D02*
Y43571D01*
X408032Y46195D02*
X411968D01*
Y48163D01*
X411312Y48819D01*
X410000D01*
X409344Y48163D01*
Y46195D01*
Y47507D02*
X408032Y48819D01*
X431312Y37012D02*
X431968Y36356D01*
Y35044D01*
X431312Y34388D01*
X428688D01*
X428032Y35044D01*
Y36356D01*
X428688Y37012D01*
X430000D01*
Y35700D01*
X428032Y38324D02*
X430656D01*
X431968Y39636D01*
X430656Y40947D01*
X428032D01*
X430000D01*
Y38324D01*
X431968Y42259D02*
Y44883D01*
Y43571D01*
X428032D01*
X431968Y48819D02*
Y46195D01*
X428032D01*
Y48819D01*
X430000Y46195D02*
Y47507D01*
X471312Y17333D02*
X471968Y16677D01*
Y15365D01*
X471312Y14709D01*
X468688D01*
X468032Y15365D01*
Y16677D01*
X468688Y17333D01*
X471968Y20613D02*
Y19301D01*
X471312Y18645D01*
X468688D01*
X468032Y19301D01*
Y20613D01*
X468688Y21269D01*
X471312D01*
X471968Y20613D01*
Y22581D02*
X468032D01*
Y25204D01*
X471968Y26516D02*
X468032D01*
Y29140D01*
X471968Y33076D02*
Y30452D01*
X468032D01*
Y33076D01*
X470000Y30452D02*
Y31764D01*
X471312Y37012D02*
X471968Y36356D01*
Y35044D01*
X471312Y34388D01*
X468688D01*
X468032Y35044D01*
Y36356D01*
X468688Y37012D01*
X471968Y38324D02*
Y40947D01*
Y39636D01*
X468032D01*
X471968Y44227D02*
Y42915D01*
X471312Y42259D01*
X468688D01*
X468032Y42915D01*
Y44227D01*
X468688Y44883D01*
X471312D01*
X471968Y44227D01*
X468032Y46195D02*
X471968D01*
Y48163D01*
X471312Y48819D01*
X470000D01*
X469344Y48163D01*
Y46195D01*
Y47507D02*
X468032Y48819D01*
X448032Y42259D02*
X451968D01*
X448032Y44883D01*
X451968D01*
X451312Y48819D02*
X451968Y48163D01*
Y46851D01*
X451312Y46195D01*
X448688D01*
X448032Y46851D01*
Y48163D01*
X448688Y48819D01*
X448032Y261181D02*
X451968D01*
X448032Y263805D01*
X451968D01*
X451312Y267741D02*
X451968Y267085D01*
Y265773D01*
X451312Y265117D01*
X448688D01*
X448032Y265773D01*
Y267085D01*
X448688Y267741D01*
X471312Y263805D02*
X471968Y263149D01*
Y261837D01*
X471312Y261181D01*
X468688D01*
X468032Y261837D01*
Y263149D01*
X468688Y263805D01*
X471968Y267085D02*
Y265773D01*
X471312Y265117D01*
X468688D01*
X468032Y265773D01*
Y267085D01*
X468688Y267741D01*
X471312D01*
X471968Y267085D01*
Y269053D02*
X468032D01*
Y271676D01*
X471968Y272988D02*
X468032D01*
Y275612D01*
X471968Y279548D02*
Y276924D01*
X468032D01*
Y279548D01*
X470000Y276924D02*
Y278236D01*
X471312Y283484D02*
X471968Y282828D01*
Y281516D01*
X471312Y280860D01*
X468688D01*
X468032Y281516D01*
Y282828D01*
X468688Y283484D01*
X471968Y284795D02*
Y287419D01*
Y286107D01*
X468032D01*
X471968Y290699D02*
Y289387D01*
X471312Y288731D01*
X468688D01*
X468032Y289387D01*
Y290699D01*
X468688Y291355D01*
X471312D01*
X471968Y290699D01*
X468032Y292667D02*
X471968D01*
Y294635D01*
X471312Y295291D01*
X470000D01*
X469344Y294635D01*
Y292667D01*
Y293979D02*
X468032Y295291D01*
X431312Y263805D02*
X431968Y263149D01*
Y261837D01*
X431312Y261181D01*
X428688D01*
X428032Y261837D01*
Y263149D01*
X428688Y263805D01*
X430000D01*
Y262493D01*
X428032Y265117D02*
X430656D01*
X431968Y266429D01*
X430656Y267741D01*
X428032D01*
X430000D01*
Y265117D01*
X431968Y269053D02*
Y271676D01*
Y270364D01*
X428032D01*
X431968Y275612D02*
Y272988D01*
X428032D01*
Y275612D01*
X430000Y272988D02*
Y274300D01*
X411968Y263805D02*
Y261181D01*
X408032D01*
Y263805D01*
X410000Y261181D02*
Y262493D01*
X408032Y265117D02*
X411968D01*
X410656Y266429D01*
X411968Y267741D01*
X408032D01*
X411968Y269053D02*
Y270364D01*
Y269708D01*
X408032D01*
Y269053D01*
Y270364D01*
X411968Y272332D02*
Y274956D01*
Y273644D01*
X408032D01*
X411968Y276268D02*
Y278892D01*
Y277580D01*
X408032D01*
X411968Y282828D02*
Y280204D01*
X408032D01*
Y282828D01*
X410000Y280204D02*
Y281516D01*
X408032Y284140D02*
X411968D01*
Y286107D01*
X411312Y286763D01*
X410000D01*
X409344Y286107D01*
Y284140D01*
Y285452D02*
X408032Y286763D01*
X52988Y41968D02*
X55612D01*
Y38032D01*
X52988D01*
X55612Y40000D02*
X54300D01*
X49053Y41312D02*
X49709Y41968D01*
X51020D01*
X51676Y41312D01*
Y38688D01*
X51020Y38032D01*
X49709D01*
X49053Y38688D01*
Y40000D01*
X50365D01*
X47741Y38032D02*
Y41968D01*
X45117Y38032D01*
Y41968D01*
X43805D02*
Y38032D01*
X41837D01*
X41181Y38688D01*
Y41312D01*
X41837Y41968D01*
X43805D01*
X56924Y61968D02*
X59548D01*
Y58032D01*
X56924D01*
X59548Y60000D02*
X58236D01*
X55612Y58032D02*
Y61968D01*
X53644D01*
X52988Y61312D01*
Y60000D01*
X53644Y59344D01*
X55612D01*
X54300D02*
X52988Y58032D01*
X51676D02*
Y61968D01*
X49709D01*
X49053Y61312D01*
Y60000D01*
X49709Y59344D01*
X51676D01*
X50365D02*
X49053Y58032D01*
X45773Y61968D02*
X47085D01*
X47741Y61312D01*
Y58688D01*
X47085Y58032D01*
X45773D01*
X45117Y58688D01*
Y61312D01*
X45773Y61968D01*
X43805Y58032D02*
Y61968D01*
X41837D01*
X41181Y61312D01*
Y60000D01*
X41837Y59344D01*
X43805D01*
X42493D02*
X41181Y58032D01*
X52988Y81968D02*
X55612D01*
Y78032D01*
X52988D01*
X55612Y80000D02*
X54300D01*
X51676Y81968D02*
Y79344D01*
X50365Y78032D01*
X49053Y79344D01*
Y81968D01*
X45117Y81312D02*
X45773Y81968D01*
X47085D01*
X47741Y81312D01*
Y78688D01*
X47085Y78032D01*
X45773D01*
X45117Y78688D01*
X41181Y81312D02*
X41837Y81968D01*
X43149D01*
X43805Y81312D01*
Y78688D01*
X43149Y78032D01*
X41837D01*
X41181Y78688D01*
X54956Y137296D02*
X53644D01*
X54300D01*
Y133360D01*
X54956D01*
X53644D01*
X51676D02*
Y137296D01*
X49053Y133360D01*
Y137296D01*
X47741Y132704D02*
X45117D01*
X43805Y133360D02*
Y137296D01*
X41181Y133360D01*
Y137296D01*
X54956Y157296D02*
X53644D01*
X54300D01*
Y153360D01*
X54956D01*
X53644D01*
X51676D02*
Y157296D01*
X49053Y153360D01*
Y157296D01*
X47741Y152704D02*
X45117D01*
X43805Y153360D02*
Y157296D01*
X41837D01*
X41181Y156640D01*
Y155328D01*
X41837Y154672D01*
X43805D01*
X54956Y177296D02*
X53644D01*
X54300D01*
Y173360D01*
X54956D01*
X53644D01*
X51676D02*
Y177296D01*
X49053Y173360D01*
Y177296D01*
X47741Y172704D02*
X45117D01*
X43805Y173360D02*
Y177296D01*
X41181Y173360D01*
Y177296D01*
X54956Y197296D02*
X53644D01*
X54300D01*
Y193360D01*
X54956D01*
X53644D01*
X51676D02*
Y197296D01*
X49053Y193360D01*
Y197296D01*
X47741Y192704D02*
X45117D01*
X43805Y193360D02*
Y197296D01*
X41837D01*
X41181Y196640D01*
Y195328D01*
X41837Y194672D01*
X43805D01*
X49053Y261312D02*
X49709Y261968D01*
X51020D01*
X51676Y261312D01*
Y258688D01*
X51020Y258032D01*
X49709D01*
X49053Y258688D01*
Y260000D01*
X50365D01*
X47741Y258032D02*
Y261968D01*
X45117Y258032D01*
Y261968D01*
X43805D02*
Y258032D01*
X41837D01*
X41181Y258688D01*
Y261312D01*
X41837Y261968D01*
X43805D01*
X51676Y281968D02*
Y279344D01*
X50365Y278032D01*
X49053Y279344D01*
Y281968D01*
X45117Y281312D02*
X45773Y281968D01*
X47085D01*
X47741Y281312D01*
Y278688D01*
X47085Y278032D01*
X45773D01*
X45117Y278688D01*
X41181Y281312D02*
X41837Y281968D01*
X43149D01*
X43805Y281312D01*
Y278688D01*
X43149Y278032D01*
X41837D01*
X41181Y278688D01*
X104822Y-15883D02*
Y-23754D01*
X100886D01*
X99575Y-22442D01*
Y-21130D01*
X100886Y-19818D01*
X104822D01*
X100886D01*
X99575Y-18507D01*
Y-17195D01*
X100886Y-15883D01*
X104822D01*
X95639Y-23754D02*
X93015D01*
X91703Y-22442D01*
Y-19818D01*
X93015Y-18507D01*
X95639D01*
X96951Y-19818D01*
Y-22442D01*
X95639Y-23754D01*
X87767Y-17195D02*
Y-18507D01*
X89079D01*
X86455D01*
X87767D01*
Y-22442D01*
X86455Y-23754D01*
X81208Y-17195D02*
Y-18507D01*
X82520D01*
X79896D01*
X81208D01*
Y-22442D01*
X79896Y-23754D01*
X74648D02*
X72024D01*
X70713Y-22442D01*
Y-19818D01*
X72024Y-18507D01*
X74648D01*
X75960Y-19818D01*
Y-22442D01*
X74648Y-23754D01*
X68089D02*
Y-18507D01*
X66777D01*
X65465Y-19818D01*
Y-23754D01*
Y-19818D01*
X64153Y-18507D01*
X62841Y-19818D01*
Y-23754D01*
X48410Y-15883D02*
X51034D01*
X52346Y-17195D01*
Y-22442D01*
X51034Y-23754D01*
X48410D01*
X47098Y-22442D01*
Y-17195D01*
X48410Y-15883D01*
X44474Y-18507D02*
X41850Y-23754D01*
X39227Y-18507D01*
X32667Y-23754D02*
X35291D01*
X36603Y-22442D01*
Y-19818D01*
X35291Y-18507D01*
X32667D01*
X31355Y-19818D01*
Y-21130D01*
X36603D01*
X28731Y-18507D02*
Y-23754D01*
Y-21130D01*
X27419Y-19818D01*
X26107Y-18507D01*
X24795D01*
X20860Y-23754D02*
X18236D01*
X19548D01*
Y-15883D01*
X20860D01*
X12988Y-18507D02*
X10364D01*
X9053Y-19818D01*
Y-23754D01*
X12988D01*
X14300Y-22442D01*
X12988Y-21130D01*
X9053D01*
X6429Y-18507D02*
Y-22442D01*
X5117Y-23754D01*
X1181D01*
Y-25066D01*
X2493Y-26378D01*
X3805D01*
X1181Y-23754D02*
Y-18507D01*
D12*
X186024Y259842D02*
X186000Y260841D01*
X185927Y261837D01*
X185807Y262829D01*
X185639Y263814D01*
X185423Y264789D01*
X185161Y265753D01*
X184852Y266703D01*
X184498Y267637D01*
X184099Y268553D01*
X183656Y269448D01*
X183171Y270321D01*
X182644Y271169D01*
X182076Y271992D01*
X181470Y272785D01*
X180825Y273549D01*
X180145Y274280D01*
X179430Y274978D01*
X178683Y275640D01*
X177904Y276266D01*
X177096Y276853D01*
X176260Y277400D01*
X175399Y277907D01*
X174515Y278371D01*
X173609Y278792D01*
X172684Y279169D01*
X171741Y279500D01*
X170784Y279786D01*
X169814Y280025D01*
X168834Y280217D01*
X167846Y280361D01*
X166851Y280457D01*
X165854Y280506D01*
X164855D01*
X163857Y280457D01*
X162863Y280361D01*
X161874Y280217D01*
X160894Y280025D01*
X159924Y279786D01*
X158967Y279500D01*
X158025Y279169D01*
X157100Y278792D01*
X156194Y278371D01*
X155309Y277907D01*
X154448Y277400D01*
X153613Y276853D01*
X152805Y276266D01*
X152026Y275640D01*
X151278Y274978D01*
X150563Y274280D01*
X149883Y273549D01*
X149239Y272785D01*
X148633Y271992D01*
X148065Y271169D01*
X147538Y270321D01*
X147053Y269448D01*
X146610Y268553D01*
X146211Y267637D01*
X145857Y266703D01*
X145548Y265753D01*
X145286Y264789D01*
X145070Y263814D01*
X144902Y262829D01*
X144781Y261837D01*
X144709Y260841D01*
X144685Y259842D01*
X144709Y258844D01*
X144781Y257848D01*
X144902Y256856D01*
X145070Y255871D01*
X145286Y254896D01*
X145548Y253932D01*
X145857Y252982D01*
X146211Y252048D01*
X146610Y251132D01*
X147053Y250237D01*
X147538Y249364D01*
X148065Y248516D01*
X148633Y247693D01*
X149239Y246900D01*
X149883Y246136D01*
X150563Y245405D01*
X151278Y244707D01*
X152026Y244045D01*
X152805Y243419D01*
X153613Y242832D01*
X154448Y242285D01*
X155309Y241778D01*
X156194Y241314D01*
X157100Y240893D01*
X158025Y240516D01*
X158967Y240185D01*
X159924Y239899D01*
X160894Y239660D01*
X161874Y239468D01*
X162863Y239324D01*
X163857Y239228D01*
X164855Y239179D01*
X165854Y239179D01*
X166851Y239228D01*
X167846Y239324D01*
X168834Y239468D01*
X169814Y239660D01*
X170784Y239899D01*
X171741Y240185D01*
X172684Y240516D01*
X173609Y240893D01*
X174515Y241314D01*
X175399Y241778D01*
X176260Y242285D01*
X177096Y242832D01*
X177904Y243419D01*
X178683Y244045D01*
X179430Y244707D01*
X180145Y245405D01*
X180825Y246136D01*
X181470Y246900D01*
X182076Y247693D01*
X182643Y248515D01*
X183171Y249364D01*
X183656Y250237D01*
X184099Y251132D01*
X184498Y252048D01*
X184852Y252982D01*
X185161Y253932D01*
X185423Y254896D01*
X185638Y255871D01*
X185807Y256856D01*
X185927Y257847D01*
X186000Y258844D01*
X186024Y259842D01*
X29528Y249236D02*
X30166Y250039D01*
X30740Y250891D01*
X31244Y251785D01*
X31676Y252716D01*
X32034Y253678D01*
X32314Y254665D01*
X32515Y255672D01*
X32637Y256691D01*
X32677Y257717D01*
X32637Y258742D01*
X32515Y259761D01*
X32314Y260768D01*
X32034Y261755D01*
X31676Y262717D01*
X31244Y263648D01*
X30740Y264542D01*
X30166Y265394D01*
X29528Y266197D01*
X28346Y249687D02*
X28983Y250433D01*
X29555Y251230D01*
X30059Y252071D01*
X30492Y252951D01*
X30850Y253864D01*
X31131Y254804D01*
X31333Y255763D01*
X31455Y256737D01*
X31496Y257717D01*
X31455Y258697D01*
X31333Y259670D01*
X31131Y260629D01*
X30850Y261569D01*
X30492Y262482D01*
X30059Y263362D01*
X29555Y264204D01*
X28983Y265000D01*
X28346Y265746D01*
X29528Y269236D02*
X30166Y270039D01*
X30740Y270891D01*
X31244Y271785D01*
X31676Y272716D01*
X32034Y273678D01*
X32314Y274665D01*
X32515Y275672D01*
X32637Y276691D01*
X32677Y277717D01*
X32637Y278742D01*
X32515Y279761D01*
X32314Y280768D01*
X32034Y281755D01*
X31676Y282717D01*
X31244Y283648D01*
X30740Y284542D01*
X30166Y285394D01*
X29528Y286197D01*
X28346Y269687D02*
X28983Y270433D01*
X29555Y271230D01*
X30059Y272071D01*
X30492Y272951D01*
X30850Y273864D01*
X31131Y274804D01*
X31333Y275763D01*
X31455Y276737D01*
X31496Y277717D01*
X31455Y278696D01*
X31333Y279670D01*
X31131Y280629D01*
X30850Y281569D01*
X30492Y282482D01*
X30059Y283362D01*
X29555Y284204D01*
X28983Y285000D01*
X28346Y285747D01*
X28346Y187324D02*
X28983Y188071D01*
X29555Y188867D01*
X30059Y189708D01*
X30492Y190589D01*
X30850Y191502D01*
X31131Y192441D01*
X31334Y193401D01*
X31455Y194374D01*
X31496Y195354D01*
X31455Y196334D01*
X31333Y197308D01*
X31131Y198267D01*
X30850Y199207D01*
X30492Y200120D01*
X30059Y201000D01*
X29555Y201841D01*
X28983Y202638D01*
X28346Y203384D01*
X29528Y186874D02*
X30166Y187677D01*
X30740Y188529D01*
X31244Y189423D01*
X31676Y190354D01*
X32034Y191316D01*
X32314Y192303D01*
X32515Y193309D01*
X32637Y194329D01*
X32677Y195354D01*
X32637Y196380D01*
X32515Y197399D01*
X32314Y198406D01*
X32034Y199393D01*
X31676Y200355D01*
X31244Y201286D01*
X30740Y202180D01*
X30166Y203031D01*
X29528Y203835D01*
X28346Y167324D02*
X28983Y168071D01*
X29555Y168867D01*
X30059Y169709D01*
X30492Y170589D01*
X30850Y171502D01*
X31131Y172441D01*
X31334Y173401D01*
X31455Y174374D01*
X31496Y175354D01*
X31455Y176334D01*
X31333Y177307D01*
X31131Y178267D01*
X30850Y179207D01*
X30492Y180120D01*
X30059Y181000D01*
X29555Y181841D01*
X28983Y182638D01*
X28346Y183384D01*
X29528Y166874D02*
X30166Y167677D01*
X30740Y168528D01*
X31244Y169422D01*
X31676Y170353D01*
X32034Y171316D01*
X32314Y172303D01*
X32515Y173310D01*
X32637Y174329D01*
X32677Y175354D01*
X32637Y176380D01*
X32515Y177399D01*
X32314Y178406D01*
X32034Y179393D01*
X31676Y180355D01*
X31244Y181286D01*
X30740Y182180D01*
X30166Y183031D01*
X29528Y183835D01*
X28346Y127324D02*
X28983Y128071D01*
X29555Y128867D01*
X30059Y129709D01*
X30492Y130589D01*
X30850Y131502D01*
X31131Y132441D01*
X31334Y133401D01*
X31455Y134374D01*
X31496Y135354D01*
X31455Y136334D01*
X31333Y137308D01*
X31131Y138267D01*
X30850Y139207D01*
X30492Y140120D01*
X30059Y141000D01*
X29555Y141841D01*
X28983Y142638D01*
X28346Y143384D01*
X29528Y126874D02*
X30166Y127677D01*
X30740Y128528D01*
X31244Y129422D01*
X31676Y130353D01*
X32034Y131316D01*
X32314Y132303D01*
X32515Y133309D01*
X32637Y134329D01*
X32677Y135354D01*
X32637Y136380D01*
X32515Y137399D01*
X32314Y138406D01*
X32034Y139393D01*
X31676Y140355D01*
X31244Y141286D01*
X30740Y142180D01*
X30166Y143032D01*
X29528Y143835D01*
X28346Y147324D02*
X28983Y148071D01*
X29555Y148867D01*
X30059Y149708D01*
X30492Y150589D01*
X30850Y151502D01*
X31131Y152442D01*
X31334Y153401D01*
X31455Y154374D01*
X31496Y155354D01*
X31455Y156334D01*
X31333Y157308D01*
X31131Y158267D01*
X30850Y159207D01*
X30492Y160120D01*
X30059Y161000D01*
X29555Y161841D01*
X28983Y162638D01*
X28346Y163384D01*
X29528Y146874D02*
X30166Y147677D01*
X30740Y148529D01*
X31244Y149423D01*
X31676Y150354D01*
X32034Y151316D01*
X32314Y152303D01*
X32515Y153310D01*
X32637Y154329D01*
X32677Y155354D01*
X32637Y156380D01*
X32515Y157399D01*
X32314Y158406D01*
X32034Y159393D01*
X31676Y160355D01*
X31244Y161286D01*
X30740Y162180D01*
X30166Y163031D01*
X29528Y163835D01*
X28346Y63151D02*
X28983Y63898D01*
X29555Y64694D01*
X30059Y65535D01*
X30492Y66416D01*
X30850Y67329D01*
X31131Y68268D01*
X31334Y69228D01*
X31455Y70201D01*
X31496Y71181D01*
X31455Y72161D01*
X31333Y73134D01*
X31131Y74094D01*
X30850Y75034D01*
X30492Y75947D01*
X30059Y76827D01*
X29555Y77668D01*
X28983Y78465D01*
X28346Y79211D01*
X29528Y62700D02*
X30166Y63504D01*
X30740Y64355D01*
X31244Y65249D01*
X31676Y66180D01*
X32034Y67142D01*
X32314Y68130D01*
X32515Y69136D01*
X32637Y70156D01*
X32677Y71181D01*
X32637Y72207D01*
X32515Y73226D01*
X32314Y74232D01*
X32034Y75220D01*
X31676Y76182D01*
X31244Y77113D01*
X30740Y78007D01*
X30166Y78858D01*
X29528Y79662D01*
X28346Y43151D02*
X28983Y43898D01*
X29555Y44694D01*
X30059Y45535D01*
X30492Y46415D01*
X30850Y47329D01*
X31131Y48268D01*
X31334Y49228D01*
X31455Y50201D01*
X31496Y51181D01*
X31455Y52161D01*
X31333Y53134D01*
X31131Y54094D01*
X30850Y55034D01*
X30492Y55947D01*
X30059Y56827D01*
X29555Y57668D01*
X28983Y58465D01*
X28346Y59211D01*
X29528Y42700D02*
X30166Y43504D01*
X30740Y44355D01*
X31244Y45249D01*
X31676Y46180D01*
X32034Y47142D01*
X32314Y48130D01*
X32515Y49136D01*
X32637Y50156D01*
X32677Y51181D01*
X32637Y52207D01*
X32515Y53226D01*
X32314Y54232D01*
X32034Y55220D01*
X31676Y56182D01*
X31244Y57113D01*
X30740Y58007D01*
X30166Y58858D01*
X29528Y59662D01*
X28346Y23151D02*
X28983Y23898D01*
X29555Y24694D01*
X30059Y25535D01*
X30492Y26416D01*
X30850Y27329D01*
X31131Y28268D01*
X31334Y29228D01*
X31455Y30201D01*
X31496Y31181D01*
X31455Y32161D01*
X31333Y33134D01*
X31131Y34094D01*
X30850Y35034D01*
X30492Y35947D01*
X30059Y36827D01*
X29555Y37668D01*
X28983Y38465D01*
X28346Y39211D01*
X29528Y22701D02*
X30166Y23504D01*
X30740Y24355D01*
X31244Y25249D01*
X31676Y26180D01*
X32034Y27142D01*
X32314Y28130D01*
X32515Y29136D01*
X32637Y30156D01*
X32677Y31181D01*
X32637Y32207D01*
X32515Y33226D01*
X32314Y34232D01*
X32034Y35220D01*
X31676Y36182D01*
X31244Y37113D01*
X30740Y38007D01*
X30166Y38858D01*
X29528Y39662D01*
X165747Y57888D02*
X166437Y58565D01*
X167022Y59334D01*
X167491Y60180D01*
X167833Y61084D01*
X168040Y62028D01*
X168110Y62992D01*
X168040Y63956D01*
X167833Y64900D01*
X167491Y65804D01*
X167022Y66650D01*
X166437Y67419D01*
X165747Y68096D01*
X157088Y68096D02*
X156398Y67419D01*
X155812Y66650D01*
X155344Y65804D01*
X155002Y64900D01*
X154794Y63956D01*
X154724Y62992D01*
X154794Y62028D01*
X155002Y61084D01*
X155344Y60180D01*
X155812Y59334D01*
X156398Y58565D01*
X157088Y57888D01*
X189369D02*
X190059Y58565D01*
X190644Y59334D01*
X191113Y60180D01*
X191455Y61084D01*
X191663Y62028D01*
X191732Y62992D01*
X191663Y63956D01*
X191455Y64900D01*
X191113Y65804D01*
X190644Y66650D01*
X190059Y67419D01*
X189369Y68096D01*
X180710Y68096D02*
X180020Y67419D01*
X179435Y66650D01*
X178966Y65804D01*
X178624Y64900D01*
X178416Y63956D01*
X178347Y62992D01*
X178416Y62028D01*
X178624Y61084D01*
X178966Y60180D01*
X179435Y59334D01*
X180020Y58565D01*
X180710Y57888D01*
X126969Y185039D02*
X126944Y186038D01*
X126872Y187034D01*
X126752Y188026D01*
X126583Y189011D01*
X126368Y189986D01*
X126105Y190950D01*
X125797Y191900D01*
X125443Y192834D01*
X125044Y193749D01*
X124601Y194645D01*
X124116Y195518D01*
X123588Y196366D01*
X123021Y197188D01*
X122415Y197982D01*
X121770Y198746D01*
X121090Y199477D01*
X120375Y200175D01*
X119628Y200837D01*
X118849Y201463D01*
X118041Y202050D01*
X117205Y202597D01*
X116344Y203104D01*
X115460Y203568D01*
X114554Y203989D01*
X113629Y204365D01*
X112686Y204697D01*
X111729Y204983D01*
X110759Y205222D01*
X109779Y205414D01*
X108791Y205558D01*
X107796Y205654D01*
X106799Y205703D01*
X105800D01*
X104802Y205654D01*
X103808Y205558D01*
X102819Y205414D01*
X101839Y205222D01*
X100869Y204983D01*
X99912Y204697D01*
X98970Y204365D01*
X98045Y203989D01*
X97139Y203568D01*
X96254Y203104D01*
X95393Y202597D01*
X94558Y202050D01*
X93750Y201463D01*
X92971Y200837D01*
X92223Y200175D01*
X91508Y199477D01*
X90828Y198746D01*
X90184Y197982D01*
X89577Y197188D01*
X89010Y196366D01*
X88483Y195518D01*
X87998Y194645D01*
X87555Y193749D01*
X87156Y192834D01*
X86802Y191900D01*
X86493Y190950D01*
X86230Y189986D01*
X86015Y189011D01*
X85847Y188026D01*
X85726Y187034D01*
X85654Y186038D01*
X85630Y185039D01*
X85654Y184041D01*
X85726Y183045D01*
X85847Y182053D01*
X86015Y181068D01*
X86230Y180093D01*
X86493Y179129D01*
X86802Y178179D01*
X87156Y177245D01*
X87555Y176329D01*
X87998Y175434D01*
X88483Y174561D01*
X89010Y173712D01*
X89577Y172890D01*
X90184Y172097D01*
X90828Y171333D01*
X91508Y170602D01*
X92223Y169904D01*
X92971Y169241D01*
X93750Y168616D01*
X94558Y168029D01*
X95393Y167482D01*
X96254Y166975D01*
X97139Y166511D01*
X98045Y166090D01*
X98970Y165713D01*
X99912Y165382D01*
X100869Y165096D01*
X101839Y164857D01*
X102819Y164665D01*
X103808Y164521D01*
X104802Y164424D01*
X105800Y164376D01*
X106799Y164376D01*
X107796Y164424D01*
X108791Y164521D01*
X109779Y164665D01*
X110759Y164857D01*
X111729Y165096D01*
X112686Y165382D01*
X113629Y165713D01*
X114554Y166090D01*
X115460Y166511D01*
X116344Y166975D01*
X117205Y167481D01*
X118041Y168029D01*
X118849Y168616D01*
X119628Y169241D01*
X120375Y169904D01*
X121090Y170602D01*
X121770Y171333D01*
X122415Y172097D01*
X123021Y172890D01*
X123588Y173712D01*
X124116Y174561D01*
X124601Y175434D01*
X125044Y176329D01*
X125443Y177245D01*
X125797Y178179D01*
X126105Y179129D01*
X126368Y180093D01*
X126583Y181068D01*
X126752Y182053D01*
X126872Y183044D01*
X126944Y184041D01*
X126969Y185039D01*
X426849Y83465D02*
X426102Y84101D01*
X425306Y84673D01*
X424465Y85177D01*
X423585Y85610D01*
X422671Y85968D01*
X421732Y86249D01*
X420772Y86452D01*
X419799Y86573D01*
X418819Y86614D01*
X417839Y86573D01*
X416866Y86452D01*
X415906Y86249D01*
X414966Y85968D01*
X414053Y85610D01*
X413173Y85177D01*
X412332Y84673D01*
X411535Y84101D01*
X410789Y83465D01*
X427299Y84646D02*
X426496Y85284D01*
X425645Y85858D01*
X424751Y86362D01*
X423820Y86794D01*
X422858Y87152D01*
X421870Y87432D01*
X420864Y87633D01*
X419844Y87755D01*
X418819Y87795D01*
X417793Y87755D01*
X416774Y87633D01*
X415768Y87432D01*
X414780Y87152D01*
X413818Y86794D01*
X412887Y86362D01*
X411993Y85858D01*
X411142Y85284D01*
X410338Y84646D01*
X446849Y83465D02*
X446103Y84101D01*
X445306Y84673D01*
X444465Y85177D01*
X443584Y85610D01*
X442671Y85968D01*
X441732Y86249D01*
X440772Y86452D01*
X439799Y86573D01*
X438819Y86614D01*
X437839Y86573D01*
X436866Y86452D01*
X435906Y86249D01*
X434966Y85968D01*
X434053Y85610D01*
X433173Y85177D01*
X432332Y84673D01*
X431535Y84101D01*
X430789Y83465D01*
X447299Y84646D02*
X446496Y85284D01*
X445645Y85858D01*
X444751Y86362D01*
X443820Y86794D01*
X442858Y87152D01*
X441870Y87432D01*
X440864Y87633D01*
X439845Y87755D01*
X438819Y87795D01*
X437793Y87755D01*
X436774Y87633D01*
X435768Y87432D01*
X434780Y87152D01*
X433818Y86794D01*
X432887Y86362D01*
X431993Y85858D01*
X431142Y85284D01*
X430338Y84646D01*
X486849Y83465D02*
X486103Y84101D01*
X485306Y84673D01*
X484465Y85177D01*
X483584Y85610D01*
X482671Y85968D01*
X481732Y86249D01*
X480772Y86452D01*
X479799Y86573D01*
X478819Y86614D01*
X477839Y86573D01*
X476866Y86452D01*
X475906Y86249D01*
X474966Y85968D01*
X474053Y85610D01*
X473173Y85177D01*
X472332Y84673D01*
X471535Y84101D01*
X470789Y83465D01*
X487299Y84646D02*
X486496Y85284D01*
X485645Y85858D01*
X484751Y86362D01*
X483820Y86794D01*
X482858Y87152D01*
X481870Y87432D01*
X480864Y87633D01*
X479845Y87755D01*
X478819Y87795D01*
X477793Y87755D01*
X476774Y87633D01*
X475768Y87432D01*
X474780Y87152D01*
X473818Y86794D01*
X472887Y86362D01*
X471993Y85858D01*
X471142Y85284D01*
X470338Y84646D01*
X466849Y83465D02*
X466103Y84101D01*
X465306Y84673D01*
X464465Y85177D01*
X463585Y85610D01*
X462671Y85968D01*
X461732Y86249D01*
X460772Y86452D01*
X459799Y86573D01*
X458819Y86614D01*
X457839Y86573D01*
X456866Y86452D01*
X455906Y86249D01*
X454966Y85968D01*
X454053Y85610D01*
X453173Y85177D01*
X452332Y84673D01*
X451535Y84101D01*
X450789Y83465D01*
X467300Y84646D02*
X466496Y85284D01*
X465645Y85858D01*
X464751Y86362D01*
X463820Y86794D01*
X462858Y87152D01*
X461870Y87432D01*
X460864Y87633D01*
X459844Y87755D01*
X458819Y87795D01*
X457793Y87755D01*
X456774Y87633D01*
X455768Y87432D01*
X454780Y87152D01*
X453818Y86794D01*
X452887Y86362D01*
X451993Y85858D01*
X451142Y85284D01*
X450338Y84646D01*
X470789Y223622D02*
X471535Y222986D01*
X472332Y222413D01*
X473173Y221909D01*
X474053Y221477D01*
X474966Y221118D01*
X475906Y220837D01*
X476866Y220635D01*
X477839Y220513D01*
X478819Y220472D01*
X479799Y220513D01*
X480772Y220635D01*
X481732Y220837D01*
X482671Y221118D01*
X483584Y221477D01*
X484465Y221909D01*
X485306Y222413D01*
X486103Y222986D01*
X486849Y223622D01*
X470338Y222441D02*
X471142Y221802D01*
X471993Y221229D01*
X472887Y220725D01*
X473818Y220292D01*
X474780Y219935D01*
X475768Y219655D01*
X476774Y219453D01*
X477793Y219332D01*
X478819Y219291D01*
X479845Y219332D01*
X480864Y219453D01*
X481870Y219655D01*
X482858Y219935D01*
X483820Y220292D01*
X484751Y220725D01*
X485645Y221229D01*
X486496Y221802D01*
X487299Y222441D01*
X450789Y223622D02*
X451535Y222986D01*
X452332Y222413D01*
X453173Y221909D01*
X454053Y221477D01*
X454966Y221118D01*
X455906Y220837D01*
X456866Y220635D01*
X457839Y220513D01*
X458819Y220472D01*
X459799Y220513D01*
X460772Y220635D01*
X461732Y220837D01*
X462671Y221118D01*
X463585Y221477D01*
X464465Y221909D01*
X465306Y222413D01*
X466103Y222986D01*
X466849Y223622D01*
X450338Y222441D02*
X451142Y221802D01*
X451993Y221229D01*
X452887Y220725D01*
X453818Y220292D01*
X454780Y219935D01*
X455768Y219655D01*
X456774Y219453D01*
X457793Y219332D01*
X458819Y219291D01*
X459844Y219332D01*
X460864Y219453D01*
X461870Y219655D01*
X462858Y219935D01*
X463820Y220292D01*
X464751Y220725D01*
X465645Y221229D01*
X466496Y221802D01*
X467300Y222441D01*
X410789Y223622D02*
X411535Y222986D01*
X412332Y222413D01*
X413173Y221909D01*
X414053Y221477D01*
X414966Y221118D01*
X415906Y220837D01*
X416866Y220635D01*
X417839Y220513D01*
X418819Y220472D01*
X419799Y220513D01*
X420772Y220635D01*
X421732Y220837D01*
X422671Y221118D01*
X423585Y221477D01*
X424465Y221909D01*
X425306Y222413D01*
X426102Y222986D01*
X426849Y223622D01*
X410338Y222441D02*
X411142Y221802D01*
X411993Y221229D01*
X412887Y220725D01*
X413818Y220292D01*
X414780Y219935D01*
X415768Y219655D01*
X416774Y219453D01*
X417793Y219332D01*
X418819Y219291D01*
X419844Y219332D01*
X420864Y219453D01*
X421870Y219655D01*
X422858Y219935D01*
X423820Y220292D01*
X424751Y220725D01*
X425645Y221229D01*
X426496Y221802D01*
X427299Y222441D01*
X430789Y223622D02*
X431535Y222986D01*
X432332Y222413D01*
X433173Y221909D01*
X434053Y221477D01*
X434966Y221118D01*
X435906Y220837D01*
X436866Y220635D01*
X437839Y220513D01*
X438819Y220472D01*
X439799Y220513D01*
X440772Y220635D01*
X441732Y220837D01*
X442671Y221118D01*
X443584Y221477D01*
X444465Y221909D01*
X445306Y222413D01*
X446103Y222986D01*
X446849Y223622D01*
X430338Y222441D02*
X431142Y221802D01*
X431993Y221229D01*
X432887Y220725D01*
X433818Y220292D01*
X434780Y219935D01*
X435768Y219655D01*
X436774Y219453D01*
X437793Y219332D01*
X438819Y219291D01*
X439845Y219332D01*
X440864Y219453D01*
X441870Y219655D01*
X442858Y219935D01*
X443820Y220292D01*
X444751Y220725D01*
X445645Y221229D01*
X446496Y221802D01*
X447299Y222441D01*
X426575Y92126D02*
Y112598D01*
X360827Y92126D02*
X426575D01*
X360827D02*
Y112598D01*
X426575D01*
Y102362D02*
X433701D01*
X353701D02*
X360827D01*
X426575Y115748D02*
Y136221D01*
X360827Y115748D02*
X426575D01*
X360827D02*
Y136221D01*
X426575D01*
Y125984D02*
X433701D01*
X353701D02*
X360827D01*
X181693Y257874D02*
Y261811D01*
X179724Y259842D02*
X183661D01*
X19685Y267717D02*
X22638Y268508D01*
X19685Y267717D02*
X22638Y266925D01*
Y268508D01*
X7506Y247716D02*
Y287717D01*
X6279Y247716D02*
Y253878D01*
X1169Y255335D02*
X7506D01*
X6279Y253878D02*
X7506Y255181D01*
X3032Y253878D02*
X6279D01*
X1169Y255335D02*
X3032Y253878D01*
X1169Y255335D02*
Y260098D01*
X3032Y261555D01*
X6279D01*
X1169Y260098D02*
X7506D01*
X6279Y261555D02*
X7506Y260252D01*
X6279Y261555D02*
Y273878D01*
Y281555D02*
X7506Y280252D01*
X1169Y280098D02*
X7506D01*
X1169Y275335D02*
X7506D01*
X6279Y273878D02*
X7506Y275181D01*
X3032Y273878D02*
X6279D01*
X1169Y275335D02*
X3032Y273878D01*
X1169Y275335D02*
Y280098D01*
X3032Y281555D01*
X6279D01*
Y287717D01*
X29528D01*
Y286197D02*
Y287717D01*
X28346Y285747D02*
X29528Y286197D01*
X28346Y285747D02*
Y287717D01*
Y269687D02*
X29528Y269236D01*
Y266197D02*
Y269236D01*
X28346Y265746D02*
X29528Y266197D01*
X28346Y265746D02*
Y269687D01*
Y247716D02*
Y249687D01*
X29528Y249236D01*
Y247716D02*
Y249236D01*
X6279Y247716D02*
X29528D01*
X3032Y227716D02*
Y253878D01*
Y261555D02*
Y273878D01*
Y281555D02*
Y307716D01*
X1063D02*
X34921D01*
X1063Y227716D02*
Y307716D01*
Y227716D02*
X34921D01*
Y307716D01*
X34921Y105354D02*
Y225354D01*
X1063Y105354D02*
X34921D01*
X1063D02*
Y225354D01*
X34921D01*
X3032Y199193D02*
Y225354D01*
Y179193D02*
Y191516D01*
Y159193D02*
Y171516D01*
Y139193D02*
Y151516D01*
X6279Y125354D02*
X29528D01*
Y126874D01*
X28346Y127324D02*
X29528Y126874D01*
X28346Y125354D02*
Y127324D01*
Y143384D02*
Y147324D01*
Y143384D02*
X29528Y143835D01*
Y146874D01*
X28346Y147324D02*
X29528Y146874D01*
X28346Y183384D02*
Y187324D01*
Y183384D02*
X29528Y183835D01*
Y186874D01*
X28346Y187324D02*
X29528Y186874D01*
X28346Y203384D02*
Y205354D01*
Y203384D02*
X29528Y203835D01*
Y205354D01*
X6279D02*
X29528D01*
X6279Y199193D02*
Y205354D01*
X3032Y199193D02*
X6279D01*
X1169Y197736D02*
X3032Y199193D01*
X1169Y192973D02*
Y197736D01*
Y192973D02*
X3032Y191516D01*
X6279D01*
X7506Y192819D01*
X6279Y199193D02*
X7506Y197890D01*
X6279Y179193D02*
Y191516D01*
Y179193D02*
X7506Y177890D01*
X3032Y179193D02*
X6279D01*
X1169Y177736D02*
X3032Y179193D01*
X1169Y172972D02*
Y177736D01*
Y172972D02*
X3032Y171516D01*
X6279D01*
X7506Y172819D01*
X6279Y159193D02*
Y171516D01*
Y139193D02*
X7506Y137890D01*
X1169Y137736D02*
X3032Y139193D01*
X6279D01*
X1169Y132972D02*
Y137736D01*
X6279Y131516D02*
X7506Y132819D01*
X3032Y131516D02*
X6279D01*
X1169Y132972D02*
X3032Y131516D01*
X6279Y125354D02*
Y131516D01*
X7506Y125354D02*
Y205354D01*
X22638Y184563D02*
Y186145D01*
X19685Y185354D02*
X22638Y184563D01*
X19685Y185354D02*
X22638Y186145D01*
Y144563D02*
Y146145D01*
X19685Y145354D02*
X22638Y144563D01*
X19685Y145354D02*
X22638Y146145D01*
X28346Y163384D02*
Y167324D01*
Y163384D02*
X29528Y163835D01*
Y166874D01*
X28346Y167324D02*
X29528Y166874D01*
X6279Y159193D02*
X7506Y157890D01*
X1169Y157736D02*
X3032Y159193D01*
X6279D01*
X1169Y152972D02*
Y157736D01*
X6279Y151516D02*
X7506Y152819D01*
X3032Y151516D02*
X6279D01*
X1169Y152972D02*
X3032Y151516D01*
X22638Y164563D02*
Y166146D01*
X19685Y165354D02*
X22638Y164563D01*
X19685Y165354D02*
X22638Y166146D01*
X3032Y105354D02*
Y131516D01*
X6279Y139193D02*
Y151516D01*
X34921Y1181D02*
Y101181D01*
X1063Y1181D02*
X34921D01*
X1063D02*
Y101181D01*
X34921D01*
X3032Y75020D02*
Y101181D01*
Y55020D02*
Y67343D01*
Y35020D02*
Y47343D01*
Y1181D02*
Y27343D01*
X6279Y21181D02*
X29528D01*
Y22701D01*
X28346Y23151D02*
X29528Y22701D01*
X28346Y21181D02*
Y23151D01*
Y39211D02*
Y43151D01*
Y39211D02*
X29528Y39662D01*
Y42700D01*
X28346Y43151D02*
X29528Y42700D01*
X28346Y59211D02*
Y63151D01*
Y59211D02*
X29528Y59662D01*
Y62700D01*
X28346Y63151D02*
X29528Y62700D01*
X28346Y79211D02*
Y81181D01*
Y79211D02*
X29528Y79662D01*
Y81181D01*
X6279D02*
X29528D01*
X6279Y75020D02*
Y81181D01*
X3032Y75020D02*
X6279D01*
X1169Y73563D02*
X3032Y75020D01*
X1169Y68799D02*
Y73563D01*
Y68799D02*
X3032Y67343D01*
X6279D01*
X7506Y68646D01*
X6279Y75020D02*
X7506Y73717D01*
X6279Y55020D02*
Y67343D01*
Y55020D02*
X7506Y53717D01*
X3032Y55020D02*
X6279D01*
X1169Y53563D02*
X3032Y55020D01*
X1169Y48799D02*
Y53563D01*
Y48799D02*
X3032Y47343D01*
X6279D01*
X7506Y48646D01*
X6279Y35020D02*
Y47343D01*
Y35020D02*
X7506Y33717D01*
X1169Y33563D02*
X3032Y35020D01*
X6279D01*
X1169Y28799D02*
Y33563D01*
X6279Y27343D02*
X7506Y28646D01*
X3032Y27343D02*
X6279D01*
X1169Y28799D02*
X3032Y27343D01*
X6279Y21181D02*
Y27343D01*
X7506Y21181D02*
Y81181D01*
X22638Y60390D02*
Y61972D01*
X19685Y61181D02*
X22638Y60390D01*
X19685Y61181D02*
X22638Y61972D01*
Y40390D02*
Y41972D01*
X19685Y41181D02*
X22638Y40390D01*
X19685Y41181D02*
X22638Y41972D01*
X159449Y63661D02*
X161417D01*
Y62323D02*
Y63661D01*
X160433D02*
X161417Y62323D01*
X162402Y63661D01*
X161417D02*
X163386D01*
X159449D02*
X161417Y62323D01*
X163386Y63661D01*
X159449Y62323D02*
X163386D01*
X183071Y63661D02*
X185039D01*
Y62323D02*
Y63661D01*
X184055D02*
X185039Y62323D01*
X186024Y63661D01*
X185039D02*
X187008D01*
X183071D02*
X185039Y62323D01*
X187008Y63661D01*
X183071Y62323D02*
X187008D01*
X89961Y183071D02*
Y187008D01*
X87992Y185039D02*
X91929D01*
X388819Y90039D02*
X508819D01*
Y56181D02*
Y90039D01*
X388819Y56181D02*
X508819D01*
X388819D02*
Y90039D01*
Y58150D02*
X414980D01*
X422657D02*
X434980D01*
X442658D02*
X454980D01*
X462657D02*
X474980D01*
X488819Y61398D02*
Y84646D01*
X487299D02*
X488819D01*
X486849Y83465D02*
X487299Y84646D01*
X486849Y83465D02*
X488819D01*
X466849D02*
X470789D01*
X470338Y84646D02*
X470789Y83465D01*
X467300Y84646D02*
X470338D01*
X466849Y83465D02*
X467300Y84646D01*
X426849Y83465D02*
X430789D01*
X430338Y84646D02*
X430789Y83465D01*
X427299Y84646D02*
X430338D01*
X426849Y83465D02*
X427299Y84646D01*
X408819Y83465D02*
X410789D01*
X410338Y84646D02*
X410789Y83465D01*
X408819Y84646D02*
X410338D01*
X408819Y61398D02*
Y84646D01*
Y61398D02*
X414980D01*
Y58150D02*
Y61398D01*
Y58150D02*
X416437Y56287D01*
X421201D01*
X422657Y58150D01*
Y61398D01*
X421354Y62624D02*
X422657Y61398D01*
X414980D02*
X416283Y62624D01*
X422657Y61398D02*
X434980D01*
X436283Y62624D01*
X434980Y58150D02*
Y61398D01*
Y58150D02*
X436437Y56287D01*
X441201D01*
X442658Y58150D01*
Y61398D01*
X441354Y62624D02*
X442658Y61398D01*
X454980D01*
X474980D02*
X476283Y62624D01*
X474980Y58150D02*
X476437Y56287D01*
X474980Y58150D02*
Y61398D01*
X476437Y56287D02*
X481201D01*
X481354Y62624D02*
X482657Y61398D01*
Y58150D02*
Y61398D01*
X481201Y56287D02*
X482657Y58150D01*
Y61398D02*
X488819D01*
X408819Y62624D02*
X488819D01*
X428028Y77756D02*
X429610D01*
X428819Y74803D02*
X429610Y77756D01*
X428028D02*
X428819Y74803D01*
X468028Y77756D02*
X469610D01*
X468819Y74803D02*
X469610Y77756D01*
X468028D02*
X468819Y74803D01*
X446849Y83465D02*
X450789D01*
X450338Y84646D02*
X450789Y83465D01*
X447299Y84646D02*
X450338D01*
X446849Y83465D02*
X447299Y84646D01*
X454980Y61398D02*
X456283Y62624D01*
X454980Y58150D02*
X456437Y56287D01*
X454980Y58150D02*
Y61398D01*
X456437Y56287D02*
X461201D01*
X461354Y62624D02*
X462657Y61398D01*
Y58150D02*
Y61398D01*
X461201Y56287D02*
X462657Y58150D01*
X448028Y77756D02*
X449610D01*
X448819Y74803D02*
X449610Y77756D01*
X448028D02*
X448819Y74803D01*
X482657Y58150D02*
X508819D01*
X462657Y61398D02*
X474980D01*
X388819Y217047D02*
X508819D01*
X388819D02*
Y250905D01*
X508819D01*
Y217047D02*
Y250905D01*
X482657Y248937D02*
X508819D01*
X462657D02*
X474980D01*
X442658D02*
X454980D01*
X422657D02*
X434980D01*
X408819Y222441D02*
Y245689D01*
Y222441D02*
X410338D01*
X410789Y223622D01*
X408819D02*
X410789D01*
X426849D02*
X430789D01*
X426849D02*
X427299Y222441D01*
X430338D01*
X430789Y223622D01*
X466849D02*
X470789D01*
X466849D02*
X467300Y222441D01*
X470338D01*
X470789Y223622D01*
X486849D02*
X488819D01*
X486849D02*
X487299Y222441D01*
X488819D01*
Y245689D01*
X482657D02*
X488819D01*
X482657D02*
Y248937D01*
X481201Y250800D02*
X482657Y248937D01*
X476437Y250800D02*
X481201D01*
X474980Y248937D02*
X476437Y250800D01*
X474980Y245689D02*
Y248937D01*
Y245689D02*
X476283Y244462D01*
X481354D02*
X482657Y245689D01*
X462657D02*
X474980D01*
X461354Y244462D02*
X462657Y245689D01*
Y248937D01*
X461201Y250800D02*
X462657Y248937D01*
X456437Y250800D02*
X461201D01*
X454980Y248937D02*
X456437Y250800D01*
X454980Y245689D02*
Y248937D01*
Y245689D02*
X456283Y244462D01*
X442658Y245689D02*
X454980D01*
X421354Y244462D02*
X422657Y245689D01*
X421201Y250800D02*
X422657Y248937D01*
Y245689D02*
Y248937D01*
X416437Y250800D02*
X421201D01*
X414980Y245689D02*
X416283Y244462D01*
X414980Y245689D02*
Y248937D01*
X416437Y250800D01*
X408819Y245689D02*
X414980D01*
X408819Y244462D02*
X488819D01*
X468028Y229331D02*
X469610D01*
X468028D02*
X468819Y232283D01*
X469610Y229331D01*
X428028D02*
X429610D01*
X428028D02*
X428819Y232283D01*
X429610Y229331D01*
X446849Y223622D02*
X450789D01*
X446849D02*
X447299Y222441D01*
X450338D01*
X450789Y223622D01*
X441354Y244462D02*
X442658Y245689D01*
X441201Y250800D02*
X442658Y248937D01*
Y245689D02*
Y248937D01*
X436437Y250800D02*
X441201D01*
X434980Y245689D02*
X436283Y244462D01*
X434980Y245689D02*
Y248937D01*
X436437Y250800D01*
X448028Y229331D02*
X449610D01*
X448028D02*
X448819Y232283D01*
X449610Y229331D01*
X388819Y248937D02*
X414980D01*
X422657Y245689D02*
X434980D01*
X426575Y194488D02*
Y214961D01*
X360827Y194488D02*
X426575D01*
X360827D02*
Y214961D01*
X426575D01*
Y204724D02*
X433701D01*
X353701D02*
X360827D01*
X426575Y170866D02*
Y191339D01*
X360827Y170866D02*
X426575D01*
X360827D02*
Y191339D01*
X426575D01*
Y181102D02*
X433701D01*
X353701D02*
X360827D01*
X340945Y100511D02*
Y97887D01*
X342257Y96575D01*
X343569Y97887D01*
Y100511D01*
Y98543D01*
X340945D01*
X347504Y97231D02*
X346849Y96575D01*
X345537D01*
X344881Y97231D01*
Y99855D01*
X345537Y100511D01*
X346849D01*
X347504Y99855D01*
X348816Y96575D02*
Y100511D01*
X351440D01*
X355376D02*
X352752D01*
X355376Y97887D01*
Y97231D01*
X354720Y96575D01*
X353408D01*
X352752Y97231D01*
X304569D02*
X303913Y96575D01*
X302601D01*
X301945Y97231D01*
Y99855D01*
X302601Y100511D01*
X303913D01*
X304569Y99855D01*
X307849Y96575D02*
X306537D01*
X305881Y97231D01*
Y99855D01*
X306537Y100511D01*
X307849D01*
X308504Y99855D01*
Y97231D01*
X307849Y96575D01*
X309816Y100511D02*
Y96575D01*
X311128Y97887D01*
X312440Y96575D01*
Y100511D01*
X316376D02*
X313752D01*
X316376Y97887D01*
Y97231D01*
X315720Y96575D01*
X314408D01*
X313752Y97231D01*
X343569Y107231D02*
X342913Y106575D01*
X341601D01*
X340945Y107231D01*
Y109855D01*
X341601Y110511D01*
X342913D01*
X343569Y109855D01*
Y108543D01*
X342257D01*
X344881Y106575D02*
Y110511D01*
X347504D01*
X351440D02*
X348816D01*
X351440Y107887D01*
Y107231D01*
X350784Y106575D01*
X349472D01*
X348816Y107231D01*
X301945Y106575D02*
Y109199D01*
X303257Y110511D01*
X304569Y109199D01*
Y106575D01*
X308504Y107231D02*
X307849Y106575D01*
X306537D01*
X305881Y107231D01*
Y109855D01*
X306537Y110511D01*
X307849D01*
X308504Y109855D01*
X312440Y106575D02*
X309816D01*
Y110511D01*
X312440D01*
X309816Y108543D02*
X311128D01*
X316376Y110511D02*
X313752D01*
X316376Y107887D01*
Y107231D01*
X315720Y106575D01*
X314408D01*
X313752Y107231D01*
X343569Y117231D02*
X342913Y116575D01*
X341601D01*
X340945Y117231D01*
Y119855D01*
X341601Y120511D01*
X342913D01*
X343569Y119855D01*
Y118543D01*
X342257D01*
X344881Y116575D02*
Y120511D01*
Y118543D01*
X347504D01*
Y116575D01*
Y120511D01*
X351440D02*
X348816D01*
X351440Y117887D01*
Y117231D01*
X350784Y116575D01*
X349472D01*
X348816Y117231D01*
X301945Y116575D02*
Y119199D01*
X303257Y120511D01*
X304569Y119199D01*
Y116575D01*
X305881D02*
X307192D01*
X306537D01*
Y120511D01*
X305881D01*
X307192D01*
X311784Y117231D02*
X311128Y116575D01*
X309816D01*
X309160Y117231D01*
Y117887D01*
X309816Y118543D01*
X311128D01*
X311784Y119199D01*
Y119855D01*
X311128Y120511D01*
X309816D01*
X309160Y119855D01*
X315064Y116575D02*
X313752D01*
X313096Y117231D01*
Y119855D01*
X313752Y120511D01*
X315064D01*
X315720Y119855D01*
Y117231D01*
X315064Y116575D01*
X319656Y120511D02*
X317032D01*
X319656Y117887D01*
Y117231D01*
X319000Y116575D01*
X317688D01*
X317032Y117231D01*
X343569Y127231D02*
X342913Y126575D01*
X341601D01*
X340945Y127231D01*
Y127887D01*
X341601Y128543D01*
X342913D01*
X343569Y129199D01*
Y129855D01*
X342913Y130511D01*
X341601D01*
X340945Y129855D01*
X346849Y126575D02*
X345537D01*
X344881Y127231D01*
Y129855D01*
X345537Y130511D01*
X346849D01*
X347504Y129855D01*
Y127231D01*
X346849Y126575D01*
X348816Y130511D02*
Y127887D01*
X350128Y126575D01*
X351440Y127887D01*
Y130511D01*
Y128543D01*
X348816D01*
X355376Y130511D02*
X352752D01*
X355376Y127887D01*
Y127231D01*
X354720Y126575D01*
X353408D01*
X352752Y127231D01*
X301945Y126575D02*
Y129199D01*
X303257Y130511D01*
X304569Y129199D01*
Y126575D01*
X308504D02*
X305881D01*
Y130511D01*
X308504D01*
X305881Y128543D02*
X307192D01*
X312440Y130511D02*
X309816D01*
X312440Y127887D01*
Y127231D01*
X311784Y126575D01*
X310472D01*
X309816Y127231D01*
X340945Y180511D02*
Y177887D01*
X342257Y176575D01*
X343569Y177887D01*
Y180511D01*
Y178543D01*
X340945D01*
X347504Y177231D02*
X346849Y176575D01*
X345537D01*
X344881Y177231D01*
Y179855D01*
X345537Y180511D01*
X346849D01*
X347504Y179855D01*
X348816Y176575D02*
Y180511D01*
X351440D01*
X352752D02*
X354064D01*
X353408D01*
Y176575D01*
X352752Y177231D01*
X304569D02*
X303913Y176575D01*
X302601D01*
X301945Y177231D01*
Y179855D01*
X302601Y180511D01*
X303913D01*
X304569Y179855D01*
X307849Y176575D02*
X306537D01*
X305881Y177231D01*
Y179855D01*
X306537Y180511D01*
X307849D01*
X308504Y179855D01*
Y177231D01*
X307849Y176575D01*
X309816Y180511D02*
Y176575D01*
X311128Y177887D01*
X312440Y176575D01*
Y180511D01*
X313752D02*
X315064D01*
X314408D01*
Y176575D01*
X313752Y177231D01*
X343569Y187231D02*
X342913Y186575D01*
X341601D01*
X340945Y187231D01*
Y189855D01*
X341601Y190511D01*
X342913D01*
X343569Y189855D01*
Y188543D01*
X342257D01*
X344881Y186575D02*
Y190511D01*
X347504D01*
X348816D02*
X350128D01*
X349472D01*
Y186575D01*
X348816Y187231D01*
X301945Y186575D02*
Y189199D01*
X303257Y190511D01*
X304569Y189199D01*
Y186575D01*
X308504Y187231D02*
X307849Y186575D01*
X306537D01*
X305881Y187231D01*
Y189855D01*
X306537Y190511D01*
X307849D01*
X308504Y189855D01*
X312440Y186575D02*
X309816D01*
Y190511D01*
X312440D01*
X309816Y188543D02*
X311128D01*
X313752Y190511D02*
X315064D01*
X314408D01*
Y186575D01*
X313752Y187231D01*
X343569Y197231D02*
X342913Y196575D01*
X341601D01*
X340945Y197231D01*
Y199855D01*
X341601Y200511D01*
X342913D01*
X343569Y199855D01*
Y198543D01*
X342257D01*
X344881Y196575D02*
Y200511D01*
Y198543D01*
X347504D01*
Y196575D01*
Y200511D01*
X348816D02*
X350128D01*
X349472D01*
Y196575D01*
X348816Y197231D01*
X301945Y196575D02*
Y199199D01*
X303257Y200511D01*
X304569Y199199D01*
Y196575D01*
X305881D02*
X307192D01*
X306537D01*
Y200511D01*
X305881D01*
X307192D01*
X311784Y197231D02*
X311128Y196575D01*
X309816D01*
X309160Y197231D01*
Y197887D01*
X309816Y198543D01*
X311128D01*
X311784Y199199D01*
Y199855D01*
X311128Y200511D01*
X309816D01*
X309160Y199855D01*
X315064Y196575D02*
X313752D01*
X313096Y197231D01*
Y199855D01*
X313752Y200511D01*
X315064D01*
X315720Y199855D01*
Y197231D01*
X315064Y196575D01*
X317032Y200511D02*
X318344D01*
X317688D01*
Y196575D01*
X317032Y197231D01*
X343569Y207231D02*
X342913Y206575D01*
X341601D01*
X340945Y207231D01*
Y207887D01*
X341601Y208543D01*
X342913D01*
X343569Y209199D01*
Y209855D01*
X342913Y210511D01*
X341601D01*
X340945Y209855D01*
X346849Y206575D02*
X345537D01*
X344881Y207231D01*
Y209855D01*
X345537Y210511D01*
X346849D01*
X347504Y209855D01*
Y207231D01*
X346849Y206575D01*
X348816Y210511D02*
Y207887D01*
X350128Y206575D01*
X351440Y207887D01*
Y210511D01*
Y208543D01*
X348816D01*
X352752Y210511D02*
X354064D01*
X353408D01*
Y206575D01*
X352752Y207231D01*
X301945Y206575D02*
Y209199D01*
X303257Y210511D01*
X304569Y209199D01*
Y206575D01*
X308504D02*
X305881D01*
Y210511D01*
X308504D01*
X305881Y208543D02*
X307192D01*
X309816Y210511D02*
X311128D01*
X310472D01*
Y206575D01*
X309816Y207231D01*
X160945Y161575D02*
X163569D01*
X162257D01*
Y165511D01*
X164881Y161575D02*
Y165511D01*
X166849D01*
X167504Y164855D01*
Y164199D01*
X166849Y163543D01*
X164881D01*
X166849D01*
X167504Y162887D01*
Y162231D01*
X166849Y161575D01*
X164881D01*
X131569Y162231D02*
X130913Y161575D01*
X129601D01*
X128945Y162231D01*
Y162887D01*
X129601Y163543D01*
X130913D01*
X131569Y164199D01*
Y164855D01*
X130913Y165511D01*
X129601D01*
X128945Y164855D01*
X134848Y161575D02*
X133537D01*
X132881Y162231D01*
Y164855D01*
X133537Y165511D01*
X134848D01*
X135504Y164855D01*
Y162231D01*
X134848Y161575D01*
X160945Y171575D02*
Y174199D01*
X162257Y175511D01*
X163569Y174199D01*
Y171575D01*
X167504Y172231D02*
X166849Y171575D01*
X165537D01*
X164881Y172231D01*
Y174855D01*
X165537Y175511D01*
X166849D01*
X167504Y174855D01*
X171440Y172231D02*
X170784Y171575D01*
X169472D01*
X168816Y172231D01*
Y174855D01*
X169472Y175511D01*
X170784D01*
X171440Y174855D01*
X131569Y172231D02*
X130913Y171575D01*
X129601D01*
X128945Y172231D01*
Y174855D01*
X129601Y175511D01*
X130913D01*
X131569Y174855D01*
Y173543D01*
X130257D01*
X132881Y175511D02*
Y171575D01*
X135504Y175511D01*
Y171575D01*
X136816D02*
Y175511D01*
X138784D01*
X139440Y174855D01*
Y172231D01*
X138784Y171575D01*
X136816D01*
X160945Y181575D02*
X162257D01*
X161601D01*
Y185511D01*
X160945D01*
X162257D01*
X164225D02*
Y181575D01*
X166849Y185511D01*
Y181575D01*
X168160D02*
Y185511D01*
X170128D01*
X170784Y184855D01*
Y184199D01*
X170128Y183543D01*
X168160D01*
X170128D01*
X170784Y182887D01*
Y182231D01*
X170128Y181575D01*
X168160D01*
X128945D02*
X130257D01*
X129601D01*
Y185511D01*
X128945D01*
X130257D01*
X132225D02*
Y181575D01*
X134848Y185511D01*
Y181575D01*
X136160Y185511D02*
Y182887D01*
X137472Y181575D01*
X138784Y182887D01*
Y185511D01*
Y183543D01*
X136160D01*
X131099Y220426D02*
Y223574D01*
X130050Y222525D01*
X129000Y223574D01*
Y220426D01*
X127951D02*
X126901D01*
X127426D01*
Y223574D01*
X127951Y223049D01*
X368490Y90574D02*
Y87426D01*
X370064D01*
X370589Y87950D01*
Y89000D01*
X370064Y89525D01*
X368490D01*
X369539D02*
X370589Y90574D01*
X373738D02*
X371639D01*
X373738Y88475D01*
Y87950D01*
X373213Y87426D01*
X372163D01*
X371639Y87950D01*
X374787Y90574D02*
X375837D01*
X375312D01*
Y87426D01*
X374787Y87950D01*
X378985Y90574D02*
Y87426D01*
X377411Y89000D01*
X379510D01*
X397985Y137426D02*
Y140574D01*
X396411D01*
X395886Y140050D01*
Y139000D01*
X396411Y138475D01*
X397985D01*
X396936D02*
X395886Y137426D01*
X392738D02*
X394837D01*
X392738Y139525D01*
Y140050D01*
X393262Y140574D01*
X394312D01*
X394837Y140050D01*
X391688Y137426D02*
X390639D01*
X391163D01*
Y140574D01*
X391688Y140050D01*
X389064Y137426D02*
X388015D01*
X388540D01*
Y140574D01*
X389064Y140050D01*
X387752Y169574D02*
Y166426D01*
X389327D01*
X389851Y166951D01*
Y168000D01*
X389327Y168525D01*
X387752D01*
X388802D02*
X389851Y169574D01*
X390901D02*
X391950D01*
X391426D01*
Y166426D01*
X390901Y166951D01*
X393525Y169574D02*
X394574D01*
X394050D01*
Y166426D01*
X393525Y166951D01*
X397723Y169574D02*
Y166426D01*
X396149Y168000D01*
X398248D01*
X379723Y216426D02*
Y219574D01*
X378149D01*
X377624Y219050D01*
Y218000D01*
X378149Y217475D01*
X379723D01*
X378673D02*
X377624Y216426D01*
X376574D02*
X375525D01*
X376049D01*
Y219574D01*
X376574Y219050D01*
X373951Y216426D02*
X372901D01*
X373426D01*
Y219574D01*
X373951Y219050D01*
X371327Y216426D02*
X370277D01*
X370802D01*
Y219574D01*
X371327Y219050D01*
X149426Y67198D02*
X152574D01*
Y65099D01*
X149426Y64050D02*
X152574D01*
Y62475D01*
X152050Y61950D01*
X149951D01*
X149426Y62475D01*
Y64050D01*
X152574Y58802D02*
Y60901D01*
X150475Y58802D01*
X149951D01*
X149426Y59327D01*
Y60376D01*
X149951Y60901D01*
X196574Y59327D02*
X193426D01*
Y61426D01*
X196574Y62475D02*
X193426D01*
Y64050D01*
X193950Y64574D01*
X196049D01*
X196574Y64050D01*
Y62475D01*
X193426Y65624D02*
Y66673D01*
Y66149D01*
X196574D01*
X196049Y65624D01*
X513574Y71475D02*
Y70426D01*
Y70951D01*
X510951D01*
X510426Y70426D01*
Y69901D01*
X510951Y69376D01*
X513574Y74624D02*
Y72525D01*
X512000D01*
X512525Y73574D01*
Y74099D01*
X512000Y74624D01*
X510951D01*
X510426Y74099D01*
Y73049D01*
X510951Y72525D01*
X39574Y97475D02*
Y96426D01*
Y96951D01*
X36950D01*
X36426Y96426D01*
Y95901D01*
X36950Y95376D01*
X36426Y100099D02*
X39574D01*
X38000Y98525D01*
Y100624D01*
X513574Y231475D02*
Y230426D01*
Y230950D01*
X510951D01*
X510426Y230426D01*
Y229901D01*
X510951Y229376D01*
X513050Y232525D02*
X513574Y233050D01*
Y234099D01*
X513050Y234624D01*
X512525D01*
X512000Y234099D01*
Y233574D01*
Y234099D01*
X511475Y234624D01*
X510951D01*
X510426Y234099D01*
Y233050D01*
X510951Y232525D01*
X39574Y221475D02*
Y220426D01*
Y220951D01*
X36950D01*
X36426Y220426D01*
Y219901D01*
X36950Y219376D01*
X36426Y224624D02*
Y222525D01*
X38525Y224624D01*
X39050D01*
X39574Y224099D01*
Y223049D01*
X39050Y222525D01*
X39574Y303000D02*
Y301951D01*
Y302475D01*
X36950D01*
X36426Y301951D01*
Y301426D01*
X36950Y300901D01*
X36426Y304049D02*
Y305099D01*
Y304574D01*
X39574D01*
X39050Y304049D01*
X140683Y260367D02*
X140158Y260892D01*
Y261942D01*
X140683Y262466D01*
X142782D01*
X143307Y261942D01*
Y260892D01*
X142782Y260367D01*
X143307Y257743D02*
X140158D01*
X141732Y259318D01*
Y257219D01*
X81950Y185525D02*
X81426Y186049D01*
Y187099D01*
X81950Y187624D01*
X84049D01*
X84574Y187099D01*
Y186049D01*
X84049Y185525D01*
X84574Y182376D02*
Y184475D01*
X82475Y182376D01*
X81950D01*
X81426Y182901D01*
Y183950D01*
X81950Y184475D01*
D13*
X167224Y56201D02*
X166486Y56627D01*
Y55775D01*
X167224Y56201D01*
X190847D02*
X190108Y56627D01*
Y55775D01*
X190847Y56201D01*
D15*
X461894Y115563D02*
X493391Y99815D01*
Y131311D01*
X461894Y115563D02*
X493391Y131311D01*
X474409Y113189D02*
X481299Y120079D01*
Y110236D02*
X489173Y118110D01*
X481299Y110236D02*
Y120079D01*
X463863Y190366D02*
X495359Y206114D01*
Y174618D02*
Y206114D01*
X463863Y190366D02*
X495359Y174618D01*
D16*
X82677Y66929D02*
X82709Y65920D01*
X82806Y64915D01*
X82968Y63919D01*
X83192Y62935D01*
X83479Y61967D01*
X83828Y61019D01*
X84237Y60096D01*
X84704Y59201D01*
X85227Y58338D01*
X85804Y57510D01*
X86434Y56721D01*
X87113Y55974D01*
X87838Y55271D01*
X88606Y54617D01*
X89416Y54013D01*
X90262Y53462D01*
X91141Y52967D01*
X92051Y52529D01*
X92986Y52150D01*
X93944Y51832D01*
X94921Y51576D01*
X95912Y51383D01*
X96913Y51254D01*
X97920Y51189D01*
X98930D01*
X99937Y51254D01*
X100938Y51383D01*
X101929Y51576D01*
X102906Y51832D01*
X103864Y52150D01*
X104800Y52529D01*
X105709Y52967D01*
X106589Y53462D01*
X107435Y54013D01*
X108244Y54617D01*
X109013Y55271D01*
X109738Y55974D01*
X110416Y56721D01*
X111046Y57510D01*
X111623Y58338D01*
X112147Y59201D01*
X112614Y60096D01*
X113022Y61019D01*
X113371Y61967D01*
X113658Y62934D01*
X113883Y63919D01*
X114044Y64915D01*
X114141Y65920D01*
X114173Y66929D01*
Y141732D02*
X114141Y142741D01*
X114044Y143746D01*
X113883Y144743D01*
X113658Y145727D01*
X113371Y146695D01*
X113022Y147642D01*
X112614Y148565D01*
X112147Y149460D01*
X111623Y150323D01*
X111046Y151151D01*
X110416Y151941D01*
X109738Y152688D01*
X109013Y153390D01*
X108244Y154045D01*
X107435Y154648D01*
X106589Y155199D01*
X105709Y155694D01*
X104800Y156132D01*
X103864Y156511D01*
X102906Y156829D01*
X101929Y157086D01*
X100939Y157278D01*
X99937Y157407D01*
X98930Y157472D01*
X97921D01*
X96913Y157407D01*
X95912Y157278D01*
X94921Y157086D01*
X93944Y156829D01*
X92986Y156511D01*
X92051Y156132D01*
X91141Y155694D01*
X90262Y155199D01*
X89416Y154648D01*
X88607Y154045D01*
X87838Y153390D01*
X87113Y152688D01*
X86434Y151941D01*
X85804Y151151D01*
X85227Y150323D01*
X84704Y149460D01*
X84237Y148565D01*
X83828Y147642D01*
X83479Y146695D01*
X83192Y145727D01*
X82968Y144743D01*
X82806Y143746D01*
X82709Y142741D01*
X82677Y141732D01*
Y66929D02*
Y141732D01*
X114173Y66929D02*
Y141732D01*
X240158Y78740D02*
X346457D01*
X240158Y11811D02*
Y78740D01*
Y11811D02*
X346457D01*
Y78740D01*
X65000Y245000D02*
Y275000D01*
Y35000D02*
Y85000D01*
Y170000D02*
Y200000D01*
Y130000D02*
Y160000D01*
X147000Y251000D02*
Y269000D01*
X151000Y246000D02*
Y274000D01*
X149000Y248000D02*
Y272000D01*
X123000Y173000D02*
Y197000D01*
X121000Y171000D02*
Y199000D01*
X125157Y158543D02*
Y218543D01*
X360157D01*
Y88543D02*
Y218543D01*
X125157Y88543D02*
X360157D01*
X125157D02*
Y158543D01*
D77*
X3495Y278268D02*
X3355Y277987D01*
X2933Y277565D01*
X5885D01*
X3636Y258442D02*
X3495D01*
X3214Y258301D01*
X3073Y258161D01*
X2933Y257880D01*
Y257317D01*
X3073Y257036D01*
X3214Y256896D01*
X3495Y256755D01*
X3776D01*
X4058Y256896D01*
X4479Y257177D01*
X5885Y258583D01*
Y256615D01*
X3495Y195905D02*
X3355Y195624D01*
X2933Y195203D01*
X5885D01*
X3636Y176080D02*
X3495D01*
X3214Y175939D01*
X3073Y175799D01*
X2933Y175518D01*
Y174955D01*
X3073Y174674D01*
X3214Y174533D01*
X3495Y174393D01*
X3776D01*
X4058Y174533D01*
X4479Y174815D01*
X5885Y176221D01*
Y174252D01*
X2933Y155973D02*
Y154427D01*
X4058Y155270D01*
Y154849D01*
X4198Y154567D01*
X4339Y154427D01*
X4760Y154286D01*
X5042D01*
X5463Y154427D01*
X5745Y154708D01*
X5885Y155130D01*
Y155551D01*
X5745Y155973D01*
X5604Y156114D01*
X5323Y156254D01*
X2933Y134949D02*
X4901Y136354D01*
Y134246D01*
X2933Y134949D02*
X5885D01*
X2933Y31800D02*
Y30254D01*
X4058Y31097D01*
Y30675D01*
X4198Y30394D01*
X4339Y30254D01*
X4761Y30113D01*
X5042D01*
X5463Y30254D01*
X5745Y30535D01*
X5885Y30957D01*
Y31378D01*
X5745Y31800D01*
X5604Y31941D01*
X5323Y32081D01*
X3636Y51907D02*
X3495D01*
X3214Y51766D01*
X3073Y51626D01*
X2933Y51344D01*
Y50782D01*
X3073Y50501D01*
X3214Y50360D01*
X3495Y50220D01*
X3776D01*
X4058Y50360D01*
X4479Y50642D01*
X5885Y52047D01*
Y50079D01*
X3495Y71732D02*
X3355Y71451D01*
X2933Y71029D01*
X5885D01*
X418268Y58613D02*
X418549Y58473D01*
X418971Y58051D01*
Y61003D01*
X438093Y58754D02*
Y58613D01*
X438234Y58332D01*
X438375Y58192D01*
X438656Y58051D01*
X439218D01*
X439499Y58192D01*
X439640Y58332D01*
X439780Y58613D01*
Y58894D01*
X439640Y59176D01*
X439359Y59597D01*
X437953Y61003D01*
X439921D01*
X458200Y58051D02*
X459746D01*
X458903Y59176D01*
X459325D01*
X459606Y59316D01*
X459746Y59457D01*
X459887Y59878D01*
Y60160D01*
X459746Y60581D01*
X459465Y60863D01*
X459044Y61003D01*
X458622D01*
X458200Y60863D01*
X458060Y60722D01*
X457919Y60441D01*
X479225Y58051D02*
X477819Y60019D01*
X479928D01*
X479225Y58051D02*
Y61003D01*
X479370Y248473D02*
X479089Y248614D01*
X478667Y249036D01*
Y246083D01*
X459545Y248333D02*
Y248473D01*
X459404Y248754D01*
X459263Y248895D01*
X458982Y249036D01*
X458420D01*
X458139Y248895D01*
X457998Y248754D01*
X457858Y248473D01*
Y248192D01*
X457998Y247911D01*
X458279Y247489D01*
X459685Y246083D01*
X457717D01*
X439438Y249036D02*
X437891D01*
X438735Y247911D01*
X438313D01*
X438032Y247770D01*
X437891Y247630D01*
X437751Y247208D01*
Y246927D01*
X437891Y246505D01*
X438172Y246224D01*
X438594Y246083D01*
X439016D01*
X439438Y246224D01*
X439578Y246365D01*
X439719Y246646D01*
X418413Y249036D02*
X419819Y247067D01*
X417710D01*
X418413Y249036D02*
Y246083D01*
M02*
